<?xml version="1.0" encoding="UTF-8"?>
<svg viewBox="0 0 556.59 639.56" xmlns="http://www.w3.org/2000/svg">
<defs>
<style>.cls-1{opacity:0.53;}.cls-2,.cls-3,.cls-4,.cls-5,.cls-6,.cls-7{fill:none;stroke:#7fc0ff;stroke-width:1.77px;}.cls-3,.cls-4,.cls-5,.cls-6,.cls-7{stroke-miterlimit:10;}.cls-3{opacity:0.69;}.cls-4{opacity:0.67;}.cls-5{opacity:0.72;}.cls-6{opacity:0.46;}.cls-7{opacity:0.73;}.cls-8{fill:#348ae9;}</style>
</defs>
<title>Asset 1</title>
<g data-name="Layer 2">
<g data-name="Layer 1">
<g class="cls-1">
<path class="cls-2" d="M334.91,340.59c-.88-.37-1.5-2.14-2.88-2.52l-1.89-.12c-.12-.24,0-.62,0-.88a11.86,11.86,0,0,1-7.8-3.14c-.24-.25-1.25-1.5-2.13-1.5-4.14,0-6.79-3.14-12.31-3.14s-8.3,2.13-10.31,5.52h1.14a12.57,12.57,0,0,1,7-3c.63,0,1.26-.12,1.76.39-.38.37-.5.88.25,1.39h3.64c1.76,0,2.64,1.87,4.41,1.87,1,0,1.63-.38,2.64.13.49.25.37,1.13,1.38,1.13.37,1.89,2.39,1.75,4.27,2.64a1.35,1.35,0,0,1-1.26,1.13v.76c2.39,0,4.4.87,7.29.87C331.65,342.1,334,342.1,334.91,340.59Z"/>
<path class="cls-2" d="M303.88,334.07v.86a1.11,1.11,0,0,0-1.13,1.14c0,.25,1.63,0,1.75,0a3.13,3.13,0,0,0,0-1.89l-.37-.11Z"/>
<path class="cls-2" d="m321.47 347.51a2 2 0 0 0 2 1.88 24.08 24.08 0 0 0 4.16 -0.75 1.47 1.47 0 0 0 -1.13 -1.13l0.25 0.24a13.61 13.61 0 0 0 -4 -1c-0.52 0-1.28 0.25-1.28 0.76z"/>
<path class="cls-2" d="M364.19,348.64c.76,0,1.64,0,2-.76-.38-.75-3.4-1.39-3.76-1.39s-1.39.12-1.39.77a1.27,1.27,0,0,0,.05.34l2.68,1Z"/>
<path class="cls-2" d="m363.79 348.64l-2.68-1c0.26 0.8 1.45 0.97 2.68 1z"/>
<path class="cls-2" d="M353.48,344.64l.09,0c-.14-.1-.28-.19-.43-.31Z"/>
<path class="cls-2" d="m346.73 341.6a4.79 4.79 0 0 0 -0.88 0.08l7.3 2.82c-1.82-1.16-2.8-2.9-6.42-2.9z"/>
<path class="cls-2" d="M353.76,344.87a5.2,5.2,0,0,1-.61-.37l-7.3-2.82a15.72,15.72,0,0,1-2.89.43c-1.13,0-1.88-.88-3-.88-.38,0-1,.49-1,.88a1.66,1.66,0,0,0,1.64,1.38,3.47,3.47,0,0,0,.87,2.64c-1.5.75-2.76.11-5.65.11-.12.14-.37.51-.62.51a2.31,2.31,0,0,0,1.5,2c0-.37.13-.62.13-1,.63.39.63,0,1.51,0,1.51,0,4.52-.37,5.65.39.63.38.38,1.62,1.51,1.62,1.37,0,1.26-2.25,2.89-2.25.63,0,.51.63,1.26.63s1.38-.51,2.26-1h4.65a11.07,11.07,0,0,0-3-2.46l-.09,0Z"/>
<path class="cls-2" d="m380.53 378c0 0.38 0.76 0 1.14 0 0.75 0 1.26-1.13 1.5-1.63v-0.89h-1.17c-0.71 0.04-1.47 1.3-1.47 2.52z"/>
<path class="cls-2" d="M425.26,414.61a5,5,0,0,1-2.63-1.13c0,.11-.38,0-.5,0-1.52,0-2.52,1.25-2.52,3.15,0,1.13,3.28,3.38,5.15,3.38,1.51,0,3.4-2.89,3.4-4,0-.25-.38-1.13-.88-1.13S425.52,416.24,425.26,414.61Z"/>
<path class="cls-2" d="M335.92,580.62a2.16,2.16,0,0,0,1.38,1.75h1.13V578.6c.13-.38.5-.63.5-1.39,0-1-.37-2-1.5-2-.76,0-1.51,3.77-1.51,3.77Z"/>
<path class="cls-2" d="m17.25 194.57l-5.49 2.13z"/>
<path class="cls-2" d="m16.66 195.77l0.58-1.19z"/>
<path class="cls-2" d="M16.67,195.76l.58-.34v-.85Z"/>
<path class="cls-2" d="M17.25,194.57l-5.46,2.14a6.74,6.74,0,0,0,4.87-.94Z"/>
<path class="cls-2" d="M17.25,194.57l-.68-.32c-2,.77-4,.19-5.36,2.33.19.06.37.08.55.12Z"/>
<path class="cls-2" d="m17.25 194.57v-0.63a4.39 4.39 0 0 1 -0.66 0.31z"/>
<path class="cls-2" d="m10.41 165.27a33.61 33.61 0 0 0 6.84 4.81v-5.89z"/>
<path class="cls-2" d="M6.81,116.28c-.13.38-1.88,3.53-1.88,3.53,0,.56,2.16,1.18,4.1,1.8l4.18-5.33Z"/>
<path class="cls-2" d="M17.25,164.19v-.1h0V151.54a6,6,0,0,1-1.27.31c-2.64,0-9.42,3.14-9.42,6.9,0,2,4,2.65,5,5.41-.62,0-1.25.38-1.88.38a7.39,7.39,0,0,0,.71.73l6.84-1.08Z"/>
<path class="cls-2" d="M13.72,116.28h-.51L9,121.61a13.91,13.91,0,0,1,2.55,1c1.25.74,2.77,4.52,3.77,5,.67.33,1.3.6,1.9.85V112.26A37.49,37.49,0,0,0,13.72,116.28Z"/>
<path class="cls-2" d="M14.71,130.74H12.46c-3,2-8.17,3.64-11.3,5.52.62,1.26,1.75,2,3.77,2a4.33,4.33,0,0,0-.38,1.26c0,1.13,1.51,1.64,1.63,3.52h6.65c1.65-.33,2.53.59,4.42.83V133.76C15.72,133.85,14.71,133.59,14.71,130.74Z"/>
<path class="cls-2" d="M322,219.54l-38.68-33.9-.47-.18C294.53,195.81,322,219.54,322,219.54Z"/>
<path class="cls-2" d="M375.61,207.2l25.77-1.48v-.07Z"/>
<polygon class="cls-2" points="191.41 213.82 197.36 247.11 205.3 287.62"/>
<path class="cls-2" d="M375.61,207.2l0,0c.38.3,6.22,2.26,14.53,5l.3-.19Z"/>
<path class="cls-2" d="m375.61 207.2l8.92 8.71c-5.16-5-8.57-8.39-8.91-8.69z"/>
<path class="cls-2" d="M17.25,194.56h0l.62.45.34-.24a7.37,7.37,0,0,0-1-.61Z"/>
<path class="cls-2" d="m163.65 137.84 4.35-26.33h-0.1z"/>
<path class="cls-2" d="M171.56,277.59l-3.71,4.64c0,.15,0,.31.05.45l29.46-35.57Z"/>
<path class="cls-2" d="m240 247.51l9.43 26.07 8.77 23.26 3.29 8.72-3.22-8.69z"/>
<path class="cls-2" d="m375.61 207.2l3.11 8.48z"/>
<path class="cls-2" d="m330.41 255.84c0.91 4 1.72 7.54 2.32 10.19v0.05z"/>
<path class="cls-2" d="M218.21,171.39l19.34-24.95,18.6-25s0-.08,0-.12Z"/>
<path class="cls-2" d="M375.64,207.22c.34.3,3.75,3.64,8.91,8.69a7.14,7.14,0,0,0,4.9-3.12,3.18,3.18,0,0,1,.72-.6C381.86,209.48,376,207.52,375.64,207.22Z"/>
<path class="cls-2" d="M375.61,207.2l3.13,8.48a28.87,28.87,0,0,0,5.79.23Z"/>
<path class="cls-2" d="m371.74 238.56c-2.9 0.24-7.41 2.26-7.41 5 0 1.14 1.76 3.16 2.5 3.16 1 0 3.34-3.38 5.85-4.13 0.34-0.07 2.94-1 5.29-2.07l-8.11-3.05c0.02 0.99 0.24 1.09 1.88 1.09z"/>
<path class="cls-2" d="M322,219.54c0-.3,2.88,12.21,5.79,25l.44,0a1.8,1.8,0,0,0,.27-.22l-.26.22a3.52,3.52,0,0,1-.2,1.08c.8,3.54,1.61,7.06,2.35,10.3l2.36,10.24a.42.42,0,0,0,.26.12c.88,0,3.27-4.4,3.52-5.4,0,0-1.13-.88-1.13-1.52a1.07,1.07,0,0,1,.75-.87c.38,0,.76.13,1.14.13a12.5,12.5,0,0,0,4.77-.63c-.88-.63-2,0-3.15,0h-1.25c2.51-1.63,6.78-.88,9.3-2.77.5.5,2.63,0,4.15-.38v-.86a6.47,6.47,0,0,1-1.39.86c-.75,0-1.25-1.63-1.25-2.25-.38-.14-.51-.77-.51-1.14,0-4.76,4.27-6.15,6.29-8.17,1.25-.63,1.38,0,2.88,0a4.55,4.55,0,0,0,4-2.14,5.52,5.52,0,0,1-.57-1l-.06-.29v-.38a4.07,4.07,0,0,0,1.26,0c.76,0,3.9.5,5-.25.83-.55,1.06-1.58,1.87-2.13Zm26.09,17.65c.15-.16.27-.34.41-.51-.14.17-.26.35-.41.51a2.34,2.34,0,0,0-.37.69A2.34,2.34,0,0,1,348.11,237.19Zm-14.24,1.95.1,0-.09,0c-.24.19-.85.77-1.56,1.46C333,239.91,333.64,239.33,333.87,239.14Z"/>
<path class="cls-2" d="M322,219.54l46.68,17.51a2.21,2.21,0,0,1,1.15-.37c0,.32,0,.58,0,.8l8.11,3.05c2.07-.92,3.95-1.88,3.95-2.36,0-1.37-3.28-1.49-4-1.49-3.65,0-9.42-3.53-9.42-6.67,0-.75,1-1.76,1.26-3-.63,0-2-.37-3.15-.37.76-1,5.28-1.64,5.28-4.15s-3.9-1.88-6.54-1.88c-5.52,0-8,3.89-11.8,4.39,1.63-3.39,4.27-2.27,7-5,1.76-1.75.51-2.88,3.14-3.77,4.78-1.5,7.54-.61,12.31-.61,1,0,1.87.05,2.72.11l-3.11-8.48Zm36.37,9.85a7.33,7.33,0,0,1,.58,1.35,7,7,0,0,0-.58-1.34,1.09,1.09,0,0,0-.8-.57A1.1,1.1,0,0,1,358.39,229.39Z"/>
<path class="cls-2" d="M328.06,245.54c-1.21,3.43-8.17,2.43-11.5,2.43-.62,0-.62.14-1.5.14a7.3,7.3,0,0,1,.41.8c-.21-.38-.66-.63-.66-1.06,0-.63,1.26-.87,1.63-1a54.24,54.24,0,0,1,11.37-2.35c-2.91-12.74-5.79-25.25-5.79-25l-14.08,17h2.47c1.51,1,3.4,2.25,3.4,4.13a1.35,1.35,0,0,1-1.27,1.52c-1.5,0-3-1.63-3.51-2.14-.51,2-1.63,8-3.39,8h0c-1.26-1-1.26-1.89-1.76-3.9-1.26.38-1,.88-2.51.88a6.87,6.87,0,0,1,.29-1l-9,10.91,35.11,13.29a3.2,3.2,0,0,1,.14-1.24,9.8,9.8,0,0,0,.49,1.48l3.61,1.37a6.51,6.51,0,0,0,.69-1.71c0-1-.89-1.39-1.14-2.4l.63-.61c.18.16.36.58.58.82-.6-2.65-1.41-6.2-2.32-10.19C329.67,252.6,328.86,249.08,328.06,245.54Zm-11.74,5.58h0l-2,1C315.12,251.73,315.79,251.37,316.32,251.12Zm-11.56,2.77c1.13,0,1.25-.76,1.76-1.27,1.12-1.12,3-1,4.77-1s2.38.88,3,.51c-2.9,1.44-7.1,3.38-9.67,3.38-1.25,0-1.76-1.9-1.76-3.15C303.25,253,304,253.89,304.76,253.89Z"/>
<path class="cls-2" d="M329.26,271.23v1.37c0,.28.26.77.5.77s1.43-1.92,2.21-3.44l-3.61-1.37A10.75,10.75,0,0,1,329.26,271.23Z"/>
<path class="cls-2" d="M292.62,255,322,287l.44-.24-.34-.24c.75-.76.63-1.14,2.14-1.63,1-.26,1.65-1.24,3.13-1.52.7-.13,1.1-.88,1.48-1.38l-1.48-.87v-1c1.13,0,1.7.12,1.95-1.27a2,2,0,0,1-1.72-1.08,1.68,1.68,0,0,0,1.66-1.55V275h-.87c-.76-.74,0-.62,0-1.87s-.64-3.54-.64-4.41c0,0,0-.17,0-.39Z"/>
<path class="cls-2" d="M270.29,296.84l-3.46,6.49c1.07.26,1.79,1.19,3,1.19.76,0,1.13-1,1.89-1,2.51,0,5.53,4.27,9.05,2.52-1.51-1-.38-2.13-.26-4-.75.37-.5.37-1.75,0,2.13-.75,4.78-.5,6.78-1,0,.39.5,1,.88,1,1,0,1.38-1,3.14-1,3,0,4.4,2.9,6.66,2.9,1.13,0,1.64-1.65,2.77-1.65,4,0,4.31,3.95,4.93,7.66l8.51,0c-.6-3.14-3.39-4.55-3.39-8.25,0-8.91,7.16-11.41,13-14.6l-29.38-32Z"/>
<path class="cls-2" d="M294,235.67c1,0,3.77.63,5.65,0v-1.51c-2.64,0-4.15-1.63-7.16-1.63-1.38,0-1.89,1.25-3.52,1.25a2.33,2.33,0,0,1-.57-.09l.79,3.94A9.58,9.58,0,0,1,294,235.67Z"/>
<path class="cls-2" d="m302.75 240.44c0-1.51-4.65-3.77-5.66-3.77-2.07 0 0 3.05-4.54 3.32-1.4 0.09-1.36 3.9-1.36 5.48v2.39l1.43 7.17 9-10.91a10.38 10.38 0 0 0 1.13 -3.68z"/>
<path class="cls-2" d="M288.79,225.49a4.35,4.35,0,0,0,.14-1.76h1c.75,0,6,4.27,6.28,4.77.76,1.51,0,2.77,1,3.77,2.88,2.89,6.78,2.26,9.92,4.28h.8l14.08-17s-27.49-23.73-39.15-34.08c-1.11-.45-2.24-.88-3.38-1.32a9.74,9.74,0,0,1-1.2-.63l7.87,39.27C287.46,223.12,288.33,225,288.79,225.49Z"/>
<path class="cls-2" d="M291.19,247.86v1.63c0,1.37-.46,4.19-1.7,5.09l3.13.45Z"/>
<path class="cls-2" d="M240,247.51l46.73,6.68a2.4,2.4,0,0,1-1-1.82c0-3.26,1-9.67,3.14-12.44-1.25,0-1.75,1-3,1.77.14-1.3,1.54-2.85,3.24-4.07l-.79-3.94a2,2,0,0,1-1.57-1.42h-2.51c.51-1,1.38-1.38,1.38-3.14-1.88.38-4.14,2.76-5.52,2.76-1.14,0-1.26,1.63-3.4,1.63-1,0-1.38-.12-1.89-1.25a8.23,8.23,0,0,0-2.25.89H270.7c2.89-3.65,6.41-4.91,9.8-7.17-4.64,0-7.91,0-10.42-2.51h-6.29c-1.27-.69-1.5-1.45-2.3-2.35.8.9,1,1.66,2.3,2.35h6.29c2.51,2.51,5.78,2.51,10.43,2.51,1.62-.5,1.88,0,3.26-.63s.76-2.65,2-2.65a1.51,1.51,0,0,1,.38.07l-7.87-39.27c-.48-.28-1-.6-1.61-.9Zm20.62-27.18h0v1.5h0Z"/>
<path class="cls-2" d="M292.62,255l-3.13-.45a1.38,1.38,0,0,1-.83.32,3.14,3.14,0,0,1-1.9-.71L240,247.51l18.29,49.33,3.22,8.69a6.51,6.51,0,0,1,4.76-2.26,2.26,2.26,0,0,1,.53.06l3.46-6.49Z"/>
<path class="cls-2" d="M249.46,273.58l-44.16,14,23.79,9.22,29.63,11.49a1.51,1.51,0,0,0,.67-.41c.63-.62,1.3-1.52,2.13-2.36l-3.29-8.72Z"/>
<polygon class="cls-2" points="249.46 273.58 240.03 247.51 205.3 287.62"/>
<polygon class="cls-2" points="240.03 247.51 191.41 213.82 205.3 287.62"/>
<path class="cls-2" d="M191.4,213.82,240,247.51l36.65-64.9a10.51,10.51,0,0,0-1.75-.77l-27,10.63Z"/>
<path class="cls-2" d="M197.36,247.11,167.9,282.68c.07.62.19,1.16.76,1.37,4.48,1.73,10.8,4.34,12.76,8.05l23.88-4.48Z"/>
<path class="cls-2" d="M197.36,247.11l-6-33.29-53-9.4a1.53,1.53,0,0,0,.71,1.09s3.27,2,3.39,2.38a23.57,23.57,0,0,0,1.31,4l3.42,2.26c.23,0,.43.07.68.07a1.81,1.81,0,0,0,.23.53l1.44.95c1.57.48,3.7.51,4.35,2.66a1,1,0,0,0,.22.34l1.15.76c1.12.49,2.63.88,3.41,1.66a6.9,6.9,0,0,0,1.39.77h0a4.65,4.65,0,0,0,.91,1.33Z"/>
<path class="cls-2" d="M171.56,277.59l25.8-30.48L161,223.18a2.24,2.24,0,0,1,.72,1.55c0,1.13-1.13,2.64-1.76,3.4a4,4,0,0,0-3.64-2.14c-.5,0-1.89.12-1.89.88,0,2.75,3.14,3.89,3.14,6.65,0,3.9-3.3,11-2.14,14.08a6.81,6.81,0,0,1,.35,1.27Z"/>
<path class="cls-2" d="m147.25 214.11l-3.42-2.26a4 4 0 0 0 3.42 2.26z"/>
<path class="cls-2" d="m149.6 215.66l-1.44-0.95a2.46 2.46 0 0 0 1.44 0.95z"/>
<path class="cls-2" d="m155.32 219.42l-1.15-0.76a2.92 2.92 0 0 0 1.15 0.76z"/>
<path class="cls-2" d="M155.81,248.87c.57,3-.29,6.88.92,9.29-.76.49-1.89,1.3-1.27,2.39,2.16,3.72,4.91,9.3,7.55,9.67-.63,5.15,2.89,6.66,4.65,11.06a4.1,4.1,0,0,1,.19,1l3.71-4.64Z"/>
<path class="cls-2" d="M322,219.54l1.66-30.07c-2.31,2.52-6.79,5.61-8.62,6,4.37,2.22,2.64,9.06,4.4,11.19-.51.76-2.14,1.64-2.27,3-1.5,0-2.59,2.46-3.77,1.51-3.11-2.49-7.53-6.41-7.53-10.06,0-4,.74-7.16-2.77-9.41H295a52.28,52.28,0,0,0-11.61-6.05Z"/>
<path class="cls-2" d="M320.3,161.12l-.22.15c-1.58,1,2.29,3.78,2.52,5.66.45,3.72-3.12,4.65-4.75,5.29,2,3.47,4.83,5.31,6.28,9l1.24-22.46Z"/>
<path class="cls-2" d="M248,192.47,218.2,171.41,200,158.48c.38.8-8.56,55.34-8.56,55.34Z"/>
<path class="cls-2" d="M218.2,171.41,248,192.47l27-10.63a3.87,3.87,0,0,0-1.09-.21c-1.89,0-2.76,1.89-4.65,1.89a17.5,17.5,0,0,0-.7-4.24Z"/>
<path class="cls-2" d="M322,219.54l53.59-12.34-50.24-48.42-1.24,22.46a15.54,15.54,0,0,1,1,5.8,4.6,4.6,0,0,1-1.43,2.43Z"/>
<path class="cls-2" d="m375.61 207.2l14.86 4.8c3.14-1.74 10.92-2.6 10.92-6.12v-0.16z"/>
<path class="cls-2" d="M375.61,207.2l25.77-1.55c-.06-2.72-1-4-2.13-5.8-1,0,.45-1.23-1-1.88v-1.52c-2.88,1.64-8.91,3.77-11.93,3.77a1.93,1.93,0,0,1-1.26-.49c2.52-1.39,9.5-2.34,10.25-4.73.13-.63-.94-.81-1.07-1.43-2.94.36-9.06-.95-9.39-4.94Z"/>
<path class="cls-2" d="m325.37 158.78l50.24 48.42 9.23-18.57v-0.34-0.38c-2.76 0-4.4-1.76-6-3 0.63-0.36 1.89-0.75 1.89-2.26 0-1.25-1.13-2.26-0.89-3.51-1.13-0.38-5.21-3-4.14-5.28 1.31-2.85-4-3.52-4.4-6.91-0.38 0-1.63-1.13-2.13-1.64-0.89 0.64-2.89 1.76-2.89 3.52s-4 6.53-7.17 6.53c-2.25 0-2.63-2.75-4.15-2.75-2.14 0-3-6.17-3.38-8.8-0.34-2.34-3.44-2-5.49-2.9z"/>
<path class="cls-2" d="M17.25,194.17a7.37,7.37,0,0,1,1,.61l.85-.58Z"/>
<path class="cls-2" d="M17.25,164.19h0v5.89a2.44,2.44,0,0,0,.87.24c.5,0,1.51-2.13,2.51-2.13s1,1.5,1,1.88v2.52c0,1,.5,3.13,1.25,3.13.51,0,1.13-1,1.9-1h1.5a5.34,5.34,0,0,1,.11-1.9,18.85,18.85,0,0,0,6,3.53,10.22,10.22,0,0,1,.88-2.27c1.26.38,1.88,1,3.4,1a4.78,4.78,0,0,0,1-.12L17.25,164.09Z"/>
<path class="cls-2" d="M37.35,181c-3,2-7.93,4.15-10,6.91-1.51,1.88-3.9.62-6,1.88-1.37.76-2.5,3.26-4,4.14v.24h0l1.81,0a11.06,11.06,0,0,1,4.46-2.14c3.64-.5,8.17-1.89,10.05-3.77s6.29-3.27,8.18-5.66c1-1.25,1.5-2.51,3.14-3.13q.38-.17.75-.3l-5-2.67C39.74,178.16,39,179.9,37.35,181Z"/>
<path class="cls-2" d="M109.6,172.22a5.22,5.22,0,0,1-3.12-1.41,5.21,5.21,0,0,0,3.12,1.4,1.39,1.39,0,0,0,.63-.15l-9.63-14.79-4.19,6.25v1.77h0v-1.77l-2.94,4.38c3.72,2,7.9,2,11.1,4.32,1.51,1.12,3.27,4.76,5.91,4.76.88,0,1.37-1,1.74-1.88l-2-3A1.4,1.4,0,0,1,109.6,172.22Z"/>
<path class="cls-2" d="M100.6,157.27l9.63,14.79c.82-.39,1.17-1.52,1.84-2.29-.67.77-1,1.9-1.84,2.29l2,3c0-.12.1-.25.14-.37a4.86,4.86,0,0,0,3.78,1.86c.49-.87,1.63.27,2.26.89-.38.63-1.26,1.13-1.26,2.64,0,.76,1.38,1.89,1.88,1.89,1.64,0,1-1.51,3.4-1.64V182c0,1-1.89,1.12-1.89,2.13,0,.76.51,1.89,2.26,1.89,2.26,0,3.77,0,3.77,1.88v1.88c0,1.39,3.15,3.78,5.29,3.78.63,0,.63-.13,1.25-.13,0-.88,1.76-1.13,1.76-2.51,0-2.41-1.78-3.15-3-4.12,1.18,1,3,1.71,3,4.12,0,1.38-1.75,1.63-1.75,2.51,0,.63.74,1,.74,1.75,0,1.65-.5,5,1.26,5.54,1,.25,2,.25,2.76,1s.38,1.8.55,2.69l53,9.4Zm14.9,11.17h0c2.59,2.59,4.3,4.07,6.17,6.32C119.8,172.51,118.09,171,115.5,168.44Zm13.07,16.71a11.71,11.71,0,0,1-2.51-4.78c-.33-1-1.15-1.33-1.51-1.74.36.41,1.18.73,1.51,1.74a11.74,11.74,0,0,0,2.52,4.78,1.68,1.68,0,0,0,.57.36A1.83,1.83,0,0,1,128.57,185.15Zm1.27.57a4,4,0,0,1,1.36.5A4.27,4.27,0,0,0,129.84,185.72Z"/>
<path class="cls-2" d="m200 158.48l-99.36-1.21 90.8 56.55s8.9-54.54 8.56-55.34z"/>
<path class="cls-2" d="M96.41,157.62l-79.16,6.47L37.7,175a22.7,22.7,0,0,0,3.66-1.5h1.89a7.52,7.52,0,0,0-2.62,3.06l5,2.67c2.59-1,4.89-2.1,4.89-4.73v-1.88c0-4.15,8.3-11.07,11.32-11.07h1.51c0,.38-.13.89-.13,1.25-3.64,1.14-5.53,3.28-5.53,6,0,.63-.49.63.13,1.51-.25.12-1,.25-1,1,0,.51.76.9,1.26.9,2.9,0,10.93-4.55,12.57-7a3.69,3.69,0,0,1-1.26-1.77c1.13-.64,3.64-1.26,5.16-1.89,2.13,4.41,7.66,4.9,11.8,6.29h6.92l.2.09,2.94-4.38Z"/>
<polygon class="cls-2" points="96.41 157.62 96.41 163.52 100.6 157.27"/>
<path class="cls-2" d="M17.25,164.09l79.16-6.47V155L17.72,111.81l-.47.45v16.17c2.66,1.14,4.62,1.91,5.64,5.2-1.5.38-1.76,0-3.52,0-.77,0-1.49.09-2.12.13v10.12a7.85,7.85,0,0,0,.87.05c2.63,0,3.39-2.14,5.4-2.14a9,9,0,0,1,1.89,0v1.89c-.88-.5-.62-.63-1.89.12.13.38,2.14,2.14,2.14,3,0,1.34-5.71,3.85-8.41,4.72v12.55Z"/>
<polygon class="cls-2" points="100.6 157.27 96.41 154.97 96.41 157.62"/>
<path class="cls-2" d="M200,158.48l18.24,12.93v0l38-50.12a1.24,1.24,0,0,0-.87-1.68Z"/>
<path class="cls-2" d="M100.6,157.27l-2.4-46a.92.92,0,0,1-.29-.44c-.87.51-.25.26-1.5,0V155Z"/>
<path class="cls-2" d="M96.41,111c-3.14-1-4.27-2.52-7.92-2.52-2.26,0-3.65.88-5.91.88-3.9,0-11.68-.63-14.19-3.14H58.71a29.52,29.52,0,0,1-3.78-2.51H48.66c-1.14-.38-1.52-.75-2.9-1.26a3.23,3.23,0,0,1-3.14,1.63,9.92,9.92,0,0,1,1.13-1.63c-1.63-.5-2.25-1.89-3.89-1.89-2.14,0-3.4,2.77-5.41,3.52-1.76.63-2.89-.24-4.65.25a32,32,0,0,0-12.08,7.47L96.41,155Z"/>
<path class="cls-2" d="M100.6,157.27,200,158.48,163.62,138,118.1,112c-.22.49-.42,1-.84,1-8.17.3-2.51,3.27-3.64,3.27a27.63,27.63,0,0,1-14-3.77,10.64,10.64,0,0,1-1.47-1.19Z"/>
<path class="cls-2" d="M163.65,137.84l4.24-26.37a14.83,14.83,0,0,0-5.76-1.22c-2.39,0-3.4,1.64-5.4,1.64-1.39,0-2.78-2.39-3-3.4-2.39.51-2.39,3.27-4.9,3.27s-5.78-5.65-6.54-5.65c-2.51,0-1.63,3.63-4.27,3.63a2.55,2.55,0,0,1-2.27-1.74,47.81,47.81,0,0,0-8.78,2.5c-1.39.26-4.68,2.66-5.78,1.64-2.15-2-2.65-1-3.07-.12l45.52,26Z"/>
<path class="cls-2" d="M163.62,138,200,158.48l55.33-38.89a14.89,14.89,0,0,0-4.94-1l-.28,0-1.25.28c-1.14.54-1.62,1.79-1.62,3.73-2.13-.27-3.52,0-10.68,0a29.84,29.84,0,0,1-3.37-.2Z"/>
<path class="cls-2" d="m248.82 118.85l1.25-0.28a3.54 3.54 0 0 0 -1.25 0.28z"/>
<path class="cls-2" d="M163.62,138l69.53-15.64c-5.83-.66-11.6-3-13-7.34-2.25.61-9.8.74-9.8,3.51,0,.87.59,1.36,1.6,1.36a15.46,15.46,0,0,0,6.82-2c.51,4.14-5.91.75-5.91,5,0,.87,1.39,3.76.76,3.76-2.51,0-3-3.14-5.15-4.13l-1.89-.9h-8c-2.52,0-4.14,1-6.91,1.14-5,.23-5-1.59-5-2,0-1.12,3.85-.66,4.6-1.42-3.5-4.86-2.87-4.07-10.05-3.51-5.43.42-8.93-2.61-13.24-4.4l-4.34,26.33Z"/>
<path class="cls-2" d="M218.21,171.39v0l50.29,7.87c-.82-2.88-2.29-5.81-4.07-5.81-1.26,0-1.89,1-3.14,1.25.5-1.51,0-2,0-5.66a20,20,0,0,1,.13-2.26l-23.86-20.36Z"/>
<path class="cls-2" d="M237.55,146.44l23.86,20.36a13.5,13.5,0,0,1,4.26-8.67c1-1,3-5.63,4.07-6.23l-8.83-31.81c-1.57.73-3,1.78-3,4.36-3.14.85-2-1.36-1.73-3.06Z"/>
<path class="cls-2" d="M269.82,151.85c2.13-.75,5.9.51,5.9-2.52,0-1.89-4.81-2-6.56-3,1.13.39-2.67-2.19,7.54,1,2.64.81,1-2.68,2.54-2.68H282c3,0,4.65-3.14,6.66-4.65V138c-4.27-1-8.54-.37-10.43-4.14h2.27c1.62,1,3.26,2.88,5.65,2.88,2,0,5.66-2.63,5.66-4.15,0-.49-1.89-2.75-.89-2.75,2.25,0,3.34,1.65,4.62,2.27L303.28,111a7.48,7.48,0,0,0-2.67-.42c-1.13-.12-2-.88-3.14-.88-1.51,0-3.14,1-3.14,2.53s1.88,2.25,1.88,3.38-2.89,1.26-3.52,2.51c-1,2.15-.66,3.82-2.48,6.15-2.83,3.6-6.56-2.25-6.56-3.63,0-1.63,2.13-1.26,2.13-3.13,0-.89-3.65-4.41-4.65-4.41-3.65,0-1.13,5.41-5,5.41,0-2.14-.25-3.65-2.89-4.9a4.48,4.48,0,0,1,1.25-1.51c-2-1.26-4.77,0-6.29-1.89.88-.51,3.15-1.38,3.15-3a1.9,1.9,0,0,0-.09-.44l-8.69,8c-.29,1-.65,2.09-.65,2.09.89-.5,1.64-.75,2.65-1.26.95,3-1.46,3.41-3.64,4.44l8.83,31.81Z"/>
<path class="cls-2" d="m267.55 103.08c-0.12-3.91-2.88-6.41-7.78-6.53-2.4-0.06-1.39 1.51-1.26 2.77-1.51 0.38-3.52 0-3.52 1.88 0 1.26 1 1.88 1 3.14s-1.63 1.14-1.63 2.9c0 4.15 8.54 1.63 8.54 5.9a9.33 9.33 0 0 1 -0.36 1.68l8.69-8c-0.44-1.94-3.62-2.01-3.68-3.74z"/>
<path class="cls-2" d="M325.37,158.78l-.21-6.13a9.13,9.13,0,0,0-1.69-.17c-1.88,0-3.76.88-3.76,3.13,0,1.24,4.24,3,.59,5.51Z"/>
<path class="cls-2" d="M296.46,132.37c1.13,0,1.89-1,4.15-1-.63-.75,0-3,1.51-.62.82,1.26,7.29-4.27,7.29-5.91,0-1.13-2.89-2.38-2.89-3.15s-1.7-2.87,2.26-4.77c.5-1.13,0-1,0-3.13-3.11,0-3.23-1.89-5.5-2.74l-7.73,21.09A2.06,2.06,0,0,0,296.46,132.37Z"/>
<path class="cls-2" d="M325.37,158.78,346,160.89a2.73,2.73,0,0,1-1.81-2.76c-3.52-.5-4.27-4.77-7.79-4.77-1.63,0-1.63,1.25-3.51,1.25h-.05Z"/>
<path class="cls-2" d="m325.37 158.78l7.49-4.17c-3 0-5.08-1.46-7.7-2z"/>
<path class="cls-2" d="M17.25,195.42l.62-.4-.62-.45Z"/>
<path class="cls-2" d="M274.35,345.37c0,.06,0,.14-.07.22,2,6.36,4.22,13.11,6.4,19.85l.18.12-6.5-20.23Z"/>
<path class="cls-2" d="M311.36,428.52l-.11.15,43.89,26.39Z"/>
<path class="cls-2" d="M474.65,447.54a.25.25,0,0,1,0-.07l-10.88,2.78Z"/>
<path class="cls-2" d="M378.88,565.36l-11.83-5L342,549.88a.19.19,0,0,1,0,.07l36.91,15.57Z"/>
<path class="cls-2" d="M465.92,458.58l.05-.05-2.16-8.28Z"/>
<path class="cls-2" d="M344.09,631.77h2.38c0,2.25,2.77,2.25,4.66,2.87s1,4,3.9,4h3.51c.38,0,.88-.51,1.25-.51h1.39c1.13,0,4.27-2.38,6.16-2.38.75,0,1.5.37,2-.37-3.39-1.64-6.78-2.78-9.55-5.55-1.31-1.31-1.49-5.31-2.69-7.48l-14.33,8C342.91,631,343.2,631.77,344.09,631.77Z"/>
<path class="cls-2" d="M356,621.19c-.76-.12-1.89-1.62-1.89-2.89a7.37,7.37,0,0,1,2.14-5.64c1.13-1.14,3.14-.38,4-2.14s.37-3.27,1.38-4.28c1.76-1.75,4.9-2.13,4.9-5.63,0-3.91-5.65-2.16-5.65-7.06a4.8,4.8,0,0,1,3.76-4.4c.89-.12,3.15-.24,3.4-1.63.75-3.14.75-5.41,3-7.66a1.73,1.73,0,0,1-1.37-1.89c1.25,0,1.76,1.13,3.26,1.13a2.21,2.21,0,0,0,1.26-1.63c0-.62-.63-.76-1.13-1.25-.38.1-1.14.87-1.77.87-1.12,0-2.63-3.26-2.63-5a1.39,1.39,0,0,1,1.26-1.5c2.51,0,3,1.75,5.65,1.75.88,0,2.89-.88,2.89-1.5v-1.26c.48-1,.33-2.54.36-4L342,550a6.23,6.23,0,0,1-.53,1.37c-1.12,1.76-2.88,4.66-2.88,7.55,0,.89.12,4.41.63,4.41a2.08,2.08,0,0,1,.75,1.37c0,.38-.38.75-1.26.75-.37,2.26-1.25,3.27-1.25,5.66,0,1.38.75,4.27,1.76,4.27s1-1,1.88-1.39a3.89,3.89,0,0,1,1.13,0v1.9l-4.14,18.6c-1.89,0-1-2.27-3.27-2.27a1.27,1.27,0,0,0-1.13,1.38h-.13v1.27c.25,1.37,1.76,3.4,1.76,4.39,0,2-2.89,2.9-2.89,5.15s1.88,6.54,1.88,9.3v1.75c0,2.65,3.4,2.15,3.4,5.18a4.65,4.65,0,0,1-.88,2.12,4.6,4.6,0,0,0,1,.63c-.12,1.13-2.38,1-2.38,2.13,0,.25.75.88,1.13,1.27,1.63,1.63,2.64,3.38,6.16,3.38,0,.07,0,.16.06.24l14.33-8A3,3,0,0,0,356,621.19Z"/>
<path class="cls-2" d="M445.45,497.46c.92,0,1.88,0,2.94,0a7.21,7.21,0,0,0,5.52-3.28c.26-.5.14-2,.64-2.76,1.88-2.51,2.51-3.77,4.4-6.67a17.52,17.52,0,0,0,.63-4.26c0-1,1.13-2.27,1.63-2.9.12-.37.62-.87.62-1.5,0-1.63.86-3.74.86-6,0-3-1.85-7.08,0-9,1-1,2.15-1.39,3.21-2.52l-2.11-8.33Z"/>
<path class="cls-3" d="M378.88,565.36a4.23,4.23,0,0,1,.89-3c1.14-1.15,5.29.23,7.3-.37,3-1,5.65-.4,7.79-2.53a20.74,20.74,0,0,0,3.27-3.83c.63-1,.62-1.81.62-3.34,0-1.37-2-1.37-2.38-2.77s-.51-2.88-1.51-3.89a13,13,0,0,1-1.9-1.3l-25.91,16Z"/>
<path class="cls-2" d="m398.87 544.42c0.89 0 3.69 1.37 5.7 1.37 5.78 0 6.75-6.27 9.26-10 2.14-3.26 4.65-3.64 6.91-7a8.82 8.82 0 0 0 0.92 -2l-26.66 16.35c1.3 0.43 2.55 1.28 3.87 1.28z"/>
<path class="cls-2" d="M466,458.53a6.32,6.32,0,0,0,.64-.82c.76-1.13,1.3-1.44,2.06-2.57.27-.41.55-.8.84-1.18l-5.7-3.71Z"/>
<path class="cls-2" d="m469.51 454c1.69-2.23 3.63-4.06 5.14-6.42l-10.84 2.71z"/>
<path class="cls-2" d="m427.53 518.66v-5.9a14.78 14.78 0 0 1 0.21 -3.76l-72.6-53.94-8.82 22.94a10.76 10.76 0 0 1 3.68 5 95.67 95.67 0 0 1 1 10c0 2-1.13 5.4-1.13 7.17v5.52a38.74 38.74 0 0 0 -0.88 4.4v1.13c0 4.27-2.89 7.42-2.89 12.19 0 2-1.38 3.77-0.63 6l0.09 6.95 81.44-17.36c0.15-0.12 0.33-0.24 0.53-0.34z"/>
<path class="cls-2" d="M393,544.37a1.25,1.25,0,0,1-.36-.82c0-.39.62-.64,1-.64a4.51,4.51,0,0,1,1.36.23l26.7-16.44a12.05,12.05,0,0,1,.84-2.13v.13c1.16-2.45,2.32-4.43,4.47-5.71l-81.41,17.43,0,2.46c-.76,3-.76,5.15-1.64,8-.12.51-.76.39-1.13.88a8.11,8.11,0,0,0-.84,2.07l25.06,10.45Z"/>
<path class="cls-2" d="M355.14,455.06,427.74,509a4.31,4.31,0,0,1,1.18-2c1-1,2.62-1,3.64-2.65,2.25-3.5,5.4-1.75,8.42-4.76.37-.37.5-1,1.26-1.4a8.65,8.65,0,0,1,3.21-.7l18.36-47.21Z"/>
<path class="cls-2" d="m330.92 469.65a14 14 0 0 0 5 2.76 7.82 7.82 0 0 1 4 2.52c1.39 1.38 2.77 1.13 4.65 2a12.06 12.06 0 0 1 1.73 1.07l8.82-22.95z"/>
<path class="cls-2" d="M474.69,447.47a16.32,16.32,0,0,0,2.47-9.23c0-2.64-.62-5.27-3.14-6.05-1.76-.49-2.88.26-4.65-.24a9.22,9.22,0,0,1-2.45-1.43l-3.11,19.73Z"/>
<path class="cls-2" d="M186.52,305c2.21,1.41,4.27,4.1,6.13,6.75,1.1,1.57-1.87,1.11-2.5,1.11,1.26,1.89,4,1.51,5.78,3.27,1.26,1.26,2.27,2.64,3.64,4v3.27c.38.62.52.62,1.27,1.13,1.37.87,2.59,3.86,4.85,3.86a9.39,9.39,0,0,0,2.05,2.68c.38,0,.88-1.26.88-1.9,0-1-1.5-3.13-2.52-2.12-2.25-1.52-3-4.78-4-7.8-.88-2.64-3.39-4-4.27-6.91-.63-2.13-.89-3.39-2.64-5.15-1.25-1.26-2.9-1.27-3.78-3.15-.51-1.07-1.07-2-1.51-3l-5.09-.63C185.17,302.05,185.39,304.24,186.52,305Z"/>
<path class="cls-4" d="M252.23,334.82c-.25-.51-1.26-1.52-1-2.52v-7c.37-1.89,1.25-2.77,1.25-5a5.94,5.94,0,0,0-.5-2l-.08-.3.33,0c0-.37-.63-.88-.63-1.24,0-3.3,1.24-6.3,3.39-7.67l-13.77-1.71c.12.21.23.42.34.64-.11-.22-.22-.43-.34-.64l-10-1.23a1.69,1.69,0,0,1-1,.3,1.69,1.69,0,0,0,1-.3l-34.77-4.3a2.86,2.86,0,0,0,.62,1.08c1.14,1.12.76,3.26,1.88,4.4,1.39,1.37,2.64,2.76,4.28,4.39.38-.37.25-.25,1.38,0,0,3,3.9,3.27,5,5.53.64,1.39-.24,2.64.76,3.64,1.26,1.25,3.27,1.76,4.53,3,2.76,2.76,7,6.41,8.54,10.94.25.87,1.26,1.25,1.26,2.89,0,1.37-1.26,2.13-1.26,3.52,0,1.13.76,2.51,1.89,2.51.37,1.63,4.27,2.5,5.78,4a4.44,4.44,0,0,0,1.38.88c1.64.75,2.52.5,4.15,1.25s2.13,2.39,3.89,2.89c1.38.38,2.26-.37,3.65.25.45.23,1.3.77,2.26,1.36,2-5.55,4.07-11.34,6.06-16.85C252.21,336.57,252.69,335.85,252.23,334.82Z"/>
<path class="cls-3" d="M311.25,428.67a7,7,0,0,0-1.09,3.42c0,2.26,1.76,4.77,3.14,6.15.5.5,1.51.24,1.89,1s.63,2.63,1.51,3.52c.38.36,1.25.13,1.63.88a44.47,44.47,0,0,1,2.76,6.9c.88,2.76,3.39,5,4.4,8.06.51,1.75,2.38,2.76,2.38,4.76,0,1.51-.49,2.9.51,3.89s1.68,1.68,2.54,2.4l24.22-14.59Z"/>
<path class="cls-2" d="M272.59,347.38c-.51,0-1-.77-2.39-.77-2.51,0-4.53,1.78-6.91,1.78-1,0-1-1.13-2.13-1.51-3.28-1-3.28-3.14-5.53-5.4a19.82,19.82,0,0,1-3-3.67c0-.09-.06-.18-.09-.27-2,5.51-4.07,11.3-6.06,16.85,1.72,1.05,3.81,2.28,4.78,2.28a5.69,5.69,0,0,1,2.88.26c.5.25,1.52,1.14,2.51,1.14,2.14,0,2.52-2.52,4.78-2.52a5.05,5.05,0,0,1,2.77,1h.76c3.39,1.63,3.88,4.52,7.78,6.42,2.52,1.25,4.28.62,6.66,1.75.45.21.88.47,1.31.72-2.18-6.74-4.36-13.49-6.4-19.85C274.06,346.22,273.47,347.38,272.59,347.38Z"/>
<path class="cls-2" d="M305,314c1,2,2.26,2.63,3.77,4.65.74,1.12.63,3.13,2.51,3.13,2.13,0,2.76-2.38,2.76-5,0-2.28-1.12-3.54-1.51-5v-.62a6.2,6.2,0,0,0-.12-1.18l-8.51,0A14.48,14.48,0,0,0,305,314Z"/>
<path class="cls-2" d="M396,391.67a3.4,3.4,0,0,1-1.73-2.2c-.63,0-1.63-.26-1.89-.76-1.5-3.13-2.63-2.75-5-5.14H383.8c-.3-1-.3-2.05-.59-2.86l-69,32.66c-.24,3.69-2.68,3.61-2.68,6.14,0,1.75.25,4.26,2,4.26.89,0,.76-.62,1.88.13-.49,2-2.76,2.52-3.89,4.4a2.13,2.13,0,0,0-.18.22l43.78,26.54Z"/>
<path class="cls-2" d="M382,379.56c-1.88-.64-4.53-1-5.4-2.78v-1a2,2,0,0,0,1.88-.25,28.3,28.3,0,0,0-3.52-.39c-.38.26-3,.26-3.14.64-.76,1.52-2,1.52-3.89,1.77-1,0-2.52-.25-2.52-1.39h-6.79a2.18,2.18,0,0,1-1.51-2.25c-1.88-.39-4.71-1.09-5.21-3.12l-2.2,0c0,1.51,1.88.88,2.39,2.38h-3c-1.14.77-3.14.52-3.14,2.39,0,1.52,1.51,2.4,1.51,3.91,0,.5-.7,2-1.2,2-1.38,0-2.08-2.43-2.08-3.81a43.31,43.31,0,0,1,1.14-5.14A1.42,1.42,0,0,0,346.6,371c0-.12-.5-1.51-1.13-1.51-1.63,0-2,1.87-3.64,2.38-3.15,1-5.16,1.52-8.17,2.51-1.64.51-2.77.88-3.39,2.9-.26,1-.38,2.64-1.14,3.15s-2,.87-2,2.12c-.25,0-.75.39-.75.63v.75c-.88.26-.5.26-1.51,0a3.51,3.51,0,0,1-.92.86,10.2,10.2,0,0,0,.83-1c-2-1.51-3.56-4-7.07-4-3,0-4.65,2.51-7.92,2.51-2.14,0-2.14-2.38-3.52-3-2-1-4.65-2.12-4.65-4.9v-7.66c.76-1.26.88-4.39.88-5.53v-1.89c-2.25-.48-3-2.64-6-2.64-4.4,0-7.8.75-11.93.75a1.42,1.42,0,0,1-1.52-1.36v-.64c.76-.75,2.27-1.26,2.27-2.51v-6h1v.88c.76-1.26,1.51-2.14,1.51-4.15,0-2.38,2.14-4.65,2.14-6.4v-1.14a18.53,18.53,0,0,1-2.89-.25,6.17,6.17,0,0,0-2.51-.38c-3.4,0-7.54,1.26-7.54,4.89,0,1.88-2.11,3.5-2.63,5l6.5,20.23a6.84,6.84,0,0,0,3.79,1.3c.88,0,1.51-.63,2.39-.63h.75c.76,3,2.89,4.14,4.9,6.16a4.13,4.13,0,0,1,1.63,2.14c.63,1.88-.63,3.64,1.26,4.9h1.26a.94.94,0,0,1,0-1.13c.12,0,4.39,2.63,4.77,3.38.51,1,.51,2.26,2.27,2.65,0,.25.38.74.62.74.88,0,2.89-.74,3.78.14s2.26,3.39,4.26,3.39c1,0,1.64-.63,1.9-1.9-.26-.12-1-.62-1-1.12,0-.75,3.53-3.27,4.41-3.27,1.38,0,1.76,1.63,3.13,2.27-.25.49-.75.75-.75,1.25s1.16.73,1.42,1c.05,0,.16,0,.3-.13a1.88,1.88,0,0,0-.2.79c0,2.25,2.26,1.88,2.26,4.53,0,1.25-.64,1.74-.64,3.25,0,1,.76,1.78.76,2.77v.63l-.51,1c0,.38.64,1,1.26,1.27-.75,3.39-4,2.51-5.4,5.27-1,2-1.89,5.4-5.28,5.4a12.19,12.19,0,0,1,0,1.78l69-32.66A1.71,1.71,0,0,0,382,379.56Z"/>
<path class="cls-2" d="M463.81,450.25l-17.38-27.69c-.14,0-.27,0-.42,0-1.14,0-1.64.88-2.77,1.38h-.89a9,9,0,0,0-.24-3.13c-.25-1-1.39-.76-2.39-1.39-1.63-1-6.16-3.39-8.41-3.39-2,0-3.53,2.63-4.78,4.66-.39.61-.89,1.5-1.39,1.5s-.62-1-.62-1.38h-3a3.91,3.91,0,0,0-2.14-2.9c-.63-.25-1.76-.11-1.76-1.38,0-3.77,3.65-5,5.65-7.54,0-1.26-1.62-1.26-2.25-2.51s-2.27-5.41-2.27-6.9c-2.14-.52-4.77-4.66-6.79-4.66h-.74v-.25c-1.27,0-3.28-1-4.15-1.38h-3.27c-2.41-.46-5.76-.4-7.82-1.58l-40.82,63.39Z"/>
<path class="cls-2" d="M466.92,430.52a20.34,20.34,0,0,1-4.58-4.59,28.81,28.81,0,0,0-5.91-2l-4.77.65c-2.37,0-3-1.78-5.23-2l17.38,27.69Z"/>
<path class="cls-2" d="M232.3,304.66a3.72,3.72,0,0,1-1.09,1.46l10,1.23c-1.36-2.49-3.17-4.45-6.59-4.45h0c3.41,0,5.22,2,6.58,4.45L255,309.06a4.79,4.79,0,0,1,1-.51c1-.4,1.89.05,2.72-.22l-29.63-11.49-23.79-9.22-23.88,4.48a.6.6,0,0,0,.06.11h-.25v.87c.88,2.91,2,3.66,3.14,5.92a5.92,5.92,0,0,1,.43,1.38l5.09.63a8.17,8.17,0,0,1-.75-3.39,2.59,2.59,0,0,1,.26-1.63c1.63,1.63,3.65,1.5,5.78,2.51.75.38.8,2,1.26,3.32l34.77,4.3A3.72,3.72,0,0,0,232.3,304.66Zm-42.9-12.45,13.43,4.4-13.43-4.4Zm26.39,2.89c4.28,1.13,6.66,1.64,8.79,5.29C222.44,296.74,220.07,296.23,215.79,295.1Z"/>
<path class="cls-2" d="m321.59 324.76a0.83 0.83 0 0 0 0.64 -0.63 1.58 1.58 0 0 0 -1.39 -1.76c-0.13 0-0.5-0.12-0.5 0 0 1.01 0 2.39 1.25 2.39z"/>
<path class="cls-2" d="m321.73 316.22a1.77 1.77 0 0 0 -1.52 -1 2.29 2.29 0 0 0 -1.75 1 29.3 29.3 0 0 0 3.27 0z"/>
<path class="cls-2" d="m324.74 317.72l-0.63-1c-0.11 0.37 0.24 1.13 0.63 1z"/>
<path class="cls-2" d="M336.8,336.7v.75c0,.13.37,0,.5,0a3,3,0,0,0,2-.75v-1.13A2.45,2.45,0,0,1,336.8,336.7Z"/>
<path class="cls-2" d="M121.54,189.55l.06,0-.06-.09Z"/>
<path class="cls-2" d="M121.54,189.43l.06.09c1.42-1,.73-.34,2.7,0-.37.62,0,1.63,0,2.51,0,.12,1.39,2.77,2.52,2.77.64,0,1-.38,1-1.27,0-2.76-3.4-3.13-3-6.52C122.2,186.53,121.56,186.54,121.54,189.43Z"/>
<path class="cls-2" d="M115.51,182a6.44,6.44,0,0,0,2,5c.9-.91.51-2.07.31-3.31l-.84-1.28c-.25,0-.48,0-.48-.19a5.84,5.84,0,0,1-.21-.89L113.45,177a1.29,1.29,0,0,0-1.33,1.24A3.9,3.9,0,0,0,115.51,182Z"/>
<path class="cls-2" d="m116.51 177c-1.76 1-0.63 0-2.89 0h-0.17l2.85 4.37c-0.21-1.22 0.21-1.7 0.21-4.37z"/>
<path class="cls-2" d="M117.77,182.26a3,3,0,0,1-.78.19l.84,1.28A4.84,4.84,0,0,1,117.77,182.26Z"/>
<path class="cls-2" d="M179.35,109.12c.87,1.51,3.14,4.41,5.9,4.41,1.77,0,5.53-.39,6.91.61s.13,3.15,2.27,3.15h11.3c2.64-1.88,5.78-.88,9.05-2.52,1.89-.87,1-2.25,3.26-2.25,3.65,0,5.41,3.76,10.31,3.76,3.14,0,6,.13,7.17-2.26a2.42,2.42,0,0,1-1.26-1.75c-.51,0-1.89,0-1.89-1a1.07,1.07,0,0,1,.65-1.05L173.13,96.5a5.23,5.23,0,0,0-.07.68c0,.63,2.39,2.52,3.77,2.52,1.63,0,2.39-.38,4.4.12-1.39.88-5-.12-5,2.64,0,3.52,6.91,2.26,9.68,2.26h6.66a6.45,6.45,0,0,1,3.14,1.26,40,40,0,0,1-4.14.26C186.26,106.24,182.36,106.86,179.35,109.12Z"/>
<path class="cls-2" d="M234,110c2.26,0,2.76.5,5-1-2.39-1.89-12.95-4.66-12.95-8.67a9.81,9.81,0,0,0-1.4-4.28l-12.95-7.57a38.48,38.48,0,0,0,2.79,8c-.63.5-.63,1-1.64,1-2.25,0-1.38-3.13-2.13-4.64a7.28,7.28,0,0,0-4.16-3.52h-2.75a8.49,8.49,0,0,1,.63,2.26c-1.39.38-2.39.62-3.77.89-.89-2.27-2.13-3.78-5.66-3.78-2,0-2.89,1.64-3.89,2.26-.51-.75-.38-4.39-2.14-4.39-4.36,0-15.08,4.18-15.89,10L233,110.21A2.2,2.2,0,0,1,234,110Z"/>
<path class="cls-2" d="M224.32,95.29l-6.27-11.71a1.65,1.65,0,0,0-.75,1.29,4.35,4.35,0,0,0,.12,1.25c-2,1-1.26,0-3.52,0-1,0-2.26.63-2.26,1.65a4.49,4.49,0,0,0,.1.71l12.95,7.57Z"/>
<path class="cls-2" d="M222.7,89.64c0-1.13,2.76-2.26,2.76-4.15s-2.13-2.76-4.4-2.76a5.21,5.21,0,0,0-3,.85l6.27,11.71A12.48,12.48,0,0,1,222.7,89.64Z"/>
<path class="cls-2" d="M171.08,92.58,173,80.5s0,0-.07,0l-2,12.32C171,92.7,171,92.64,171.08,92.58Z"/>
<path class="cls-2" d="M172.55,80.22c-2.76-.26-4-1.76-6.77-2.52-2.27-.62-3.52.89-5,.89-3,0-4.39-1.26-7.53,0,.12,1.37,1.87,3.39,1.87,4.39,0,4.53-6.27,8-6.27,12.32,0,1.51,5,1.13,6,2.51.38.63,1.26,2.52,1.89,2.52s1,1.25,1.88,1.25,9.67-3.14,9.67-4.14c0-1.28,1.08-3,2.61-4.67l2-12.32A1.65,1.65,0,0,1,172.55,80.22Z"/>
<path class="cls-2" d="M177.71,88c1.25-.37,7.91-1.38,7.91-2.75,0-2.9-6.16-5.42-8.79-5.42-1.45,0-2.8,1.18-3.88.66l-1.87,12.08A18,18,0,0,1,177.71,88Z"/>
<path class="cls-2" d="m189.91 75.78l4.66 2.72h0.07l-4.71-2.75s-0.01 0.02-0.02 0.03z"/>
<path class="cls-2" d="M179.36,69.62l8.06,4.71h.07l-8.09-4.73Z"/>
<path class="cls-2" d="M178.09,70.17c.49.88,0,.62,0,1.88A1.93,1.93,0,0,0,180,73.94c.89,0,2.77.87,4.4.87a15.19,15.19,0,0,0,3-.48l-8.06-4.71A4.07,4.07,0,0,1,178.09,70.17Z"/>
<path class="cls-2" d="M189.65,76.7c0,.75,2,1.89,3.52,1.89.49,0,.94-.06,1.4-.09l-4.66-2.72A1.5,1.5,0,0,0,189.65,76.7Z"/>
<path class="cls-2" d="M204.1,64.14c0,1.13,2.26,1.74,3.14,1.88v1.64c-.37,0-1.13.25-1.25.5a5.56,5.56,0,0,0,2.51.37c-.51,1.14-1.14,1.64-2.77,1.64-5.52,0-8.16-4.77-11.94-4.77h-2.88a2.19,2.19,0,0,0-2.15-1.9,14.86,14.86,0,0,0-4.14,0,1.39,1.39,0,0,0,.95,1.28l-.32,0a3.21,3.21,0,0,0-2.51,1.38,5,5,0,0,0,1.31.59,6.23,6.23,0,0,0-.69-.08,11.07,11.07,0,0,0-2.13,0v1.88l1.39.53a7.31,7.31,0,0,0-1.39-.15,3.4,3.4,0,0,0-1.83.68l8.09,4.73a20.06,20.06,0,0,1,2.16-.38A1.74,1.74,0,0,1,191,72.3c.25,1.26,1.39,1.89,2.14,2.89-1.26,0-2.66-.21-3.24.55l4.71,2.75a23.62,23.62,0,0,0,6.7-1.79c.37-.12,8.41-1.89,8.41-2.14s1.68-.07,3.51.06l-7-13.09C205.14,62.2,204.1,63,204.1,64.14Zm-17,3.1c.62.07,1.26.15,1.94.29C188.6,67.49,187.87,67.37,187.08,67.24Z"/>
<path class="cls-2" d="M222.07,68.91a3.24,3.24,0,0,0-2.89-3.14c-1.63,0-2.27,1.5-3.39,1.5-2.39,0-4.78-2.76-4.78-4.64A6.55,6.55,0,0,1,211,61a4.31,4.31,0,0,1-2.39-.89,27,27,0,0,1-2.36,1.42l7,13.09a30.4,30.4,0,0,0,4.67.19C219.05,74.44,222.07,70.66,222.07,68.91Z"/>
<path class="cls-2" d="m174.42 71l0.61-3.91-0.63 3.91z"/>
<path class="cls-2" d="m177.14 68.27l-2.09-1.22c0.12 0.09 0.86 0.53 2.07 1.25 0.01-0.01 0.02-0.02 0.02-0.03z"/>
<path class="cls-2" d="M173,67.9l1.87-.8A8.11,8.11,0,0,0,173,67.9Z"/>
<path class="cls-2" d="M171.81,69.54c0,.87,1.13,1.51,2.13,1.51a1.87,1.87,0,0,0,.46-.09l.63-3.91-.14,0-1.87.8A2.09,2.09,0,0,0,171.81,69.54Z"/>
<path class="cls-2" d="m174.42 71a5.34 5.34 0 0 0 2.7 -2.66c-1.21-0.72-2-1.16-2.07-1.25z"/>
<path class="cls-2" d="M177.71,66.65a8.72,8.72,0,0,0-2.66.4l2.09,1.22A5.35,5.35,0,0,0,177.71,66.65Z"/>
<path class="cls-2" d="M189.4,62h2.76V60.36h-4.39A1.64,1.64,0,0,0,189.4,62Z"/>
<path class="cls-2" d="m160.49 64.6l10.29 1.72-10.23-1.75z"/>
<path class="cls-2" d="M159.24,65.77c0,.37,1,1,1.25,1.88,1-.12,1.38-1,2.14-1,1.26,0,2,.75,3.53,0,.24.5,1.12,1.88,2.12,1.88a2.89,2.89,0,0,0,2.5-2.21L160.49,64.6A5.29,5.29,0,0,0,159.24,65.77Z"/>
<path class="cls-2" d="M174.56,56.34c-3.51,0-4.14,3.27-6.52,4.66-2.14,1.24-4,1.5-6,2.5a15.94,15.94,0,0,0-1.45,1l10.23,1.75a3.18,3.18,0,0,0,.14-.53,4.08,4.08,0,0,0,4.05-3l-.09-6.45Z"/>
<path class="cls-2" d="M178.34,65.4l5.4-4c0-1-.88-1.26-1-2.51a2.29,2.29,0,0,0,1.63-2c0-2.25-7.54-.24-7.54-.24-1-.11-1.24-.22-2-.24l.09,6.45a4.3,4.3,0,0,0,.23-.94C176.33,62.5,176.2,65.4,178.34,65.4Z"/>
<path class="cls-2" d="m198.44 50.06h1.9l-1.78-3.52c-2.65 1-5.77 2.47-5.77 3.52 1-0.13 1.51-1 2.51-1 1.26-0.01 1.63 1 3.14 1z"/>
<path class="cls-2" d="M203.85,50.06a4.16,4.16,0,0,0,1.81-.42l.5-2.43a6.25,6.25,0,0,0-4.2-1.55,14.17,14.17,0,0,0-3.4.88l1.78,3.52Z"/>
<path class="cls-2" d="m207.24 48.81a3.79 3.79 0 0 0 -1.08 -1.6l-0.5 2.43c0.56-0.25 1.05-0.57 1.58-0.83z"/>
<path class="cls-2" d="m197.19 57.21c1.94 0 4.55-0.55 5.86-1.79l-1-2h-1.73a12 12 0 0 0 1.67 -0.12l-1.3-2.55c-3.26 0.2-7.53 0.89-7.53 3.06 0.01 1.19 2.14 3.4 4.03 3.4z"/>
<path class="cls-2" d="M205.11,52.32l.18-.9a2.31,2.31,0,0,0-1.82-.73c-.67,0-1.66,0-2.77.09l1.3,2.55A8.08,8.08,0,0,0,205.11,52.32Z"/>
<path class="cls-2" d="m203.85 53.45h-1.79l1 2a2.34 2.34 0 0 0 0.79 -2z"/>
<path class="cls-2" d="M205.73,51.94a6.11,6.11,0,0,0-.44-.52l-.18.9A4.9,4.9,0,0,0,205.73,51.94Z"/>
<path class="cls-2" d="m191.41 53.2c-0.76-0.37-4.28-3.52-4.28-0.37 0 0.62 1.39 1.87 2.52 1.87 0.88 0 1.26-0.7 1.76-1.5z"/>
<path class="cls-2" d="m252.47 89.36-16.17 3.81c2.83 1.61 5.72 2 8.39 4.64 0.76 0.76 1 2.14 2.76 2.14 1.13 0 1.38-1.51 2.51-1.89 4-1.51 4.43 0.33 5-6.53-0.75-0.25-2.39-0.5-2.88-0.63 0.03-1.15 0.34-0.33 0.39-1.54z"/>
<path class="cls-2" d="M252.48,89c0-1.38-3.65-.26-4.65-.13.88-1.12,4-2.14,4-4.65,0-.63-.88-1.26-1.25-1.26h-5c-2.77,0-5.53-.5-7.54,1.51-.13.38-.88.63-.88,1,0,1.63,2.39,1.38,4,1.63v3.4h-1.89c-2.13,0-4-1.51-5.65-1.51v2.14a12.46,12.46,0,0,0,2.67,2l16.17-3.81C252.47,89.26,252.48,89.16,252.48,89Z"/>
<path class="cls-2" d="M249.61,66.64l-8.44-1.71v1.72c-3.14,0-4.15-2.76-6.91-2.76V65.4a11.41,11.41,0,0,0,2.51,2.13c-3.9,1.13-5.78-5.29-9.43-5.29h-1.5a2.74,2.74,0,0,0,.43,1.49l-.18-.23v2.27c1,.76,1.89,1.63,3.14,1.26l.38,1.24h1.89a1.53,1.53,0,0,0,1.5,1.52c2.52,0,6.91-1.26,9.17-1.26a3,3,0,0,1,1.51.38c-.75.76-3.14.76-3.14,1.88a2.25,2.25,0,0,0,0,1.26,1.52,1.52,0,0,0-.88,1.25c0,1.14,3.27.64,4,.64a18.29,18.29,0,0,0,5-.64C248.28,70.33,249.29,68.78,249.61,66.64Z"/>
<path class="cls-2" d="M249.72,65.4c0-1.9-.26-3.16-2.52-3.16-1,0-1.5,1-2.51,1C242.31,63.25,241,62,239,62c-.88,0-1.39-.26-2.27.12.51,1.77,2.27,1.77,4.4,1.77v1l8.44,1.71A8.05,8.05,0,0,0,249.72,65.4Z"/>
<path class="cls-2" d="M249.15,110.16l8.08,4.67c-.29-.34-.63-.71-1-1.09l-6.75-3.81A2.44,2.44,0,0,0,249.15,110.16Z"/>
<path class="cls-2" d="M255,118.16A3,3,0,0,0,257.1,117l-3.77.85A8.2,8.2,0,0,0,255,118.16Z"/>
<path class="cls-2" d="M246.83,113.78c-.51.12-2.76-.39-2.76.62,0,.31,6.07,2.58,9.26,3.44l3.77-.85a5.49,5.49,0,0,1,1-.83,2.39,2.39,0,0,0-.12-.22l-10.75-2.46A1.19,1.19,0,0,1,246.83,113.78Z"/>
<path class="cls-2" d="m247.27 113.48 10.73 2.46a6.92 6.92 0 0 0 -0.79 -1.11l-8.08-4.67c-0.98 0.84-1.13 2.56-1.86 3.32z"/>
<path class="cls-2" d="m249.48 109.93l6.75 3.81c-1.89-1.9-4.62-4-5.88-4a2 2 0 0 0 -0.87 0.19z"/>
<path class="cls-2" d="m266.68 90.28c3.78 0 5.53-2.76 7.16-5 0 0 1-0.75 1.71-1.32l-17.55 4.1a5 5 0 0 0 1.5 3.47 32.58 32.58 0 0 0 -0.11 3.77h2.5c1.51-1.51 2.52-1.89 2.9-4.14h-1.64c0.77-2.52 0.77-0.88 3.53-0.88z"/>
<path class="cls-2" d="m276.11 83.35a6.75 6.75 0 0 1 0 -1.62c-4.53 0-8.05-1.51-12.32-1.51-2.63 0-3.4 1.76-3.4 1.88 0 0.38-0.25 1.13 0 1.25h-2.88v2.14a10.7 10.7 0 0 1 0.5 2.57l17.54-4.13c0.32-0.26 0.56-0.49 0.56-0.58z"/>
<path class="cls-2" d="M225.48,57.92l-2.62-.06a2.68,2.68,0,0,0,1.35.62A1.75,1.75,0,0,0,225.48,57.92Z"/>
<path class="cls-2" d="M226,57c-2.63-.88-2.88-3.52-6.15-3.52,0,1.2,1.63,3.35,3.05,4.41l2.62.06A1.7,1.7,0,0,0,226,57Z"/>
<path class="cls-2" d="M226.09,73.94c.76,0,1.89-.13,1.89-1.64,0-.88-.64-1.25-.89-1.89-1.75.64-3,1.27-3.51,3.4A19.6,19.6,0,0,1,226.09,73.94Z"/>
<path class="cls-2" d="M226.72,49.05c1.88,0,3.52-.63,4.15.51,2.26-.26,3.64.5,5.9.5,2.89,0,2.63,3.14,5.65,3.14,1,0,2.28-.37,2.28-1.64s-2.53-2.38-3.53-3.39c.25-.37.75-.88,1-1.25-.62-.63-2-2.9-3.77-2.9-.75,0-1.12,1-1.88,1-1.38,0-1.25-2.89-3.77-2.89-1,0-1.5,1-2.51,1-1.51,0-2.14-2.26-4.78-2.26-1.51,0-2.51.76-4,1,0,1.51.37,1.88,2.13,1.88A2.29,2.29,0,0,1,222.7,45c1,.75,1.63,0,4.39,0a1.67,1.67,0,0,0,0,1.51c-1.5.5-2.63.38-3.76,1.51C224.46,49.18,225,49.05,226.72,49.05Z"/>
<path class="cls-2" d="m232.87 53.45c1.88 0 3.4 0 4-0.88-1.13-0.37-1.51-1-2.89-1-0.47-0.01-3.36 1.88-1.11 1.88z"/>
<path class="cls-2" d="M315.06,73.55a3.94,3.94,0,0,1-1.63-.11,2.89,2.89,0,0,1,.63-1.17,3.74,3.74,0,0,0,1-.22,5.67,5.67,0,0,0-3.12-2.73l-8.89,8.14a2.54,2.54,0,0,0,1.58.49C309,78,314.68,78,315.06,73.55Z"/>
<path class="cls-2" d="M268.56,72.3c0,2.51,6.29,5.65,9.05,5.65,1.14,0,3-1.5,3.52-2.13h1.51c-.26,2.13,3.64,2.51,6.28,1.88H299c.47-.3.78-.59,1.11-.84l-30.54-6.18A2.35,2.35,0,0,0,268.56,72.3Z"/>
<path class="cls-5" d="M305,68.53c-6.54,0-8.8,3.15-15.71,3.15a34.14,34.14,0,0,1-8.67-1.51c-.5.37-2,1.13-2-.63,0-.37.64-.37.89-.63-1.76-1.38-4.9.5-5.66-2.89h5c-1.13-1.64-6.91-.88-5.91-3.78H270.7a2.64,2.64,0,0,1-2.52,1c-4.26,0-5.27-4.4-10.93-4.4-1.5,0-3.76,0-3.76,1.89,0,1.13,7.67,4.4,9,4.4a3.55,3.55,0,0,0,2.52-1.25c2.13,2.13,2.76,4.14,5,6.4a2.55,2.55,0,0,0-.54.39l30.54,6.18a4.12,4.12,0,0,1,2-.79,2.58,2.58,0,0,0,.93,1.39l8.89-8.14A20.14,20.14,0,0,0,305,68.53Z"/>
<path class="cls-2" d="m256 72.05a2.17 2.17 0 0 0 -1.63 1.89s7.28 3.39 8.16 3.39c1.76 0 2.52-1.89 2.52-4 0-1.62-3-4.13-5.28-4.13-2.89-0.03-2.38 2.85-3.77 2.85z"/>
<path class="cls-2" d="m263.54 56.34c1.13 0 1.89-0.62 1.89-1.26v-1.63c-1.26 0.26-0.26 0-1.64 0-2.39 0-6.91 0.26-8.16 1.51 0 0.04 7.28 1.38 7.91 1.38z"/>
<path class="cls-2" d="m255.37 45.91c-1.38 0-4-0.88-4.4-1.89-1.25 0.14-2.88 0.64-2.88 1.89 0 2.51 2.63 3.27 4.14 4.78-0.38 0.13-1.26 0.63-1.26 1.25 0 1.51 4.4 1 8.8 0a8.83 8.83 0 0 1 0 -3.14c0-2.64-4.4 0.14-4.4-2.89z"/>
<path class="cls-2" d="m245.94 38.13h2.15v-2.51c-0.89 0-2.78-0.14-4.41 0 0 1.5 1.51 1.75 2.26 2.51z"/>
<path class="cls-2" d="M282.38,35c-1.13-1.13-.37-2.76-2.25-3.52s-3.14.5-5-.25-1.51-4.4-4-5.4a27.24,27.24,0,0,0-7.92-1.38c.13,1.75,2.27,1.88,3.77,2.63H264.8c-2.27-.5-3.27.25-4.78,1.13,0,.13,1.14,2,1.63,2,.76,0,2.27-.75,3.52,0-.37.39-.63,1.26-1.38,1.26-1,0-1.64-.87-3.4-.87-1.12,0-2.88-.13-2.88,1.25s3.89,2.26,5.52,2.77c0,0-.62,1-1.13,1a8.49,8.49,0,0,1-3.76-1.26h-1.89c.37,3.64,3,4,7.29,4-.75,1-1.64,1.13-2.89,1.64,0,.75.13,1.25,1,1.25s1.38-.5,2.64-1c.38.74.51,1.63,1.76,1.63,1.51,0,1.88-1,3.77-1a18.71,18.71,0,0,1,5.15,1c-1.76.37-9.54.13-9.54,2.51,0,1.89,3.51,3.15,5.65,3.15a2.52,2.52,0,0,1-1.64.87c.26,1.77,3,2.26,5,2.26s3-.63,3-2.88c1.14.75,3.4,2.39,4.53,2.25V48.42h2.26c-.37-1-.88-1.24-1.63-2.51.63-.63.89-1.26,1.51-1.88.38,1.38.38,2.51,2,2.51s3.39-3.77,5.9-4c1-.12,2.39.12,2.89-.63.38-.5.13-1,.13-1.88-1.64-.13-4.9-1.64-6.16-1.64-.25,0-2.14,1.13-2.14,0,0-.76.89-1,.89-1.88s-1.51-1-1.51-1.88c0-1.51.12-2.15-1.63-2.15h-1.26l.63.89V35Z"/>
<path class="cls-2" d="M290.81,141.42v1.88c0,.75-.63,1.14-1.26,1.64-.25.62-1.76.37-1.88,2.51.5-.06,1.37-.19,2.35-.24l4.88-13.32C291.43,134.3,290.81,139.29,290.81,141.42Z"/>
<path class="cls-2" d="M293.07,147.45c-.25,1.26-.63,2.51.87,2.51.63,0,.63-.37,1-1,1.76.74,5.91-1.88,5.91-4.66a53.06,53.06,0,0,1,4.78,3.15H309a7.24,7.24,0,0,0,4.15-1.38c-1.13-1.52-3.4-.88-5.41-2.39-.63-.51-.25-1.38-.88-2.26-2.26-3-6.28-1.76-8.92-5a3.72,3.72,0,0,0-1.13,1c-.63-1.26-1.25-1.64-1.89-3.53h-.05L290,147.21A10.57,10.57,0,0,1,293.07,147.45Z"/>
<path class="cls-2" d="m324.15 124.12l-0.08-2.39a3.84 3.84 0 0 0 -0.21 1.22 2.6 2.6 0 0 0 0.29 1.17z"/>
<path class="cls-2" d="m327 125.71c1.5 0 4.65-1.13 4.65-2.76 0-3.76-6.4-4.82-7.58-1.22l0.08 2.39a3.07 3.07 0 0 0 2.85 1.59z"/>
<path class="cls-2" d="m303.38 150.85c-0.13 0.74-1.77 1.87-2.77 3.13v1.63c2-0.25 5.15-2.76 6.28-4.27-1.52-0.62-1-0.62-3.51-0.49z"/>
<path class="cls-2" d="m312.8 83a2 2 0 0 0 -2.14 1.89 2.46 2.46 0 0 0 1.46 2l1.42-3.89h-0.74z"/>
<path class="cls-2" d="M317,90.28c2.13,0,3.26-1.26,4.64-1.26a3.88,3.88,0,0,1,1.33.27L322.77,85a8.32,8.32,0,0,0-3.69-1c-2.38,0-3.34-.81-5.54-1l-1.42,3.89c.34.22.71.41,1.06.6C312.29,89.64,314.43,90.28,317,90.28Z"/>
<path class="cls-2" d="M325.37,89.9a2.52,2.52,0,0,0,2.26-2c-1.39-.69-3-2-4.86-2.91l.15,4.32A6.43,6.43,0,0,0,325.37,89.9Z"/>
<path class="cls-2" d="m314.05 158.13c1.26 0 1.52-1.76 2.27-2.77-1.26-1.5-4.15-1.38-4.15 0.88 0 0 1.63 1.89 1.88 1.89z"/>
<path class="cls-2" d="M337.05,122.06c-.38-.49-1.38-2-2.51-2-.26,0-1.64.88-1.64,1.27,0,.74.76,1,1.64,1A6.06,6.06,0,0,0,337.05,122.06Z"/>
<path class="cls-2" d="m316.56 115.65c1.52 0 2.52-1.38 2.9-2.88-1.46 0-4.4 2.88-2.9 2.88z"/>
<path class="cls-2" d="M306.52,84c-5,0-13.45,1.51-13.45,6.29,0,1.24,1.25,2.14,1.25,3.38,0,1-1.75,2.52-2.5,2.52-1.51,0-1.26-1.13-1.26-2.13a6.33,6.33,0,0,1,0-2.27c-.63,0-1-.5-1-1.25a3.2,3.2,0,0,1,.11-.72L279,99.64l.25.31s5.77.5,6.91,1.26v1.63c-2.14-.25-4-1-5.66-.38.25,1.76,2.14,2,2.77,3.77h6c.75,1,2.76,2.52,3.77,2.52,3.06,0,7.27-.11,11.1-.15l7.12-19.42C310.7,86.68,309.07,84,306.52,84Z"/>
<path class="cls-2" d="M295,84c-.13,0-4.14-1.26-4.14-1.26-4.27,0-7.54,2.14-10.06,4.65-.5.5.13,2.77-.88,3.52-1.88,1.38-2.51,2.14-2.51,5.65,0,.88,1.14,2.44,1.64,3.09l10.66-9.83C290.18,86.87,293.79,86.44,295,84Z"/>
<path class="cls-2" d="m320.34 140.16c0 1.46 2.76 2.91 4.5 3.37l-0.24-6.66c-1.8 0.44-4.26 2.2-4.26 3.29z"/>
<path class="cls-2" d="M322,90.53c-2.26,0-2.89,3.13-5,3.13-1.14,0-1.52-1.24-2.9-1.24s-1.76,1.24-2.51,1.24,0-2,0-2.5a8.94,8.94,0,0,0-.25-2l-7.12,19.42c3.24,0,6.22,0,8,.15-.12.87-.63,2.89,1,2.89,2.26,0,4.28-4.78,5.91-4.78.67,0,2.62,1.36,4.57,2.89L323,90.56Z"/>
<path class="cls-2" d="M352.39,152.72c3.14,1.89,5.52,1.14,9.17,2.89.37.13.62,1.52,1.25,1.52a1.53,1.53,0,0,0,1.26-1.52c0-3.51-7-6.15-9.18-8.79h1.89c1.38,1.77,9.43,4.77,11.69,5,.49-1.39,1.88-3.77,1.88-5s-2.26-2-2.26-2.89c-.13-.49-.13-.49,0-2.51H366c-.25-2.14-1.13-.63-3.51-1.51a3.13,3.13,0,0,1-1.16-1.12l-17.65,9.82C344,151.09,349.82,151.24,352.39,152.72Z"/>
<path class="cls-2" d="m372.48 138.65c1.39 0 1.64-2.13 1.64-3.52 2.38 0 2.77-1.12 2.77-1.5a6.6 6.6 0 0 0 0 -1.64c1.63 0 3.77-0.5 3.77-2.13a3.37 3.37 0 0 0 -0.37 -1.66l-13.29 7.38c1.39 1.67 2.94 3.07 5.48 3.07z"/>
<path class="cls-2" d="M359.67,135.13H358v-1.88c.5.38,1.13.25,1.88,0v-1.51a2.58,2.58,0,0,1-2.51-.25c.12,0,1.76-1.38,2.51-1.38,3.59,0,5.14,3,7.12,5.47l13.25-7.38c-.48-.84-1.45-1.24-3-1.24a3.18,3.18,0,0,1-2.26-.62c-1-2.39-1.63-.63-4.4-.63-1.88,0-2.51-2.14-2.76-4.4-2.64-.25-6-1.5-6.28-4.4a6.18,6.18,0,0,1-3.52-1c1.13-1.89,2.13-1.89,4.14-2.89a2.2,2.2,0,0,0-1.88-1.13,25,25,0,0,1-3.77-.25c1-1.52,2.64-1.39,4.4-1.76-.76-1.76-1.76-3-3.52-3h-2.14v-2.14c-3.51-.38-5.4-2.39-8.8-3.51.38-2.15-2.76-2.52-4.13-2.52h-3.15c-4.15,0-5-4.28-7.8-6.27-1.43-1-5.77-1.7-8.42-1.86l.68,19.19c2.07,1.63,4.15,3.44,4.73,4-.75.12-3,.37-3,1.63,0,.24.51,1.5,1,1.5,1.63,0,2.39-1.5,4-1.5,2.64,0,10.68,6.16,10.68,9.42,0,1.76-2.64,4.52-3.77,5.65-.88.88-3.14-.25-3.14,1.89,0,1,1.63,2.26,2.26,2.63a13.63,13.63,0,0,1-5.65,1.76h-5.41a3.1,3.1,0,0,0-.76.11l.24,6.66a3.9,3.9,0,0,0,.9.15c1.51,0,2.26-1.89,3.78-1.89,1.13,0,.87.88,2.13.88s1.88-1,2.51-1.88c3.64,2.13,5.66,4.52,9.8,6.29a2.4,2.4,0,0,0-.33,1.53l17.65-9.82A9.88,9.88,0,0,1,359.67,135.13Z"/>
<path class="cls-2" d="m319.71 148.58c1.26 1 1.63 1 2.89 0-1.51-0.75-1.6-1.64-2.89 0z"/>
<path class="cls-2" d="m298.73 133.25c-0.14 0.88 0.87 1.88 2.5 2-0.87-1.12-0.87-2.75-2.5-2z"/>
<polygon class="cls-2" points="282.9 26.98 287.42 30.83 287.42 30.83 282.9 26.98"/>
<polygon class="cls-2" points="276.25 21.31 276.11 21.2 276.79 21.78 276.8 21.78"/>
<polygon class="cls-2" points="290.21 33.21 291.83 34.6 291.84 34.6 290.21 33.21"/>
<polygon class="cls-2" points="291.84 34.6 318.63 57.43 318.63 57.43 291.85 34.6"/>
<polygon class="cls-2" points="280.02 24.53 282.69 26.8 282.69 26.8 280.02 24.53"/>
<polygon class="cls-2" points="277.69 22.55 279.89 24.42 279.9 24.42 277.7 22.55"/>
<path class="cls-2" d="m321.34 61.37a0.93 0.93 0 0 0 -0.15 -0.5l-3.86 3.52c2.18-0.83 4.01-1.94 4.01-3.02z"/>
<path class="cls-2" d="m279.25 62.88a1.15 1.15 0 0 0 1.25 1c0.63 0 1.13-0.64 1.51-1.26 4.4 1.39 7.79 2.51 11.93 2.51 1.89 0 2.65-1.25 3.77-1.25h9.43c2.52 0 1.26 1.88 4.15 1.88a19.56 19.56 0 0 0 6 -1.38l3.86-3.52c-0.39-0.57-1.43-0.51-1.73-0.51h-3.14v-0.28l-33.88-0.8c-1.73 0.43-3.15 1.27-3.15 3.61z"/>
<path class="cls-2" d="M280.5,28.19c.89,1.14,4.39,2.64,6.91,2.64L282.9,27A6.93,6.93,0,0,0,280.5,28.19Z"/>
<path class="cls-2" d="M291.84,34.6c-1.24,0-2.91-.17-2.91,1,0,2.25,8.54,2.25,8.54,6.27,0,3.52-3.78,2.39-6.92,3.39-1.88.63-2.76,2-3.77,4.15v1.51h1.89a3.37,3.37,0,0,1,1.26-.88h1.88c0,3,3.9,4.53,5.66,6.28h-2.26c-2.39-1.38-3.77-3.51-7.79-3.51-1.26,0-3.15-.51-3.15,1.26,0,2.25,2.64,2.63,4.15,3.76-1.4,1-3.92.95-6,1.43l33.88.8a2.8,2.8,0,0,1,2.29-2.65Z"/>
<path class="cls-2" d="m291.83 34.6l-1.62-1.39c0.23 0.87 0.5 1.33 1.62 1.39z"/>
<path class="cls-2" d="m278 26.81c0.84-0.1 2.72 0 4.7 0l-2.7-2.28a4.51 4.51 0 0 0 -2 2.28z"/>
<path class="cls-2" d="M276.11,21.2l-1.7-1.38c-1.73.72-3.05,1.67-3.33,2.84h2.76a9.45,9.45,0,0,1,1.89-.88h1.06Z"/>
<path class="cls-2" d="M276,23.92a7.46,7.46,0,0,0,2.26,1,2.81,2.81,0,0,0,1.65-.5l-2.2-1.87A7.85,7.85,0,0,0,276,23.92Z"/>
<path class="cls-2" d="M381.28,15.76c0-2.26-6.66-1.64-8.16-3.15-.76-.75-.76-1.76-2.14-2.13a8.64,8.64,0,0,1-2.26-1l-10.06,2.89A4,4,0,0,0,360.93,11c-2.51-2.52-13.33-2.14-16.34-2.14h-2.93L324.84,52.57H327c2.14-1.5,3-4.52,5.66-5.77-.75-1.77-2.13-2.27-3.64-3,2.38.24,3.9.5,3.64-2.26h-3.52c2-1.64,5.15-1.9,7.92-2.77,2-.62,4.78.87,6.53-.38,3.78-2.75,6.67-7.78,11.69-9.42,4.52-1.51,11.56-3.27,14.46-6.16-3.15-.13-8.17.88-9.43-.38,6.66-3.25,12.82-1,17.84-4.78C379,17,381.28,17.39,381.28,15.76Z"/>
<path class="cls-2" d="M341.07,8.84c-1.13,0-1.88-.88-3.77-.88s-2.26,2.14-4,2.14-2.51-1.51-4.78-1.51a1.76,1.76,0,0,0-1.51.88H312.55a2.88,2.88,0,0,0-2.89,1.63c-1.64,1.38-.38.25-2.52.25-3.64,0-5.15,2.65-6.27,5.66-1.14-.38-6.05-2.76-8.43-2.76-2.64,0-1,2.76-5,2.76a1.09,1.09,0,0,1-1,1h-2.76c-.61,0-1.35.05-2.15.13l-5.25,3.16.55.47h2.7a9.34,9.34,0,0,0-1.8.77l2.2,1.87c1-.66,1.61-1.76,3.37-1.76a8.68,8.68,0,0,1,2.51.26c-2.12.65-4.19.74-5.76,1.61l2.67,2.27h1.21a6.7,6.7,0,0,0-1,.17l4.52,3.85h0a4.65,4.65,0,0,0,2.76-1.25h1.63c-.75,1.63,2.52,2.51,5,2.51,1,0,1.5-1.26,2.51-1.26,1.26,0,2,1,4.4,1,4,0,6.91-.89,9.43-2.89h1.88c-1.51,1.88-3.65,2.51-6,3.52h-6.28c-.25.37-.89.75-.89,1.25,0,.76,4,3.27,4.66,3.89-3.53.39-4.66-3.25-7.79-4.26-2.52-.76-5.28-.25-6.67-.25a4.58,4.58,0,0,0-1.88,0l0,.11,1.63,1.39h0l26.78,22.83c1.42-.5,3-.79,3-3,0-.75-.62-1-.88-1.89h4.13L341.66,8.84Z"/>
<path class="cls-2" d="M276.25,21.31l-.65-1.93c-.41.14-.82.28-1.19.44l1.7,1.38Z"/>
<path class="cls-2" d="M281.5,18.15a29.28,29.28,0,0,0-5.9,1.23l.65,1.93Z"/>
<path class="cls-2" d="m424.61 103.53c-0.25 0.51-7.11 15.54-14 30.72z"/>
<path class="cls-2" d="M438,35.35s.12.27.26.63c3.27,6.17,37.74,55.88,56.15,82.32l.19-.07Z"/>
<path class="cls-2" d="m407.55 96.28l-5.16-2.19 5.16 2.18s-0.02 0.02 0 0.01z"/>
<path class="cls-2" d="M424.61,103.53l-12.17-5.17.05.06Z"/>
<polygon class="cls-2" points="424.61 103.53 480.44 124.96 480.45 124.96 473.73 122.38"/>
<path class="cls-2" d="m473.7 122.31l-0.26-0.64c0.12 0.33 0.22 0.53 0.26 0.64z"/>
<path class="cls-2" d="m501.35 116.61-20.43-82.06l-8.33-31.9h-0.24l28.92 114z"/>
<path class="cls-2" d="m444.75 166.3a2.11 2.11 0 0 0 0.65 -0.1h-1.25a1.57 1.57 0 0 0 0.6 0.1z"/>
<path class="cls-2" d="M424.61,103.53l-14,30.73c1,1.14,2.11,2.13,2.51,3.39s.76,3.64,1.26,4.14c2.13,1.13,2.76-2,4.64.38-.87.88-1.88.75-1.88,2.38,0,3.65,4.78,9.31,7.29,11.32.37.25.12,2,.87,2.51,2,1.5,3.27.63,4.15,3.52,1.51-.13,3.52-1.64,5.28-1.64,3.15,0,2.89,5.67,6,5.67.76,0,1-.75,2.52-.89a1.63,1.63,0,0,0,.91,1.15h1.25c2.54-.81,1.44-6.53,4.12-7.82a60.71,60.71,0,0,1,0-6.91c0-3.09,4.22-2.58,5.51-4.94Z"/>
<path class="cls-2" d="M424.61,103.53l30.42,43a3.11,3.11,0,0,0,.39-1.59c0-1.38-1.5-2-1.5-2.89,0-.63.5-1,.87-1.52,0-.37-.24-.87-.24-1.25,0-4.15,6.78-3,9.42-5.65,1.13-1.13.63-2.39,2.52-3.15V133h1.88c2.64-1.88,6.91-1.26,9.42-3.78,1.27-1.26,1.75-2.81,2.66-4.26Z"/>
<path class="cls-2" d="M521.15,107a19,19,0,0,0-3.4-.49l-1.09,2.59A11.27,11.27,0,0,0,521.15,107Z"/>
<path class="cls-2" d="m520.52 104.34c1.37 0 3.39-0.12 3.39-1.5a8.41 8.41 0 0 0 -2.21 -5.71l-2.94 7a6.14 6.14 0 0 0 1.76 0.21z"/>
<path class="cls-2" d="M531.83,76.46a9.85,9.85,0,0,0-1.3-.29l-1.16,2.75A4.8,4.8,0,0,0,531.83,76.46Z"/>
<path class="cls-2" d="M438.26,36h0c-.14-.36-.23-.58-.26-.63Z"/>
<path class="cls-2" d="M473.73,122.38l0-.07c0-.11-.14-.33-.26-.64l-.55-1.35-.05-.11L438.26,36a2,2,0,0,1-.26-.63l-13.39,68.17s0,0,0,0Z"/>
<path class="cls-2" d="M424.6,103.53,417,107.76c1.13.24,2.17.47,3,.73-1.13,3.52-3,4.77-3.77,8.55-1.77-.76-1.77-.63-3.52.25v.25c-2.51,2-3.27,4.52-5,6.91v2.9a2,2,0,0,1,2.51,0c-.38,1.25-1.26,1.87-1.26,3.13a5.65,5.65,0,0,0,1.63,3.77C417.49,119.07,424.35,104,424.6,103.53Z"/>
<path class="cls-2" d="M438.26,36l-.26-.63A2,2,0,0,0,438.26,36Z"/>
<path class="cls-2" d="M438.26,36l34.58,84.23.05.11.55,1.35.26.64,0,.07,6.72,2.58a7.33,7.33,0,0,1,1.74-2l3.15-2.27c0-1,1.25-1.38,2.5-2.13h5.91l.66-.25C476,91.86,441.53,42.15,438.26,36Z"/>
<path class="cls-2" d="m405.16 98.06c1.19 0 1.72-1.13 2.35-1.74l-5.16-2.18a2.78 2.78 0 0 0 -0.58 1.79c0 1.88 1.13 2.13 3.39 2.13z"/>
<path class="cls-2" d="M424.61,103.53h0l-12.12-5.11c1.47,1.77,2.79,4,5,4.66-.12.77,0,1.9-1.25,1.9-3,0-4.9-1.9-7.54-1.9-1.13,0-1-.49-2.27,0,.4,2.8,6.25,3.77,10.6,4.68l7.59-4.23Z"/>
<path class="cls-2" d="M494.6,118.23a33.11,33.11,0,0,1,6.67-1.6l-28.92-114c-5.6.52-10.18,3.42-15.67,3.42a32.36,32.36,0,0,0-5,0v1.5h-2.52l-.3-.1L438,35.35Z"/>
<path class="cls-2" d="m555.71 21.4a1.34 1.34 0 0 0 -0.34 -0.76l-2.37 3.5c1-0.43 2.71-1.44 2.71-2.74z"/>
<path class="cls-6" d="M501.35,116.61a33.79,33.79,0,0,0,5.35-1.2c3.64-1.14,4.9-4.65,9-6l.92-.29,1.09-2.59c-4.25-.41-10.43-.85-10.43-3.65.63-.13,2.77-.51,2.77-1.63s-1.26-1.39-1.26-3.15c.63.38,1.26,0,1.88,0,4.56,0,4.12,4.91,8.05,6l2.94-7C519,94,514.38,92.05,511.34,89V87.13a6.14,6.14,0,0,0,1.64,0c.76,2.38,4.65,5.66,6.92,5.66,1.5,0,1.88-2,1.88-3.52,0-3.4-5.65-2.27-6.91-5.66h1.88c1,1.39,2.38,2,3.77,2.9,1-2.64,6-1,6.91-4.78a2.13,2.13,0,0,1-1.26-1.89,9.45,9.45,0,0,0,3.2-.92l1.16-2.75c-1.64-.29-3.73-.59-3.73-2.23s2-1.64,4-1.64c-.63-.74,0-1.76,0-2.76,0-1.88-1.87-2.64-1.87-5.4-1.77,0-4,0-4-2.14a2.4,2.4,0,0,1,2.51-1.89c2.27,0,8.8,1.13,8.8-1.88s-4.9-2.39-5.41-4.39a4.77,4.77,0,0,0,2.26-.77c-1.25-1-3-2.38-5-2.38-1.38,0-2.39.63-3.77,0,.75-1.26.63-4.27,2.14-5.41,2.38-1.75,5-2.63,5-5.27a8,8,0,0,0,0-1.88c2.38-.64,5.65-1.14,5.65-3.15,0-1.26.88.12,0-1.63,2.27-.5,5.66-.5,5.66-4-1,.75-1.13.75-2.64,0,3.51,0,5.86-1.41,8.13-2.8L513.6,30.65a5.61,5.61,0,0,1-1.57.81,3.32,3.32,0,0,1,.39-.67l-31.5,3.76Z"/>
<path class="cls-7" d="M408.3,95.93c1.79,0,3,1.09,4.14,2.43l12.17,5.17h0s0,0,0,0L438,35.35l-51.93,32c7.72,3.87,12.84,11.54,15.32,19.16v1.88c1.14.12,3.14.25,3.14,2.14s-1.33,2.51-2.14,3.56l5.16,2.19A1.08,1.08,0,0,1,408.3,95.93Z"/>
<path class="cls-2" d="m550.36 25.3l-10.24-6.66h-0.5c-2 1-2.38 1.64-4.65 2.51a14.4 14.4 0 0 1 -2.88 -0.37h-8.43c-1.72 1.3-6.63 7.55-10.06 9.87l34.65-4.12c0.75-0.43 1.4-0.84 2.11-1.23z"/>
<path class="cls-2" d="M512.42,30.79c1.67-2.37,8.1-9.26,8.1-10.26,0-1.89-.88-3.77-3.14-3.77-4.15,0-11.64,7.17-14.78,7.17-1,0,4.47-5.29,4.72-6.3-2.25-.87-23.32,1.64-25.46,0l27.6-1.5c3.4-1.26,11.94-.63,12.57-5-3.15-.75-7.55.13-10.94-1.25-5.9-2.52-11.43-7.29-18.84-7.29H474c-.49,0-.95,0-1.43.09l8.33,31.9Z"/>
<path class="cls-2" d="M552.57,24.31l.41-.17,2.39-3.5c-1.28-1.6-5.8-3.63-7.2-3.63s-2.14.12-2.52,1.63h-5.53l10.24,6.66A13.39,13.39,0,0,1,552.57,24.31Z"/>
<path class="cls-2" d="M438,35.35,414,17.52c-2.37-.85-4.38-.74-5.7-3l-1.25,1.26c0,.88.63,1.63.63,2.51-2.39,0-3-3.77-5.29-3.77-3.39,0-5.89,2-9.42,2.89-4.78,0-6.66,1.25-11.68,1.88-4,.5-.63,6.29-5,6.29a5.09,5.09,0,0,1-3.27-1c-2.51,2.51-8.17,5.53-12.44,6.91-.63.12-2.51.75-2.51,1.89,0,2.38,7.16,2.27,9.43,2.52a7.5,7.5,0,0,1-3.4,6.65c-2.76,1.63-7.28-.26-10.68.88-2.39.75-3.77,2.14-6,2.89-2.75.89-7.16-.51-7.16,3.39,0,1.4,5.79,3.45,9.52,4.58Z"/>
<path class="cls-2" d="M438,35.35,349.71,54.26a30,30,0,0,0,3,.82h4.4c.64,0,1-.62,1.27-1.24h5c-.37,1.38-.37,1.88-1.63,2.76h-7.16c-.63.88-1,1-2.26,1h-3.15c-1,0-3.52.76-3.78,2.51,2.4.89,1.64,0,4.41,0,1.5,0,3,1.39,5,2.13-.49,1.13-1.37,1.26-2.5,2,1.49,1.88,5.52,3,8.16,3,1,0,.88.39,1.63-.37a4.29,4.29,0,0,1-1.25-1,5.62,5.62,0,0,1,2.51-.48c1.5,0,2.64,1,3.77,1,1.63,0,2.39-1.64,4-1.64H375a24.45,24.45,0,0,1,11.07,2.59Z"/>
<path class="cls-2" d="M448.84,7.48c-2.62-.88-4.58-.77-7.49-.77a23.1,23.1,0,0,0-10.68,2.5c.64.89,1.64,1,2.51,1.89-1.13.25-5-.37-5,1.51,0,2.38,5.15,4,7.16,5h-5.66c-3.13-1.5-6.15-4.39-11.31-4.39-1.25,0-3.13.13-3.13,1.63,0,1,.62,1.77,1,2.76h-1.88l-.34-.11,24,17.83Z"/>
<path class="cls-2" d="M409.56,112.52c2.14,0,4.77-.38,5-2.52a6.7,6.7,0,0,1-.91-.38l-5.2,2.9Z"/>
<path class="cls-2" d="m407 105.6a2.55 2.55 0 0 0 -2.76 2.52c0 1.5 1.38 4.27 2.52 4.4h1.67l5.2-2.9c-2.52-1.29-3.63-4.02-6.63-4.02z"/>
<path class="cls-2" d="m534.34 73.94c1.26 0 3.39-1.51 4-1.89h-2.13v-1.64h-2.21c-0.37 0.38-1.26 0.89-1.26 1.64s0.72 1.89 1.6 1.89z"/>
<path class="cls-2" d="m396.36 214.19l3 1 0.18-0.24-3-1a2 2 0 0 0 -0.18 0.24z"/>
<path class="cls-2" d="M391.43,222.64l6.25,6.1h.07a6.35,6.35,0,0,0,2.5-.62c.64,1.25,2.27.5,3.53.5-.38.75-1.39.75-1.39,2,0,.25.51,0,.76,0,1.51,0,2.64-1.89,3.65-3.41,1,1,.24,3.41,1.25,3.41.38,0,.63.25,1,.25,0,.5.26,1.5,1.14,1.5,1.25,0,2-1.5,2-3,0-1.25-.87-1.13-.87-2.64-.76.49-.38.75-1.64.75,0-.87-.88-1.38-.88-2s1.13-.75,1.26-1.89a2.26,2.26,0,0,0-1.38.38c0-1.88.12-3,.12-4.14a5.81,5.81,0,0,1-3.64,0l-1.51.5v-.62h-2.26v-1.14L402,218a2.73,2.73,0,0,0-2-.64c-.87,0-.87.76-1.88,1v-1.13a6.72,6.72,0,0,1,1.2-2l-3-1C395,216.76,393.71,220.56,391.43,222.64Z"/>
<path class="cls-2" d="M390.08,223.59a1.12,1.12,0,0,0,1,.64V225c0,.13-2.25,1.89-2.25,2.39s.62,1.26,1.25,1.26c1.51,0,2-.75,3.9-.75,1.35,0,2.12.84,3.7.86l-6.25-6.1A5.9,5.9,0,0,1,390.08,223.59Z"/>
<path class="cls-2" d="m400.65 209.53c-2 0-2.78 2.14-3.78 3.77-0.13 0.19-0.25 0.42-0.37 0.64l3 1c1-1.2 2-2.39 2-4.13 0.02-0.52-0.36-1.28-0.85-1.28z"/>
<path class="cls-2" d="M310.92,204.51c.11,0,.62.11.62,0,0-1.77-2.13-2.14-4.27-2.14a1,1,0,0,1,0,.87A6,6,0,0,0,310.92,204.51Z"/>
<path class="cls-2" d="M158.11,225.24V224.1c-3.27-3.26-6.28-6.27-11.69-8-.88-.25-2-1.76-3.39-1.76a4.46,4.46,0,0,0-1.76.62h.51s1.25.38,1.88.51a2.24,2.24,0,0,1-1.25,1.13c.49,1.51,4,2.77,6.53,2.77-.38.38-1,.38-1.26,1.26,2,1.26,6.4,4.65,9.29,4.65Z"/>
<path class="cls-2" d="M127.46,204.75c0,1,.74,2.39,1.74,2.39,1.26,0-1-1.89-1-2.39s.45-.69.58-1.07l-1.22.52A1.54,1.54,0,0,0,127.46,204.75Z"/>
<path class="cls-2" d="M128,203.37c0,.18-.26.43-.4.83l1.22-.52a.53.53,0,0,0,.05-.18,1.32,1.32,0,0,0-.33-.78l-1.63-.24A2,2,0,0,0,128,203.37Z"/>
<path class="cls-2" d="M128.2,202c0-.93.14-1.59.11-2.17l-.22-.34c-.28.6-.74,1.37-1.52,1.37s.75-1.37.75-1.5c-1.13-.12-1.76-.89-2.9-.89v1c.51.75,1,2.25,1.51,2.25s.65.37.94.75l1.63.24A1.23,1.23,0,0,1,128.2,202Z"/>
<path class="cls-2" d="M128.2,199.23c0,.07-.08.16-.11.25l.22.34A1.93,1.93,0,0,0,128.2,199.23Z"/>
<path class="cls-2" d="M52.39,182.78l-3.49-1.85c-.4.16-.82.32-1.26.45v1.5c.89.64,1.52.76,2.64,1.65C51.13,183.85,51.76,183.29,52.39,182.78Z"/>
<path class="cls-2" d="M55.19,181v-1.5H53.68c-1.8,0-3.2.79-4.78,1.43l3.49,1.85A15,15,0,0,1,55.19,181Z"/>
<path class="cls-2" d="m379.4 221c-2.64-1.5-5-3.88-8.92-3 1.51 1.13 5.15 3.76 7.16 3.76 1-0.05 1.36-0.17 1.76-0.76z"/>
<path class="cls-2" d="M371.6,231.52a1,1,0,0,0-.5.88c0,.87,4.65,3.27,5.54,3.27.25,0,1.5-.64,1.5-1.39v-.76h-3.77A3.53,3.53,0,0,1,371.6,231.52Z"/>
<path class="cls-2" d="M386.06,235.67v-.17l-.26-.72h-.09l.34.94A.43.43,0,0,1,386.06,235.67Z"/>
<path class="cls-2" d="M385.06,232.9a.73.73,0,0,0-.21-.47l.2.55S385.06,232.93,385.06,232.9Z"/>
<path class="cls-2" d="M386.06,234.79h-.26l.26.72Z"/>
<path class="cls-2" d="M383.3,237.3c1.34,0,2.7-.72,2.75-1.58l-.34-.94c-2.3-.06-.74-.76-.66-1.8l-.2-.55a3.93,3.93,0,0,1-.67-.78c-1.14.36-2.89,3.52-2.89,4.27S382,237.3,383.3,237.3Z"/>
<path class="cls-2" d="M6.56,166.3c-1,0-1.39-.25-1.89.88H2.79c.25.49,1,.89,1.5,1.26H8.45C8.19,167.18,8.06,166.3,6.56,166.3Z"/>
</g>
<path class="cls-8" d="m364.34 456.43a7.07 7.07 0 1 1 -7.07 -7.07 7.07 7.07 0 0 1 7.07 7.07z"/>
<path class="cls-8" d="m413.31 540.76a7.06 7.06 0 1 1 -7.06 -7.06 7.07 7.07 0 0 1 7.06 7.06z"/>
<path class="cls-8" d="m342.5 606.71a7.07 7.07 0 1 1 -7.07 -7.07 7.06 7.06 0 0 1 7.07 7.07z"/>
<path class="cls-8" d="m379.68 568.65a3.53 3.53 0 1 1 -3.53 -3.53 3.53 3.53 0 0 1 3.53 3.53z"/>
<path class="cls-8" d="m292.09 317.47a7.07 7.07 0 1 1 -7.09 -7.07 7.06 7.06 0 0 1 7.09 7.07z"/>
<path class="cls-8" d="m341.55 267.51a7.07 7.07 0 1 1 -7.07 -7.07 7.07 7.07 0 0 1 7.07 7.07z"/>
<path class="cls-8" d="m361.23 207.45a7.07 7.07 0 1 1 -7.07 -7.06 7.07 7.07 0 0 1 7.07 7.06z"/>
<path class="cls-8" d="m197.57 211.51a7.07 7.07 0 1 1 -7.07 -7.06 7.07 7.07 0 0 1 7.07 7.06z"/>
<path class="cls-8" d="M211.85,266a7.07,7.07,0,1,1-7.07-7.06A7.07,7.07,0,0,1,211.85,266Z"/>
<path class="cls-8" d="m246.51 349.71a7.07 7.07 0 1 1 -7.06 -7.06 7.06 7.06 0 0 1 7.06 7.06z"/>
<circle class="cls-8" cx="381.71" cy="382.79" r="4.37"/>
<path class="cls-8" d="m344.41 372a4.38 4.38 0 1 1 -4.41 -4.4 4.38 4.38 0 0 1 4.41 4.4z"/>
<path class="cls-8" d="M322.79,408a4.38,4.38,0,1,1-4.38-4.37A4.38,4.38,0,0,1,322.79,408Z"/>
<path class="cls-8" d="m315.7 427.5a4.37 4.37 0 1 1 -4.37 -4.38 4.37 4.37 0 0 1 4.37 4.38z"/>
<path class="cls-8" d="m470.31 448.59a4.37 4.37 0 1 1 -4.37 -4.37 4.37 4.37 0 0 1 4.37 4.37z"/>
<path class="cls-8" d="m258.76 340.56a4.38 4.38 0 1 1 -4.37 -4.38 4.37 4.37 0 0 1 4.37 4.38z"/>
<path class="cls-8" d="m222.91 305.15a4.38 4.38 0 1 1 -4.37 -4.37 4.37 4.37 0 0 1 4.37 4.37z"/>
<path class="cls-8" d="m191.78 301.36a4.38 4.38 0 1 1 -4.37 -4.38 4.37 4.37 0 0 1 4.37 4.38z"/>
<path class="cls-8" d="m395.38 474.42a4.38 4.38 0 1 1 -4.38 -4.37 4.37 4.37 0 0 1 4.38 4.37z"/>
<path class="cls-8" d="m350.46 483.5a4.37 4.37 0 1 1 -4.37 -4.37 4.38 4.38 0 0 1 4.37 4.37z"/>
<path class="cls-8" d="M401,393.31a4.38,4.38,0,1,1-4.37-4.38A4.37,4.37,0,0,1,401,393.31Z"/>
<path class="cls-8" d="m307.3 328.8a4.38 4.38 0 1 1 -4.38 -4.37 4.38 4.38 0 0 1 4.38 4.37z"/>
<path class="cls-8" d="m262.15 298.8a4.38 4.38 0 1 1 -4.38 -4.37 4.38 4.38 0 0 1 4.38 4.37z"/>
<path class="cls-8" d="m266.69 265.49a4.38 4.38 0 1 1 -4.37 -4.37 4.37 4.37 0 0 1 4.37 4.37z"/>
<path class="cls-8" d="m206.13 242.28a4.38 4.38 0 1 1 -4.37 -4.38 4.37 4.37 0 0 1 4.37 4.38z"/>
<path class="cls-8" d="m161.21 271.55a4.37 4.37 0 1 1 -4.37 -4.38 4.37 4.37 0 0 1 4.37 4.38z"/>
<path class="cls-8" d="m232.37 294.26a4.37 4.37 0 1 1 -4.37 -4.38 4.37 4.37 0 0 1 4.37 4.38z"/>
<path class="cls-8" d="m265.68 317.47a4.38 4.38 0 1 1 -4.37 -4.37 4.37 4.37 0 0 1 4.37 4.37z"/>
<path class="cls-8" d="m307.57 282.14a4.38 4.38 0 1 1 -4.38 -4.37 4.38 4.38 0 0 1 4.38 4.37z"/>
<path class="cls-8" d="m233.38 280.13a4.38 4.38 0 1 1 -4.37 -4.38 4.37 4.37 0 0 1 4.37 4.38z"/>
<path class="cls-8" d="m185.44 253.88a4.38 4.38 0 1 1 -4.38 -4.37 4.37 4.37 0 0 1 4.38 4.37z"/>
<path class="cls-8" d="m184.43 234.7a4.38 4.38 0 1 1 -4.37 -4.37 4.38 4.38 0 0 1 4.37 4.37z"/>
<path class="cls-8" d="m180.9 272.05a4.38 4.38 0 1 1 -4.38 -4.37 4.37 4.37 0 0 1 4.38 4.37z"/>
<path class="cls-8" d="m214.9 320.61a4.38 4.38 0 1 1 -4.37 -4.37 4.38 4.38 0 0 1 4.37 4.37z"/>
<path class="cls-8" d="M320.69,323a4.38,4.38,0,1,1-4.38-4.37A4.37,4.37,0,0,1,320.69,323Z"/>
<path class="cls-8" d="m104.59 158.4a4.38 4.38 0 1 1 -4.38 -4.37 4.38 4.38 0 0 1 4.38 4.37z"/>
<path class="cls-8" d="m146.19 206.64a4.38 4.38 0 1 1 -4.37 -4.37 4.37 4.37 0 0 1 4.37 4.37z"/>
<path class="cls-8" d="m277.29 276.59a4.38 4.38 0 1 1 -4.38 -4.37 4.37 4.37 0 0 1 4.38 4.37z"/>
<path class="cls-8" d="m244.48 255.4a4.37 4.37 0 1 1 -4.37 -4.38 4.37 4.37 0 0 1 4.37 4.38z"/>
<path class="cls-8" d="M301,246.82a4.38,4.38,0,1,1-4.38-4.38A4.38,4.38,0,0,1,301,246.82Z"/>
<path class="cls-8" d="m229.84 201.46a4.38 4.38 0 1 1 -4.37 -4.37 4.37 4.37 0 0 1 4.37 4.37z"/>
<path class="cls-8" d="m308.19 191.22a4.38 4.38 0 1 1 -4.38 -4.37 4.38 4.38 0 0 1 4.38 4.37z"/>
<path class="cls-8" d="m367.62 251.86a4.37 4.37 0 1 1 -4.37 -4.37 4.38 4.38 0 0 1 4.37 4.37z"/>
<path class="cls-8" d="m395.38 236.72a4.38 4.38 0 1 1 -4.38 -4.37 4.38 4.38 0 0 1 4.38 4.37z"/>
<path class="cls-8" d="m401.94 196.86a4.38 4.38 0 1 1 -4.37 -4.38 4.37 4.37 0 0 1 4.37 4.38z"/>
<path class="cls-8" d="m362.24 173.85a4.37 4.37 0 1 1 -4.37 -4.37 4.37 4.37 0 0 1 4.37 4.37z"/>
<path class="cls-8" d="m328.24 182.7a4.38 4.38 0 1 1 -4.37 -4.37 4.37 4.37 0 0 1 4.37 4.37z"/>
<path class="cls-8" d="m325.23 220.57a4.38 4.38 0 1 1 -4.37 -4.37 4.38 4.38 0 0 1 4.37 4.37z"/>
<path class="cls-8" d="M334.82,209a4.38,4.38,0,1,1-4.37-4.38A4.37,4.37,0,0,1,334.82,209Z"/>
<path class="cls-8" d="m325.23 238.24a4.38 4.38 0 1 1 -4.37 -4.37 4.37 4.37 0 0 1 4.37 4.37z"/>
<path class="cls-8" d="m280.79 338.54a2.92 2.92 0 1 1 -2.91 -2.92 2.91 2.91 0 0 1 2.91 2.92z"/>
<path class="cls-8" d="m311.15 382.57a2.92 2.92 0 1 1 -2.91 -2.91 2.91 2.91 0 0 1 2.91 2.91z"/>
<path class="cls-8" d="m333.86 341.19a2.92 2.92 0 1 1 -2.91 -2.92 2.91 2.91 0 0 1 2.91 2.92z"/>
<path class="cls-8" d="m345.47 182.22a2.92 2.92 0 1 1 -2.91 -2.92 2.91 2.91 0 0 1 2.91 2.92z"/>
<path class="cls-8" d="m389.88 186.76a2.92 2.92 0 1 1 -2.91 -2.91 2.91 2.91 0 0 1 2.91 2.91z"/>
<path class="cls-8" d="m385.34 251.36a2.92 2.92 0 1 1 -2.91 -2.92 2.91 2.91 0 0 1 2.91 2.92z"/>
<path class="cls-8" d="m411.4 225.92a2.92 2.92 0 1 1 -2.92 -2.91 2.92 2.92 0 0 1 2.92 2.91z"/>
<path class="cls-8" d="m338.89 142a2.91 2.91 0 1 1 -1 4 2.9 2.9 0 0 1 1 -4z"/>
<path class="cls-8" d="m328.15 159.28a2.92 2.92 0 1 1 -2.91 -2.91 2.91 2.91 0 0 1 2.91 2.91z"/>
<path class="cls-8" d="M260.1,217a2.92,2.92,0,1,1-2.91-2.92A2.91,2.91,0,0,1,260.1,217Z"/>
<path class="cls-8" d="m251.84 233.49a2.92 2.92 0 1 1 -2.91 -2.91 2.91 2.91 0 0 1 2.91 2.91z"/>
<path class="cls-8" d="m292.09 214.52a2.92 2.92 0 1 1 -2.91 -2.92 2.91 2.91 0 0 1 2.91 2.92z"/>
<path class="cls-8" d="m308.24 226.63a2.92 2.92 0 1 1 -2.91 -2.92 2.92 2.92 0 0 1 2.91 2.92z"/>
<path class="cls-8" d="M306.73,212a2.92,2.92,0,1,1-2.92-2.92A2.92,2.92,0,0,1,306.73,212Z"/>
<path class="cls-8" d="M270.84,181a1.52,1.52,0,1,1-1.51-1.51A1.51,1.51,0,0,1,270.84,181Z"/>
<path class="cls-8" d="m278.67 182.34a1.52 1.52 0 1 1 -1.52 -1.52 1.52 1.52 0 0 1 1.52 1.52z"/>
<path class="cls-8" d="m269.32 251.49a1.51 1.51 0 1 1 -1.51 -1.51 1.51 1.51 0 0 1 1.51 1.51z"/>
<path class="cls-8" d="m278.35 230.67a2.92 2.92 0 1 1 -2.91 -2.92 2.91 2.91 0 0 1 2.91 2.92z"/>
<path class="cls-8" d="m386.35 436.07a2.92 2.92 0 1 1 -2.91 -2.92 2.91 2.91 0 0 1 2.91 2.92z"/>
<path class="cls-8" d="m450.13 422.63a2.92 2.92 0 1 1 -2.92 -2.92 2.91 2.91 0 0 1 2.92 2.92z"/>
<path class="cls-8" d="m336.2 468.66a2.92 2.92 0 1 1 -2.92 -2.92 2.91 2.91 0 0 1 2.92 2.92z"/>
<path class="cls-8" d="m408.67 418.4a1.52 1.52 0 1 1 -1.52 -1.51 1.52 1.52 0 0 1 1.52 1.51z"/>
<path class="cls-8" d="M391.68,424a1.52,1.52,0,1,1-1.52-1.51A1.51,1.51,0,0,1,391.68,424Z"/>
<path class="cls-8" d="m367.45 435.45a1.51 1.51 0 1 1 -1.51 -1.52 1.5 1.5 0 0 1 1.51 1.52z"/>
<path class="cls-8" d="M348,404.27a2.92,2.92,0,1,1-2.92-2.91A2.92,2.92,0,0,1,348,404.27Z"/>
<path class="cls-8" d="m378.28 401.75a2.92 2.92 0 1 1 -2.92 -2.92 2.92 2.92 0 0 1 2.92 2.92z"/>
<path class="cls-8" d="m352.75 508.05a2.92 2.92 0 1 1 -2.91 -2.91 2.91 2.91 0 0 1 2.91 2.91z"/>
<path class="cls-8" d="M354.05,532a2.92,2.92,0,1,1-2.91-2.91A2.91,2.91,0,0,1,354.05,532Z"/>
<path class="cls-8" d="m377.27 455.75a2.92 2.92 0 1 1 -2.92 -2.92 2.91 2.91 0 0 1 2.92 2.92z"/>
<path class="cls-8" d="m281.49 362.44a2.91 2.91 0 1 1 -2.91 -2.92 2.91 2.91 0 0 1 2.91 2.92z"/>
<path class="cls-8" d="M245,295.77a2.92,2.92,0,1,1-2.91-2.92A2.91,2.91,0,0,1,245,295.77Z"/>
<path class="cls-8" d="m246.05 242.28a2.92 2.92 0 1 1 -2.91 -2.92 2.91 2.91 0 0 1 2.91 2.92z"/>
<path class="cls-8" d="m292.56 300.92a2.92 2.92 0 1 1 -2.91 -2.92 2.91 2.91 0 0 1 2.91 2.92z"/>
<path class="cls-8" d="m322.66 334.29a2.92 2.92 0 1 1 -2.92 -2.91 2.92 2.92 0 0 1 2.92 2.91z"/>
<path class="cls-8" d="m350.54 343.85a2.92 2.92 0 1 1 -2.91 -2.92 2.91 2.91 0 0 1 2.91 2.92z"/>
<path class="cls-8" d="m368.24 348.27a2.92 2.92 0 1 1 -2.91 -2.91 2.91 2.91 0 0 1 2.91 2.91z"/>
<path class="cls-8" d="M347,391.15a2.92,2.92,0,1,1-2.92-2.91A2.92,2.92,0,0,1,347,391.15Z"/>
<path class="cls-8" d="m249.63 193.36a2.92 2.92 0 1 1 -2.92 -2.91 2.92 2.92 0 0 1 2.92 2.91z"/>
<path class="cls-8" d="m223.59 173.85a2.92 2.92 0 1 1 -2.91 -2.92 2.91 2.91 0 0 1 2.91 2.92z"/>
<path class="cls-8" d="m203.16 157.51a2.92 2.92 0 1 1 -2.92 -2.91 2.92 2.92 0 0 1 2.92 2.91z"/>
<path class="cls-8" d="m355.57 242.28a2.92 2.92 0 1 1 -2.92 -2.92 2.92 2.92 0 0 1 2.92 2.92z"/>
<path class="cls-8" d="m323.77 291.23a2.92 2.92 0 1 1 -2.91 -2.92 2.91 2.91 0 0 1 2.91 2.92z"/>
<path class="cls-8" d="m306.61 262a2.92 2.92 0 1 1 -2.91 -3 2.91 2.91 0 0 1 2.91 3z"/>
<path class="cls-8" d="m287.94 262.57a2.92 2.92 0 1 1 -2.92 -2.91 2.92 2.92 0 0 1 2.92 2.91z"/>
<path class="cls-8" d="m161.77 242.28a2.92 2.92 0 1 1 -2.91 -2.92 2.91 2.91 0 0 1 2.91 2.92z"/>
<path class="cls-8" d="m335.83 241.43a1.52 1.52 0 1 1 -1.52 -1.51 1.52 1.52 0 0 1 1.52 1.51z"/>
<path class="cls-8" d="m230.86 266.67a1.52 1.52 0 1 1 -1.52 -1.52 1.52 1.52 0 0 1 1.52 1.52z"/>
<path class="cls-8" d="m261.14 281.3a1.52 1.52 0 1 1 -1.52 -1.51 1.52 1.52 0 0 1 1.52 1.51z"/>
<path class="cls-8" d="m313.29 249.34a1.52 1.52 0 1 1 -1.52 -1.51 1.51 1.51 0 0 1 1.52 1.51z"/>
<path class="cls-8" d="m342.83 193.36a1.51 1.51 0 1 1 -1.51 -1.51 1.5 1.5 0 0 1 1.51 1.51z"/>
<path class="cls-8" d="M334,230.16a1.52,1.52,0,1,1-1.52-1.51A1.52,1.52,0,0,1,334,230.16Z"/>
<path class="cls-8" d="m300.17 236.72a1.52 1.52 0 1 1 -1.52 -1.51 1.52 1.52 0 0 1 1.52 1.51z"/>
<path class="cls-8" d="m290.58 227.14a1.52 1.52 0 1 1 -1.52 -1.52 1.52 1.52 0 0 1 1.52 1.52z"/>
<path class="cls-8" d="M292,236.74a1.51,1.51,0,1,1-1.51-1.52A1.5,1.5,0,0,1,292,236.74Z"/>
<path class="cls-8" d="m312.78 200.89a1.52 1.52 0 1 1 -1.51 -1.51 1.52 1.52 0 0 1 1.51 1.51z"/>
<path class="cls-8" d="m318.33 255.06a1.52 1.52 0 1 1 -1.51 -1.51 1.51 1.51 0 0 1 1.51 1.51z"/>
<path class="cls-8" d="m148.37 158.38a4.38 4.38 0 1 1 -4.37 -4.38 4.38 4.38 0 0 1 4.37 4.38z"/>
<path class="cls-8" d="m229.49 140.86a4.38 4.38 0 1 1 -4.38 -4.37 4.37 4.37 0 0 1 4.38 4.37z"/>
<path class="cls-8" d="M127,158.25a4.38,4.38,0,1,1-4.37-4.37A4.37,4.37,0,0,1,127,158.25Z"/>
<path class="cls-8" d="m19.9 163.86a4.37 4.37 0 1 1 -4.37 -4.37 4.37 4.37 0 0 1 4.37 4.37z"/>
<path class="cls-8" d="M134.24,110a4.38,4.38,0,1,1-4.38-4.38A4.38,4.38,0,0,1,134.24,110Z"/>
<path class="cls-8" d="m164.43 78.29a4.37 4.37 0 1 1 -4.37 -4.37 4.37 4.37 0 0 1 4.37 4.37z"/>
<path class="cls-8" d="m204.84 115.53a4.37 4.37 0 1 1 -4.37 -4.37 4.37 4.37 0 0 1 4.37 4.37z"/>
<path class="cls-8" d="m217.24 128.18a4.38 4.38 0 1 1 -4.38 -4.38 4.38 4.38 0 0 1 4.38 4.38z"/>
<path class="cls-8" d="M151,115.54a2.92,2.92,0,1,1-2.92-2.92A2.91,2.91,0,0,1,151,115.54Z"/>
<path class="cls-8" d="m130.26 126.64a2.92 2.92 0 1 1 -2.92 -2.92 2.92 2.92 0 0 1 2.92 2.92z"/>
<path class="cls-8" d="M173.77,113a2.92,2.92,0,1,1-2.92-2.91A2.92,2.92,0,0,1,173.77,113Z"/>
<path class="cls-8" d="m189.62 118.05a2.92 2.92 0 1 1 -2.91 -2.92 2.91 2.91 0 0 1 2.91 2.92z"/>
<path class="cls-8" d="m180.43 98.65a2.92 2.92 0 1 1 -2.91 -2.92 2.91 2.91 0 0 1 2.91 2.92z"/>
<path class="cls-8" d="M163,104.44a1.52,1.52,0,1,1-1.51-1.52A1.51,1.51,0,0,1,163,104.44Z"/>
<path class="cls-8" d="m162.83 136.73a1.51 1.51 0 1 1 -1.51 -1.51 1.51 1.51 0 0 1 1.51 1.51z"/>
<path class="cls-8" d="M160,129.16a2.92,2.92,0,1,1-2.91-2.91A2.91,2.91,0,0,1,160,129.16Z"/>
<path class="cls-8" d="M122,113.7a2.92,2.92,0,1,1-2.91-2.92A2.91,2.91,0,0,1,122,113.7Z"/>
<path class="cls-8" d="M198,183.92a2.92,2.92,0,1,1-2.91-2.92A2.91,2.91,0,0,1,198,183.92Z"/>
<path class="cls-8" d="m188.29 160.45a2.92 2.92 0 1 1 -2.91 -2.91 2.91 2.91 0 0 1 2.91 2.91z"/>
<path class="cls-8" d="m168.73 156.94a2.92 2.92 0 1 1 -2.91 -2.92 2.91 2.91 0 0 1 2.91 2.92z"/>
<path class="cls-8" d="m112.54 165.17a1.52 1.52 0 1 1 -1.52 -1.52 1.52 1.52 0 0 1 1.52 1.52z"/>
<path class="cls-8" d="m238.38 147.33a1.52 1.52 0 1 1 -1.51 -1.51 1.51 1.51 0 0 1 1.51 1.51z"/>
<path class="cls-8" d="m181.84 135.22a1.51 1.51 0 1 1 -1.51 -1.51 1.5 1.5 0 0 1 1.51 1.51z"/>
<path class="cls-8" d="m172.25 125.63a1.51 1.51 0 1 1 -1.51 -1.51 1.5 1.5 0 0 1 1.51 1.51z"/>
<path class="cls-8" d="M144,126.64a1.51,1.51,0,1,1-1.51-1.51A1.5,1.5,0,0,1,144,126.64Z"/>
<path class="cls-8" d="m194.46 99.39a1.52 1.52 0 1 1 -1.46 -1.52 1.51 1.51 0 0 1 1.46 1.52z"/>
<path class="cls-8" d="m194.42 131.4a1.52 1.52 0 1 1 -1.52 -1.52 1.52 1.52 0 0 1 1.52 1.52z"/>
<path class="cls-8" d="m369.3 479a2 2 0 1 1 -2 -2 2 2 0 0 1 2 2z"/>
<path class="cls-8" d="m381.92 487a2 2 0 1 1 -2 -2 2 2 0 0 1 2 2z"/>
<path class="cls-8" d="m355.68 515.8a2 2 0 1 1 -2 -2 2 2 0 0 1 2 2z"/>
<path class="cls-8" d="m344.33 550.54a2 2 0 1 1 -2 -2 2 2 0 0 1 2 2z"/>
<path class="cls-8" d="m353.15 540.53a2 2 0 1 1 -2 -2 2 2 0 0 1 2 2z"/>
<path class="cls-8" d="m367.46 559.92a4.33 4.33 0 1 1 -4.33 -4.33 4.33 4.33 0 0 1 4.33 4.33z"/>
<path class="cls-8" d="m369.39 600.29a4.33 4.33 0 1 1 -4.33 -4.33 4.33 4.33 0 0 1 4.33 4.33z"/>
<path class="cls-8" d="m341.87 581.52a3 3 0 1 1 -3 -3 3 3 0 0 1 3 3z"/>
<path class="cls-8" d="m345.66 627.9a3 3 0 1 1 -3 -3 3 3 0 0 1 3 3z"/>
<path class="cls-8" d="m362.47 625.34a3 3 0 1 1 -3 -3 3 3 0 0 1 3 3z"/>
<path class="cls-8" d="m429.31 509.82a2 2 0 1 1 -2 -2 2 2 0 0 1 2 2z"/>
<path class="cls-8" d="m367.29 415.38a2 2 0 1 1 -2 -2 2 2 0 0 1 2 2z"/>
<path class="cls-8" d="m365.27 447.68a2 2 0 1 1 -2 -2 2 2 0 0 1 2 2z"/>
<path class="cls-8" d="m433.91 452.28a7.06 7.06 0 1 1 -7.06 -7.06 7.07 7.07 0 0 1 7.06 7.06z"/>
<path class="cls-8" d="M465,470.28a4.38,4.38,0,1,1-4.38-4.37A4.38,4.38,0,0,1,465,470.28Z"/>
<path class="cls-8" d="M420,479.36a4.37,4.37,0,1,1-4.37-4.37A4.37,4.37,0,0,1,420,479.36Z"/>
<path class="cls-8" d="M360,580.19a4.37,4.37,0,1,1-4.37-4.37A4.37,4.37,0,0,1,360,580.19Z"/>
<path class="cls-8" d="m405.77 464.52a2.92 2.92 0 1 1 -2.91 -2.92 2.91 2.91 0 0 1 2.91 2.92z"/>
<path class="cls-8" d="m385.64 517.35a4.38 4.38 0 1 1 -4.37 -4.37 4.38 4.38 0 0 1 4.37 4.37z"/>
<path class="cls-8" d="m372.18 530a2 2 0 1 1 -2 -2 2 2 0 0 1 2 2z"/>
<path class="cls-8" d="m410.3 522.29a4.37 4.37 0 1 1 -4.37 -4.37 4.37 4.37 0 0 1 4.37 4.37z"/>
<path class="cls-8" d="m389.05 548.77a2.92 2.92 0 1 1 -2.92 -2.92 2.91 2.91 0 0 1 2.92 2.92z"/>
<path class="cls-8" d="m422.33 503.91a2.92 2.92 0 1 1 -2.91 -2.92 2.91 2.91 0 0 1 2.91 2.92z"/>
<path class="cls-8" d="m446.85 451.61a2.92 2.92 0 1 1 -2.92 -2.92 2.91 2.91 0 0 1 2.92 2.92z"/>
<path class="cls-8" d="m438.88 474.82a2 2 0 1 1 -2 -2 2 2 0 0 1 2 2z"/>
<path class="cls-8" d="m451.5 482.9a2 2 0 1 1 -2 -2 2 2 0 0 1 2 2z"/>
<path class="cls-8" d="m425.77 417.76a2 2 0 1 1 -2 -2 2 2 0 0 1 2 2z"/>
<path class="cls-8" d="m385.94 412a2 2 0 1 1 -2 -2 2 2 0 0 1 2 2z"/>
<path class="cls-8" d="m288.05 288.2a2 2 0 1 1 -2 -2 2 2 0 0 1 2 2z"/>
<path class="cls-8" d="m397.45 215.64a2.92 2.92 0 1 1 -2.91 -2.92 2.91 2.91 0 0 1 2.91 2.92z"/>
<path class="cls-8" d="m358.51 229.66a2.92 2.92 0 1 1 -2.92 -2.92 2.91 2.91 0 0 1 2.92 2.92z"/>
<path class="cls-8" d="m383.83 207.45a2.92 2.92 0 1 1 -2.92 -2.91 2.92 2.92 0 0 1 2.92 2.91z"/>
<path class="cls-8" d="m372.72 214.63a2.92 2.92 0 1 1 -2.91 -2.91 2.91 2.91 0 0 1 2.91 2.91z"/>
<path class="cls-8" d="m381.42 231.17a2.92 2.92 0 1 1 -2.92 -2.91 2.92 2.92 0 0 1 2.92 2.91z"/>
<path class="cls-8" d="m369.3 187.27a2.92 2.92 0 1 1 -2.91 -2.92 2.91 2.91 0 0 1 2.91 2.92z"/>
<path class="cls-8" d="m375.32 170.79a2 2 0 1 1 -2 -2 2 2 0 0 1 2 2z"/>
<path class="cls-8" d="m432 101.67a7.06 7.06 0 1 1 -7 -7.06 7.07 7.07 0 0 1 7 7.06z"/>
<path class="cls-8" d="m460.12 139.44a4.37 4.37 0 1 1 -4.37 -4.37 4.37 4.37 0 0 1 4.37 4.37z"/>
<path class="cls-8" d="m449.82 160.6a4.38 4.38 0 1 1 -4.38 -4.38 4.38 4.38 0 0 1 4.38 4.38z"/>
<path class="cls-8" d="m522.18 96.53a4.38 4.38 0 1 1 -4.38 -4.37 4.38 4.38 0 0 1 4.38 4.37z"/>
<path class="cls-8" d="m442.94 34.28a4.37 4.37 0 1 1 -4.37 -4.37 4.38 4.38 0 0 1 4.37 4.37z"/>
<path class="cls-8" d="m376.21 26.69a2.92 2.92 0 1 1 -2.91 -2.92 2.91 2.91 0 0 1 2.91 2.92z"/>
<path class="cls-8" d="m424.31 151.17a2.92 2.92 0 1 1 -2.92 -2.92 2.91 2.91 0 0 1 2.92 2.92z"/>
<path class="cls-8" d="m503.9 113.5a2.92 2.92 0 1 1 -2.91 -2.91 2.92 2.92 0 0 1 2.91 2.91z"/>
<path class="cls-8" d="m443.34 127.27a2.92 2.92 0 1 1 -2.92 -2.92 2.91 2.91 0 0 1 2.92 2.92z"/>
<path class="cls-8" d="M490,103.22a2.92,2.92,0,1,1-2.91-2.91A2.91,2.91,0,0,1,490,103.22Z"/>
<path class="cls-8" d="m450.38 111.48a2.92 2.92 0 1 1 -2.91 -2.91 2.91 2.91 0 0 1 2.91 2.91z"/>
<path class="cls-8" d="M476.33,95a2.92,2.92,0,1,1-2.92-2.91A2.92,2.92,0,0,1,476.33,95Z"/>
<path class="cls-8" d="m466.7 99.56a2.92 2.92 0 1 1 -2.91 -2.92 2.91 2.91 0 0 1 2.91 2.92z"/>
<path class="cls-8" d="m473.92 118.75a2.92 2.92 0 1 1 -2.92 -2.91 2.92 2.92 0 0 1 2.92 2.91z"/>
<path class="cls-8" d="m467.41 74.26a2.92 2.92 0 1 1 -2.91 -2.92 2.91 2.91 0 0 1 2.91 2.92z"/>
<path class="cls-8" d="m489.06 61.77a2 2 0 1 1 -2 -2 2 2 0 0 1 2 2z"/>
<path class="cls-8" d="m208.45 47.31a4.38 4.38 0 1 1 -4.37 -4.38 4.37 4.37 0 0 1 4.37 4.38z"/>
<path class="cls-8" d="m273.82 58.16a2.92 2.92 0 1 1 -2.92 -2.92 2.91 2.91 0 0 1 2.92 2.92z"/>
<path class="cls-8" d="m248.08 110.64a2.92 2.92 0 1 1 -2.92 -2.91 2.92 2.92 0 0 1 2.92 2.91z"/>
<path class="cls-8" d="m259.69 121.75a2.92 2.92 0 1 1 -2.92 -2.92 2.92 2.92 0 0 1 2.92 2.92z"/>
<path class="cls-8" d="m254.14 62.2a2.92 2.92 0 1 1 -2.92 -2.92 2.92 2.92 0 0 1 2.92 2.92z"/>
<path class="cls-8" d="m257.16 94.49a2.92 2.92 0 1 1 -2.91 -2.91 2.91 2.91 0 0 1 2.91 2.91z"/>
<path class="cls-8" d="m238.1 88.44a1.52 1.52 0 1 1 -1.51 -1.52 1.52 1.52 0 0 1 1.51 1.52z"/>
<path class="cls-8" d="m263.72 79.86a2.92 2.92 0 1 1 -2.91 -2.92 2.91 2.91 0 0 1 2.91 2.92z"/>
<path class="cls-8" d="M237,76.83a2.92,2.92,0,1,1-2.92-2.92A2.91,2.91,0,0,1,237,76.83Z"/>
<path class="cls-8" d="M244,99a2.92,2.92,0,1,1-2.91-2.91A2.91,2.91,0,0,1,244,99Z"/>
<path class="cls-8" d="m256.27 50.59a2.92 2.92 0 1 1 -2.92 -2.92 2.91 2.91 0 0 1 2.92 2.92z"/>
<path class="cls-8" d="m266.88 134.35a2 2 0 1 1 -2 -2 2 2 0 0 1 2 2z"/>
<path class="cls-8" d="m247.11 137.3a2 2 0 1 1 -2 -2 2 2 0 0 1 2 2z"/>
<path class="cls-8" d="m104.59 111.63a4.38 4.38 0 1 1 -4.38 -4.37 4.38 4.38 0 0 1 4.38 4.37z"/>
<path class="cls-8" d="m159.9 116.79a2.92 2.92 0 1 1 -2.91 -2.92 2.91 2.91 0 0 1 2.91 2.92z"/>
<path class="cls-8" d="m118.77 180.38a2.92 2.92 0 1 1 -2.92 -2.92 2.91 2.91 0 0 1 2.92 2.92z"/>
<path class="cls-8" d="M126,188.34a2.92,2.92,0,1,1-2.91-2.92A2.91,2.91,0,0,1,126,188.34Z"/>
<path class="cls-8" d="m140.22 120.82a2.92 2.92 0 1 1 -2.91 -2.91 2.91 2.91 0 0 1 2.91 2.91z"/>
<path class="cls-8" d="m245.06 128.74a2.92 2.92 0 1 1 -2.92 -2.91 2.92 2.92 0 0 1 2.92 2.91z"/>
<path class="cls-8" d="m36.22 172.12a1.52 1.52 0 1 1 -1.51 -1.52 1.52 1.52 0 0 1 1.51 1.52z"/>
<path class="cls-8" d="m52.38 173.59a2.92 2.92 0 1 1 -2.92 -2.91 2.92 2.92 0 0 1 2.92 2.91z"/>
<path class="cls-8" d="m84.25 164.74a2.92 2.92 0 1 1 -2.92 -2.92 2.92 2.92 0 0 1 2.92 2.92z"/>
<path class="cls-8" d="M110.54,173a2.92,2.92,0,1,1-2.91-2.91A2.91,2.91,0,0,1,110.54,173Z"/>
<path class="cls-8" d="m142.35 109.22a2.92 2.92 0 1 1 -2.91 -2.92 2.91 2.91 0 0 1 2.91 2.92z"/>
<path class="cls-8" d="m129.08 203.1a2 2 0 1 1 -2 -2 2 2 0 0 1 2 2z"/>
<path class="cls-8" d="m135.57 194.84a2 2 0 1 1 -2 -2 2 2 0 0 1 2 2z"/>
<path class="cls-8" d="m264.81 165.58a4.38 4.38 0 1 1 -4.37 -4.37 4.38 4.38 0 0 1 4.37 4.37z"/>
<path class="cls-8" d="m18.5 127.69a2.83 2.83 0 1 1 -2.82 -2.82 2.82 2.82 0 0 1 2.82 2.82z"/>
<path class="cls-8" d="m51.91 161.79a2.83 2.83 0 1 1 -2.83 -2.79 2.83 2.83 0 0 1 2.83 2.79z"/>
<path class="cls-8" d="m30.73 148.11a2.83 2.83 0 1 1 -2.82 -2.83 2.82 2.82 0 0 1 2.82 2.83z"/>
<path class="cls-8" d="m46.86 103.32a2.83 2.83 0 1 1 -2.86 -2.82 2.83 2.83 0 0 1 2.86 2.82z"/>
<path class="cls-8" d="M21,110.75a2.83,2.83,0,1,1-2.82-2.83A2.83,2.83,0,0,1,21,110.75Z"/>
<path class="cls-8" d="m74.71 107.06a2.83 2.83 0 1 1 -2.82 -2.83 2.82 2.82 0 0 1 2.82 2.83z"/>
<path class="cls-8" d="m100.82 131.57a2.82 2.82 0 1 1 -2.82 -2.83 2.82 2.82 0 0 1 2.82 2.83z"/>
<path class="cls-8" d="m91.7 151.32a2.83 2.83 0 1 1 -2.83 -2.83 2.83 2.83 0 0 1 2.83 2.83z"/>
<path class="cls-8" d="M36,117.72a1.88,1.88,0,1,1-1.88-1.89A1.88,1.88,0,0,1,36,117.72Z"/>
<path class="cls-8" d="m33.37 130.51a1.88 1.88 0 1 1 -1.88 -1.88 1.89 1.89 0 0 1 1.88 1.88z"/>
<path class="cls-8" d="M62.85,104A1.88,1.88,0,1,1,61,102.08,1.88,1.88,0,0,1,62.85,104Z"/>
<path class="cls-8" d="M14.57,142a1.88,1.88,0,1,1-1.88-1.88A1.88,1.88,0,0,1,14.57,142Z"/>
<path class="cls-8" d="m92.76 108.09a1.88 1.88 0 1 1 -1.88 -1.88 1.88 1.88 0 0 1 1.88 1.88z"/>
<path class="cls-8" d="m54 104a1 1 0 1 1 -1 -1 1 1 0 0 1 1 1z"/>
<path class="cls-8" d="m54.4 137a1 1 0 1 1 -1 -1 1 1 0 0 1 1 1z"/>
<path class="cls-8" d="m65.51 136.71a1.89 1.89 0 1 1 -1.88 -1.88 1.88 1.88 0 0 1 1.88 1.88z"/>
<path class="cls-8" d="m31.74 139.64a1.88 1.88 0 1 1 -1.88 -1.89 1.88 1.88 0 0 1 1.88 1.89z"/>
<path class="cls-8" d="M32.87,104A1.89,1.89,0,1,1,31,102.08,1.88,1.88,0,0,1,32.87,104Z"/>
<path class="cls-8" d="m70.84 152.34a1.89 1.89 0 1 1 -1.84 -1.88 1.88 1.88 0 0 1 1.84 1.88z"/>
<path class="cls-8" d="m35.82 162.09a1.89 1.89 0 1 1 -1.88 -1.89 1.89 1.89 0 0 1 1.88 1.89z"/>
<path class="cls-8" d="m21.93 155.38a1 1 0 1 1 -1 -1 1 1 0 0 1 1 1z"/>
<path class="cls-8" d="M75.14,144.2a1,1,0,0,1-2,0,1,1,0,1,1,2,0Z"/>
<path class="cls-8" d="m98.83 119.21a1 1 0 1 1 -1 -1 1 1 0 0 1 1 1z"/>
<path class="cls-8" d="m52.8 129.63a1 1 0 1 1 -1 -1 1 1 0 0 1 1 1z"/>
<path class="cls-8" d="m42.24 130.51a1 1 0 1 1 -1 -1 1 1 0 0 1 1 1z"/>
<path class="cls-8" d="m82.9 109.18a1 1 0 1 1 -1 -1 1 1 0 0 1 1 1z"/>
<path class="cls-8" d="M78.4,147.89a1,1,0,0,1-2,0,1,1,0,1,1,2,0Z"/>
<path class="cls-8" d="m313.6 89.34a4.37 4.37 0 1 1 -4.37 -4.34 4.37 4.37 0 0 1 4.37 4.34z"/>
<path class="cls-8" d="m329.22 87.75a4.38 4.38 0 1 1 -4.37 -4.37 4.37 4.37 0 0 1 4.37 4.37z"/>
<path class="cls-8" d="m291.4 79.24a4.38 4.38 0 1 1 -4.4 -4.37 4.37 4.37 0 0 1 4.4 4.37z"/>
<path class="cls-8" d="M325,13.23a4.38,4.38,0,1,1-4.37-4.38A4.37,4.37,0,0,1,325,13.23Z"/>
<path class="cls-8" d="m299.47 35.34a4.37 4.37 0 1 1 -4.37 -4.34 4.37 4.37 0 0 1 4.37 4.34z"/>
<path class="cls-8" d="m359.53 15.65a4.38 4.38 0 1 1 -4.37 -4.37 4.38 4.38 0 0 1 4.37 4.37z"/>
<path class="cls-8" d="m372.14 44.42a4.37 4.37 0 1 1 -4.37 -4.37 4.36 4.36 0 0 1 4.37 4.37z"/>
<path class="cls-8" d="m372.14 62.08a4.37 4.37 0 1 1 -4.37 -4.37 4.37 4.37 0 0 1 4.37 4.37z"/>
<path class="cls-8" d="m316.18 40.89a2.92 2.92 0 1 1 -2.91 -2.89 2.91 2.91 0 0 1 2.91 2.89z"/>
<path class="cls-8" d="M295.49,52a2.92,2.92,0,1,1-2.91-2.92A2.91,2.91,0,0,1,295.49,52Z"/>
<path class="cls-8" d="M339,38.36a2.92,2.92,0,1,1-2.92-2.91A2.92,2.92,0,0,1,339,38.36Z"/>
<path class="cls-8" d="m355.15 50.48a2.92 2.92 0 1 1 -2.91 -2.92 2.91 2.91 0 0 1 2.91 2.92z"/>
<path class="cls-8" d="m353.64 35.84a2.92 2.92 0 1 1 -2.91 -2.92 2.91 2.91 0 0 1 2.91 2.92z"/>
<path class="cls-8" d="m328.24 29.79a1.52 1.52 0 1 1 -1.51 -1.52 1.52 1.52 0 0 1 1.51 1.52z"/>
<path class="cls-8" d="m311.08 72.09a1.52 1.52 0 1 1 -1.52 -1.51 1.52 1.52 0 0 1 1.52 1.51z"/>
<path class="cls-8" d="m325.27 54.51a2.92 2.92 0 1 1 -2.92 -2.91 2.92 2.92 0 0 1 2.92 2.91z"/>
<path class="cls-8" d="M293,66.12a2.92,2.92,0,1,1-2.92-2.91A2.92,2.92,0,0,1,293,66.12Z"/>
<path class="cls-8" d="m296.54 17.21a2.92 2.92 0 1 1 -2.91 -2.92 2.91 2.91 0 0 1 2.91 2.92z"/>
<path class="cls-8" d="m334.16 115.28a2.92 2.92 0 1 1 -2.91 -2.91 2.91 2.91 0 0 1 2.91 2.91z"/>
<path class="cls-8" d="m316.9 62.8a2.92 2.92 0 1 1 -2.9 -2.92 2.91 2.91 0 0 1 2.9 2.92z"/>
<path class="cls-8" d="m277.77 90.52a1.52 1.52 0 1 1 -1.51 -1.52 1.52 1.52 0 0 1 1.51 1.52z"/>
<path class="cls-8" d="m272.13 34.73a1.52 1.52 0 1 1 -1.52 -1.52 1.51 1.51 0 0 1 1.52 1.52z"/>
<path class="cls-8" d="m199.91 60.67a4.37 4.37 0 1 1 -4.37 -4.37 4.36 4.36 0 0 1 4.37 4.37z"/>
<path class="cls-8" d="m242.84 49.6a2.92 2.92 0 1 1 -2.92 -2.92 2.91 2.91 0 0 1 2.92 2.92z"/>
<path class="cls-8" d="m215.33 107.1a2.92 2.92 0 1 1 -2.92 -2.91 2.92 2.92 0 0 1 2.92 2.91z"/>
<path class="cls-8" d="m221.38 58.65a2.92 2.92 0 1 1 -2.91 -2.91 2.91 2.91 0 0 1 2.91 2.91z"/>
<path class="cls-8" d="m224.41 91a2.92 2.92 0 1 1 -2.91 -3 2.91 2.91 0 0 1 2.91 3z"/>
<path class="cls-8" d="m205.35 84.9a1.52 1.52 0 1 1 -1.52 -1.52 1.52 1.52 0 0 1 1.52 1.52z"/>
<path class="cls-8" d="M231,64.51a2.92,2.92,0,1,1-2.91-2.91A2.91,2.91,0,0,1,231,64.51Z"/>
<path class="cls-8" d="m204.23 73.29a2.92 2.92 0 1 1 -2.92 -2.92 2.91 2.91 0 0 1 2.92 2.92z"/>
<path class="cls-8" d="m211.29 95.49a2.92 2.92 0 1 1 -2.91 -2.91 2.91 2.91 0 0 1 2.91 2.91z"/>
<path class="cls-8" d="M225,45a2.92,2.92,0,1,1-2.91-2.92A2.92,2.92,0,0,1,225,45Z"/>
<path class="cls-8" d="m247.49 37.57a1.52 1.52 0 1 1 -1.49 -1.52 1.51 1.51 0 0 1 1.49 1.52z"/>
<path class="cls-8" d="m186.57 81.34a2.92 2.92 0 1 1 -2.92 -2.92 2.91 2.91 0 0 1 2.92 2.92z"/>
<path class="cls-8" d="M169.41,96a2.92,2.92,0,1,1-2.92-2.92A2.92,2.92,0,0,1,169.41,96Z"/>
<path class="cls-8" d="m188.7 69.73a2.92 2.92 0 1 1 -2.92 -2.91 2.92 2.92 0 0 1 2.92 2.91z"/>
<path class="cls-8" d="m175.27 68.75a2.92 2.92 0 1 1 -2.92 -2.92 2.91 2.91 0 0 1 2.92 2.92z"/>
<path class="cls-8" d="m153.82 77.8a2.92 2.92 0 1 1 -2.92 -2.92 2.91 2.91 0 0 1 2.92 2.92z"/>
<path class="cls-8" d="m155.06 92.45a2.92 2.92 0 1 1 -2.91 -2.92 2.91 2.91 0 0 1 2.91 2.92z"/>
<path class="cls-8" d="m164.5 62.06a2.92 2.92 0 1 1 -2.91 -2.92 2.91 2.91 0 0 1 2.91 2.92z"/>
<path class="cls-8" d="m304.89 124.75a2.92 2.92 0 1 1 -2.92 -2.92 2.91 2.91 0 0 1 2.92 2.92z"/>
<path class="cls-8" d="m287.73 139.38a2.92 2.92 0 1 1 -2.92 -2.91 2.92 2.92 0 0 1 2.92 2.91z"/>
<path class="cls-8" d="M307,109a2.92,2.92,0,1,1-2.92-2.92A2.92,2.92,0,0,1,307,109Z"/>
<path class="cls-8" d="m293.59 112.15a2.92 2.92 0 1 1 -2.92 -2.91 2.92 2.92 0 0 1 2.92 2.91z"/>
<path class="cls-8" d="m272.13 121.21a2.92 2.92 0 1 1 -2.91 -2.92 2.91 2.91 0 0 1 2.91 2.92z"/>
<path class="cls-8" d="m281.72 127.07a2.92 2.92 0 1 1 -2.91 -2.92 2.91 2.91 0 0 1 2.91 2.92z"/>
<path class="cls-8" d="m275.74 107.53a2.92 2.92 0 1 1 -2.91 -2.91 2.91 2.91 0 0 1 2.91 2.91z"/>
<path class="cls-8" d="m298.24 100.12a1.52 1.52 0 1 1 -1.51 -1.51 1.52 1.52 0 0 1 1.51 1.51z"/>
<path class="cls-8" d="m179.92 56.72a1.52 1.52 0 1 1 -1.51 -1.52 1.52 1.52 0 0 1 1.51 1.52z"/>
<path class="cls-8" d="m338.33 27.83a1.52 1.52 0 1 1 -1.51 -1.51 1.51 1.51 0 0 1 1.51 1.51z"/>
<path class="cls-8" d="M337.49,51A1.52,1.52,0,1,1,336,49.47,1.51,1.51,0,0,1,337.49,51Z"/>
<path class="cls-8" d="M309.23,52a1.52,1.52,0,1,1-1.51-1.52A1.51,1.51,0,0,1,309.23,52Z"/>
<path class="cls-8" d="m359.7 24.74a1.52 1.52 0 1 1 -1.52 -1.52 1.51 1.51 0 0 1 1.52 1.52z"/>
<path class="cls-8" d="M445,23.55A1.52,1.52,0,1,1,443.48,22,1.51,1.51,0,0,1,445,23.55Z"/>
<path class="cls-8" d="m392.59 45.65a7.07 7.07 0 1 1 -7.06 -7.07 7.06 7.06 0 0 1 7.06 7.07z"/>
<path class="cls-8" d="m413.14 124.43a4.37 4.37 0 1 1 -4.37 -4.37 4.37 4.37 0 0 1 4.37 4.37z"/>
<path class="cls-8" d="m428.51 82.3a4.38 4.38 0 1 1 -4.37 -4.38 4.37 4.37 0 0 1 4.37 4.38z"/>
<path class="cls-8" d="m454.25 52.16a4.38 4.38 0 1 1 -4.38 -4.37 4.38 4.38 0 0 1 4.38 4.37z"/>
<path class="cls-8" d="m395.37 19.42a4.37 4.37 0 1 1 -4.37 -4.37 4.36 4.36 0 0 1 4.37 4.37z"/>
<path class="cls-8" d="M423,32.33a2.92,2.92,0,1,1-2.91-2.91A2.91,2.91,0,0,1,423,32.33Z"/>
<path class="cls-8" d="m406.08 94.86a2.92 2.92 0 1 1 -2.92 -2.86 2.92 2.92 0 0 1 2.92 2.86z"/>
<path class="cls-8" d="m435.68 54.67a2.92 2.92 0 1 1 -2.92 -2.91 2.92 2.92 0 0 1 2.92 2.91z"/>
<path class="cls-8" d="M352.85,110a2.92,2.92,0,1,1-2.92-2.92A2.91,2.91,0,0,1,352.85,110Z"/>
<path class="cls-8" d="m434.19 70.32a2.92 2.92 0 1 1 -2.91 -2.91 2.91 2.91 0 0 1 2.91 2.91z"/>
<path class="cls-8" d="m398.52 76.52a2.92 2.92 0 1 1 -2.91 -2.92 2.91 2.91 0 0 1 2.91 2.92z"/>
<path class="cls-8" d="m422.27 47.42a2.92 2.92 0 1 1 -2.92 -2.92 2.91 2.91 0 0 1 2.92 2.92z"/>
<path class="cls-8" d="m409.4 54.89a2.92 2.92 0 1 1 -2.92 -2.89 2.92 2.92 0 0 1 2.92 2.89z"/>
<path class="cls-8" d="m414.55 76.74a2.92 2.92 0 1 1 -2.92 -2.91 2.92 2.92 0 0 1 2.92 2.91z"/>
<path class="cls-8" d="m402.43 32.84a2.92 2.92 0 1 1 -2.91 -2.92 2.91 2.91 0 0 1 2.91 2.92z"/>
<path class="cls-8" d="m408.45 16.36a2 2 0 1 1 -2 -2 2 2 0 0 1 2 2z"/>
<path class="cls-8" d="m550.54 20.65a4.37 4.37 0 1 1 -5.91 -1.83 4.37 4.37 0 0 1 5.91 1.83z"/>
<path class="cls-8" d="M498.88,2.33A4.38,4.38,0,1,1,493,.51,4.37,4.37,0,0,1,498.88,2.33Z"/>
<path class="cls-8" d="M502,16.49a4.38,4.38,0,1,1-5.91-1.82A4.38,4.38,0,0,1,502,16.49Z"/>
<path class="cls-8" d="m453.18 4.08a4.37 4.37 0 1 1 -5.91 -1.83 4.36 4.36 0 0 1 5.91 1.83z"/>
<path class="cls-8" d="m486.6 13.2a2.92 2.92 0 1 1 -3.94 -1.2 2.92 2.92 0 0 1 3.94 1.2z"/>
<path class="cls-8" d="M340,10.09a2.91,2.91,0,1,1-3.94-1.21A2.91,2.91,0,0,1,340,10.09Z"/>
<path class="cls-8" d="m523.78 20.75a2.92 2.92 0 1 1 -3.94 -1.22 2.91 2.91 0 0 1 3.94 1.22z"/>
<path class="cls-8" d="m497.24 83.63a2.92 2.92 0 1 1 -3.94 -1.22 2.92 2.92 0 0 1 3.94 1.22z"/>
<path class="cls-8" d="m536.59 59.69a2.92 2.92 0 1 1 -4 -1.22 2.92 2.92 0 0 1 4 1.22z"/>
<path class="cls-8" d="m530.24 81.72a2.92 2.92 0 1 1 -3.94 -1.22 2.92 2.92 0 0 1 3.94 1.22z"/>
<path class="cls-8" d="m486.49 45.54a2.92 2.92 0 1 1 -3.94 -1.22 2.92 2.92 0 0 1 3.94 1.22z"/>
<path class="cls-8" d="m503.49 31.49a2.92 2.92 0 1 1 -3.94 -1.22 2.9 2.9 0 0 1 3.94 1.22z"/>
<path class="cls-8" d="m531.52 26.47a2.92 2.92 0 1 1 -3.94 -1.22 2.91 2.91 0 0 1 3.94 1.22z"/>
<path class="cls-8" d="m483.56 33.76a2.91 2.91 0 1 1 -3.94 -1.21 2.92 2.92 0 0 1 3.94 1.21z"/>
<path class="cls-8" d="m433.85 11.42a2.91 2.91 0 1 1 -3.94 -1.21 2.91 2.91 0 0 1 3.94 1.21z"/>
<path class="cls-8" d="m534.44 38.6a2.91 2.91 0 1 1 -3.94 -1.21 2.91 2.91 0 0 1 3.94 1.21z"/>
<path class="cls-8" d="M474.23,2.94a2,2,0,1,1-2.73-.85A2,2,0,0,1,474.23,2.94Z"/>
<path class="cls-8" d="m366.92 140.84a2.92 2.92 0 1 1 -2.92 -2.92 2.92 2.92 0 0 1 2.92 2.92z"/>
<path class="cls-8" d="M355,151.48a2.92,2.92,0,1,1-2.91-2.92A2.91,2.91,0,0,1,355,151.48Z"/>
<path class="cls-8" d="M374,124.58a2.92,2.92,0,1,1-2.92-2.92A2.91,2.91,0,0,1,374,124.58Z"/>
<path class="cls-8" d="m360.86 124.25a2.92 2.92 0 1 1 -2.91 -2.91 2.91 2.91 0 0 1 2.91 2.91z"/>
<path class="cls-8" d="m339.41 133.31a2.92 2.92 0 1 1 -2.91 -2.92 2.91 2.91 0 0 1 2.91 2.92z"/>
<path class="cls-8" d="M349,139.17a2.92,2.92,0,1,1-2.92-2.92A2.92,2.92,0,0,1,349,139.17Z"/>
<path class="cls-8" d="M343,119.63a2.92,2.92,0,1,1-2.92-2.91A2.92,2.92,0,0,1,343,119.63Z"/>
<path class="cls-8" d="m362.23 154.41a1.52 1.52 0 1 1 -1.51 -1.51 1.52 1.52 0 0 1 1.51 1.51z"/>
<path class="cls-8" d="m364.2 112.65a2.92 2.92 0 1 1 -2.92 -2.92 2.92 2.92 0 0 1 2.92 2.92z"/>
<path class="cls-8" d="M347,127.29a2.92,2.92,0,1,1-2.92-2.92A2.91,2.91,0,0,1,347,127.29Z"/>
<path class="cls-8" d="m383.15 129.92a2.92 2.92 0 1 1 -2.92 -2.91 2.92 2.92 0 0 1 2.92 2.91z"/>
<path class="cls-8" d="m352.89 100.06a2.92 2.92 0 1 1 -2.89 -2.92 2.91 2.91 0 0 1 2.89 2.92z"/>
<path class="cls-8" d="M325.25,110a2.92,2.92,0,1,1-2.92-2.92A2.91,2.91,0,0,1,325.25,110Z"/>
<path class="cls-8" d="m316.17 109.27a2.92 2.92 0 1 1 -2.92 -2.92 2.92 2.92 0 0 1 2.92 2.92z"/>
<path class="cls-8" d="m335.05 95.44a2.92 2.92 0 1 1 -2.92 -2.92 2.91 2.91 0 0 1 2.92 2.92z"/>
<path class="cls-8" d="m340.73 97.76a1.52 1.52 0 1 1 -1.51 -1.51 1.52 1.52 0 0 1 1.51 1.51z"/>
<path class="cls-8" d="m310.1 150.5a1.46 1.46 0 1 1 -1.46 -1.46 1.46 1.46 0 0 1 1.46 1.46z"/>
<path class="cls-8" d="m301.52 157.82a1.46 1.46 0 1 1 -1.46 -1.46 1.46 1.46 0 0 1 1.46 1.46z"/>
<path class="cls-8" d="m311.17 144.69a1.46 1.46 0 1 1 -1.46 -1.45 1.46 1.46 0 0 1 1.46 1.45z"/>
<path class="cls-8" d="m304.45 144.2a1.46 1.46 0 1 1 -1.46 -1.46 1.46 1.46 0 0 1 1.46 1.46z"/>
<path class="cls-8" d="m293.72 148.73a1.46 1.46 0 1 1 -1.46 -1.46 1.46 1.46 0 0 1 1.46 1.46z"/>
<path class="cls-8" d="m298.51 151.66a1.46 1.46 0 1 1 -1.46 -1.46 1.46 1.46 0 0 1 1.46 1.46z"/>
<path class="cls-8" d="m295.52 141.89a1.46 1.46 0 1 1 -1.46 -1.46 1.46 1.46 0 0 1 1.46 1.46z"/>
<path class="cls-8" d="M306.78,138.18a.76.76,0,1,1-.76-.76A.76.76,0,0,1,306.78,138.18Z"/>
<path class="cls-8" d="m284.4 204.28a2.13 2.13 0 1 1 -2.13 -2.13 2.13 2.13 0 0 1 2.13 2.13z"/>
<path class="cls-8" d="m273.18 223.76a2.13 2.13 0 1 1 -2.12 -2.13 2.12 2.12 0 0 1 2.12 2.13z"/>
<path class="cls-8" d="m297.67 195.43a2.13 2.13 0 1 1 -2.12 -2.13 2.13 2.13 0 0 1 2.12 2.13z"/>
<path class="cls-8" d="m281.68 193.07a2.13 2.13 0 1 1 -2.13 -2.13 2.12 2.12 0 0 1 2.13 2.13z"/>
<path class="cls-8" d="m259.39 188.64a2.13 2.13 0 1 1 -2.12 -2.13 2.12 2.12 0 0 1 2.12 2.13z"/>
<path class="cls-8" d="m265.22 204.58a2.13 2.13 0 1 1 -2.13 -2.13 2.13 2.13 0 0 1 2.13 2.13z"/>
<path class="cls-8" d="m272.59 193.07a2.13 2.13 0 1 1 -2.12 -2.13 2.13 2.13 0 0 1 2.12 2.13z"/>
<path class="cls-8" d="m283.46 185.94a1.11 1.11 0 1 1 -1.1 -1.1 1.11 1.11 0 0 1 1.1 1.1z"/>
</g>
</g>
</svg>
