<svg xmlns="http://www.w3.org/2000/svg" viewBox="0 0 164.18 42.15"><defs><style>.cls-1{fill:#81cb60;}.cls-2{fill:#004a98;}</style></defs><title>Asset 7</title><g id="Layer_2" data-name="Layer 2"><g id="Layer_1-2" data-name="Layer 1"><path class="cls-1" d="M161.46,20.87a2.73,2.73,0,1,0,2.72,2.72A2.72,2.72,0,0,0,161.46,20.87Z"/><path class="cls-2" d="M4.41,10.32,4.08,8.26H0V26.07H4.41V16.68c0-3.29,2.13-4.52,4.44-4.52A4.42,4.42,0,0,1,12,13.32l2-3.83a6.71,6.71,0,0,0-4.58-1.7A5.25,5.25,0,0,0,4.41,10.32Z"/><path class="cls-2" d="M29.65,10.72A6.54,6.54,0,0,0,24,7.83c-5.2,0-9.28,3.18-9.28,9.32s3.9,9.5,9.17,9.46c2,0,4.77-1.05,5.78-3.14l.22,2.6H34V8.26H29.8ZM24.38,22.56a5.1,5.1,0,0,1-5.28-5.41,5.07,5.07,0,0,1,5.28-5.38C31.31,11.77,31.31,22.56,24.38,22.56Z"/><polygon class="cls-2" points="38.73 10.16 38.73 13.41 38.73 26.54 43.14 26.54 43.14 13.41 43.14 10.16 43.14 8.28 38.73 8.28 38.73 10.16"/><polygon class="cls-2" points="92.28 11.16 92.28 13.41 92.28 26.54 96.68 26.54 96.68 13.41 96.68 11.16 96.68 8.28 92.28 8.28 92.28 11.16"/><path class="cls-2" d="M108.06,15.12c-2.27-.14-3.32-.79-3.32-1.95S105.9,11.4,108,11.4A6,6,0,0,1,112.4,13l2.45-2.89a9.56,9.56,0,0,0-6.93-2.34c-3.25,0-7.51,1.44-7.51,5.56s4,5.27,7.37,5.52c2.52.15,3.53.65,3.53,1.88s-1.55,2.17-3.21,2.13A9.71,9.71,0,0,1,102,20.36L99.79,23.5c2.6,2.71,5.42,3.18,8.24,3.18,5.09,0,7.65-2.71,7.65-5.85C115.68,16.1,111.42,15.34,108.06,15.12Z"/><path class="cls-2" d="M148.39,8a8,8,0,0,0-5.85,2.68l-.29-2.42h-3.93V26.07h4.37V17a4.69,4.69,0,0,1,4.55-5c2.81,0,4.29,2.06,4.29,4.77v9.32h4.41V16.71C155.94,11.12,152.58,8,148.39,8Z"/><path class="cls-2" d="M48,7v5.11h0v14.4h4.41V12.08h5.15V8.41H52.43V7c0-2.17,1.15-3.18,2.67-3.18a5,5,0,0,1,2.71.94l1.8-3.08A9.45,9.45,0,0,0,54.81,0C51.23,0,48,2.2,48,7Z"/><path class="cls-2" d="M65.13,7.51V7c0-2.17,1.16-3.18,2.68-3.18a4.9,4.9,0,0,1,2.7.94l1.81-3.08A9.45,9.45,0,0,0,67.52,0c-3.58,0-6.79,2.2-6.79,7V26.48h4.4V12.08h5.21V8.41H65.13v-.9Z"/><circle class="cls-2" cx="138.89" cy="34" r="0.73"/><path class="cls-2" d="M40.94,1.37a2.43,2.43,0,1,0,2.43,2.42A2.42,2.42,0,0,0,40.94,1.37Z"/><path class="cls-2" d="M94.48,1.37a2.43,2.43,0,1,0,2.43,2.42A2.42,2.42,0,0,0,94.48,1.37Z"/><path class="cls-2" d="M86.4,20.87c-1,1.1-3.84,2.13-6.65,1.43a4.8,4.8,0,0,1-.93-.39L89.06,11.66A8,8,0,0,0,86.5,9a10.77,10.77,0,0,0-11.24.53c-1.22.87-3.48,3-3.48,7.49A9.16,9.16,0,0,0,81,26.61a11.1,11.1,0,0,0,8.23-3ZM76.5,19a6.23,6.23,0,0,1-.28-1.88,5.07,5.07,0,0,1,5.28-5.38,5.54,5.54,0,0,1,1.93.32Z"/><path class="cls-2" d="M132.33,20.87c-1,1.1-3.84,2.13-6.65,1.43a5.17,5.17,0,0,1-.94-.39L135,11.66A8.15,8.15,0,0,0,132.43,9a10.77,10.77,0,0,0-11.24.53A8.71,8.71,0,0,0,117.7,17a9.17,9.17,0,0,0,9.22,9.57,11.1,11.1,0,0,0,8.23-3ZM122.42,19a6.57,6.57,0,0,1-.27-1.88,5.07,5.07,0,0,1,5.27-5.38,5.6,5.6,0,0,1,1.94.32Z"/><rect class="cls-2" x="122.55" y="32.25" width="1.36" height="9.78"/><path class="cls-2" d="M131,36.78a2.7,2.7,0,0,0-2.5-1.48,3.43,3.43,0,0,0,0,6.85,2.68,2.68,0,0,0,2.5-1.5L131,42h1.29V35.43H131Zm-2.28,4.08a2.14,2.14,0,1,1,0-4.27,2.14,2.14,0,1,1,0,4.27Z"/><polygon class="cls-2" points="135.85 33.47 134.49 33.47 134.49 35.43 133.51 35.43 133.51 36.72 134.49 36.72 134.49 42.02 135.85 42.02 135.85 36.72 137.26 36.72 137.26 35.43 135.85 35.43 135.85 33.47"/><rect class="cls-2" x="138.3" y="35.43" width="1.36" height="6.6"/><path class="cls-2" d="M145.15,35.3a3.46,3.46,0,0,0-2.54,1.18l-.07-1h-1.28V42h1.36V38.58a2,2,0,0,1,2-2c1,0,1.59.57,1.59,2.16V42h1.35V38.15C147.57,36.31,146.7,35.3,145.15,35.3Z"/><path class="cls-2" d="M154.45,36.78A2.69,2.69,0,0,0,152,35.3a3.43,3.43,0,0,0,0,6.85,2.67,2.67,0,0,0,2.5-1.5l.08,1.37h1.29V35.43h-1.29Zm-2.28,4.08a2.14,2.14,0,1,1,2.14-2.14A2.12,2.12,0,0,1,152.17,40.86Z"/></g></g></svg>