<svg xmlns="http://www.w3.org/2000/svg" viewBox="0 0 98.5 41.85"><defs><style>.cls-1,.cls-2{fill:#fff;}.cls-1{fill-rule:evenodd;}</style></defs><title>1. DGRV</title><g id="Layer_2" data-name="Layer 2"><g id="Layer_1-2" data-name="Layer 1"><path class="cls-1" d="M0,25.66H10.72c3.28,0,5.78-.32,7.56-1.43a8.88,8.88,0,0,0,4.06-7.87c0-5.7-3.63-9.09-10.51-9.09H0ZM4.28,22.2V10.55h7.59c4,0,6.05,2,6.05,5.74,0,4.56-2.71,5.91-8.12,5.91Z"/><path class="cls-2" d="M42.21,10.55v2.07l4.17-.75v-.43c0-3.31-1.22-4.17-4.56-4.17H29.13c-3.46,0-4.56.9-4.56,4.35v9.69c0,3.46,1.1,4.35,4.56,4.35H41.82c3.45,0,4.56-.89,4.56-4.35V15H35.22v3.14h7V22.2H28.85V10.55Z"/><path class="cls-1" d="M49.73,25.66h4.2V18.71H58l7.41,7h6.13l-8.48-6.95h2.42c2.82,0,4.13-1,4.13-3.56V10.84c0-2.57-1.31-3.57-4.13-3.57H49.73ZM63.56,10.44c1.31,0,1.92.25,1.92,1.47v2.2c0,1.22-.61,1.47-1.92,1.47H53.93V10.44Z"/><polygon class="cls-2" points="93.84 0 98.5 0 96.25 4.09 91.66 4.09 93.84 0"/><polygon class="cls-2" points="88.3 10.39 92.78 10.39 90.53 14.48 86.11 14.48 88.3 10.39"/><polygon class="cls-2" points="91.07 5.2 95.64 5.2 93.39 9.29 88.89 9.29 91.07 5.2"/><polygon class="cls-2" points="83 20.32 85.52 15.59 89.93 15.58 84.32 25.78 81.22 25.78 70.47 7.16 75.62 7.16 83 20.32"/><path class="cls-2" d="M0,35.62H1.81a3,3,0,0,1,3.26,3c0,2-1.24,3.11-3.26,3.11H0ZM.88,41H1.8a2.06,2.06,0,0,0,2.34-2.31A2.13,2.13,0,0,0,1.9,36.39h-1Z"/><path class="cls-2" d="M7.38,36.27H6.45v-.93h.93Zm-.88,1h.83v4.47H6.5Z"/><path class="cls-2" d="M12.35,41.56a3.44,3.44,0,0,1-1.41.29,2.14,2.14,0,0,1-2.32-2.42,2.09,2.09,0,0,1,2.1-2.27c1.49,0,2,1.09,2,2.53H9.5A1.46,1.46,0,0,0,11,41.18a2.6,2.6,0,0,0,1.38-.45Zm-.53-2.48a1.13,1.13,0,0,0-1.12-1.25,1.24,1.24,0,0,0-1.2,1.25Z"/><path class="cls-2" d="M21.14,36.71a2.81,2.81,0,0,0-1.68-.42,2.4,2.4,0,0,0-.05,4.79,3.68,3.68,0,0,0,1-.11V39.11H19.11v-.72h2.16v3.19a5.65,5.65,0,0,1-1.86.27,3.17,3.17,0,1,1,0-6.34,4.7,4.7,0,0,1,1.8.31Z"/><path class="cls-2" d="M26.26,41.56a3.44,3.44,0,0,1-1.41.29,2.14,2.14,0,0,1-2.31-2.42,2.08,2.08,0,0,1,2.09-2.27c1.49,0,2,1.09,2,2.53h-3.2a1.47,1.47,0,0,0,1.48,1.49,2.59,2.59,0,0,0,1.37-.45Zm-.53-2.48a1.13,1.13,0,0,0-1.11-1.25,1.25,1.25,0,0,0-1.21,1.25Z"/><path class="cls-2" d="M27.8,37.27h.8V38h0a1.6,1.6,0,0,1,1.46-.82c1.16,0,1.68.72,1.68,1.92v2.66h-.83V39.43c0-1-.23-1.56-.95-1.6-.93,0-1.35.75-1.35,1.84v2.07H27.8Z"/><path class="cls-2" d="M35.23,37.16a2.21,2.21,0,0,1,2.27,2.35,2.28,2.28,0,1,1-4.55,0,2.21,2.21,0,0,1,2.28-2.35m0,4a1.49,1.49,0,0,0,1.39-1.67,1.42,1.42,0,1,0-2.79,0,1.5,1.5,0,0,0,1.4,1.67"/><path class="cls-2" d="M38.36,40.87a2.21,2.21,0,0,0,1,.31c.38,0,.84-.16.84-.64,0-.81-1.94-.74-1.94-2,0-.93.69-1.38,1.58-1.38a3.37,3.37,0,0,1,1,.18l-.07.72a2.35,2.35,0,0,0-.87-.23c-.42,0-.79.18-.79.55,0,.91,1.94.64,1.94,2.07a1.41,1.41,0,0,1-1.56,1.4,2.59,2.59,0,0,1-1.23-.25Z"/><path class="cls-2" d="M41.86,40.87a2.21,2.21,0,0,0,1,.31c.38,0,.84-.16.84-.64,0-.81-1.94-.74-1.94-2,0-.93.69-1.38,1.58-1.38a3.37,3.37,0,0,1,1,.18l-.07.72a2.35,2.35,0,0,0-.87-.23c-.42,0-.79.18-.79.55,0,.91,1.94.64,1.94,2.07a1.41,1.41,0,0,1-1.56,1.4,2.59,2.59,0,0,1-1.23-.25Z"/><path class="cls-2" d="M49.13,41.56a3.54,3.54,0,0,1-1.42.29,2.14,2.14,0,0,1-2.31-2.42,2.08,2.08,0,0,1,2.09-2.27c1.5,0,2,1.09,2,2.53H46.28a1.46,1.46,0,0,0,1.47,1.49,2.66,2.66,0,0,0,1.38-.45Zm-.54-2.48a1.13,1.13,0,0,0-1.11-1.25,1.24,1.24,0,0,0-1.2,1.25Z"/><path class="cls-2" d="M50.66,37.27h.8V38h0a1.6,1.6,0,0,1,1.46-.82c1.16,0,1.68.72,1.68,1.92v2.66h-.83V39.43c0-1-.23-1.56-.94-1.6-.94,0-1.36.75-1.36,1.84v2.07h-.83Z"/><path class="cls-2" d="M55.78,40.87a2.15,2.15,0,0,0,1,.31c.38,0,.84-.16.84-.64,0-.81-1.93-.74-1.93-2,0-.93.69-1.38,1.57-1.38a3.31,3.31,0,0,1,1,.18l-.07.72a2.3,2.3,0,0,0-.87-.23c-.42,0-.79.18-.79.55,0,.91,1.94.64,1.94,2.07A1.41,1.41,0,0,1,57,41.85a2.61,2.61,0,0,1-1.23-.25Z"/><path class="cls-2" d="M62.45,38a2.38,2.38,0,0,0-.89-.19,1.53,1.53,0,0,0-1.44,1.68,1.51,1.51,0,0,0,1.49,1.67,1.82,1.82,0,0,0,.89-.25l.06.73a2.53,2.53,0,0,1-1,.19,2.26,2.26,0,0,1-2.28-2.34,2.21,2.21,0,0,1,2.28-2.35,3,3,0,0,1,1,.18Z"/><path class="cls-2" d="M63.59,35.16h.83v2.75h0a1.66,1.66,0,0,1,1.44-.75c1.16,0,1.68.72,1.68,1.93v2.65h-.83V39.43c0-1-.22-1.56-.94-1.6-.94,0-1.36.76-1.36,1.84v2.07h-.83Z"/><path class="cls-2" d="M69.25,37.59a2.79,2.79,0,0,1,1.47-.43c1.28,0,1.8.64,1.8,1.86v1.85a6,6,0,0,0,0,.87h-.77v-.58h0a1.65,1.65,0,0,1-1.39.69c-1,0-1.64-.42-1.64-1.4S70,39,70.82,39c.33,0,.55,0,.88,0,0-.77-.28-1.17-1.11-1.17a2.14,2.14,0,0,0-1.3.46Zm2.45,2-.53,0c-.45,0-1.55.07-1.55.86a.78.78,0,0,0,.83.73A1.13,1.13,0,0,0,71.7,40Z"/><path class="cls-2" d="M74.54,37.94H73.49v-.67h1.05v-.41c0-1.09.28-1.8,1.5-1.8a3,3,0,0,1,.55,0l0,.67a1.2,1.2,0,0,0-.4-.06c-.71,0-.8.46-.8,1.07v.48h1.19v.67H75.36v3.8h-.82Z"/><path class="cls-2" d="M79.88,37.94H78.7v2.44a.71.71,0,0,0,.69.8A1,1,0,0,0,80,41v.71a2.67,2.67,0,0,1-.7.12,1.2,1.2,0,0,1-1.38-1.3V37.94h-1v-.67h1v-1L78.7,36v1.3h1.18Z"/><path class="cls-2" d="M84.43,41.56a3.44,3.44,0,0,1-1.41.29,2.14,2.14,0,0,1-2.31-2.42,2.08,2.08,0,0,1,2.09-2.27c1.5,0,2,1.09,2,2.53h-3.2a1.47,1.47,0,0,0,1.48,1.49,2.59,2.59,0,0,0,1.37-.45Zm-.53-2.48a1.13,1.13,0,0,0-1.11-1.25,1.25,1.25,0,0,0-1.21,1.25Z"/><path class="cls-2" d="M86,37.27h.8V38h0a1.6,1.6,0,0,1,1.46-.82c1.16,0,1.68.72,1.68,1.92v2.66H89.1V39.43c0-1-.23-1.56-.95-1.6-.93,0-1.35.75-1.35,1.84v2.07H86Z"/></g></g></svg>