<svg xmlns="http://www.w3.org/2000/svg" viewBox="0 0 22.62 22.62"><defs><style>.cls-1{fill:#fff;}</style></defs><title>Asset 9</title><g id="Layer_2" data-name="Layer 2"><g id="Layer_1-2" data-name="Layer 1"><path class="cls-1" d="M11.31,0A11.31,11.31,0,1,0,22.62,11.31,11.31,11.31,0,0,0,11.31,0Zm7.53,17.72A10.85,10.85,0,0,0,16.38,16a21.1,21.1,0,0,0,.47-4h4.32A9.77,9.77,0,0,1,18.84,17.72ZM1.44,12H5.77a22,22,0,0,0,.46,4,11,11,0,0,0-2.45,1.74A9.85,9.85,0,0,1,1.44,12ZM3.78,4.9A11.36,11.36,0,0,0,6.23,6.64a22,22,0,0,0-.46,4H1.44A9.85,9.85,0,0,1,3.78,4.9Zm11,.93a9.65,9.65,0,0,1-6.82,0c.78-2.74,2.13-4.42,3.39-4.42s2.6,1.68,3.41,4.42Zm-.27-3.89a10,10,0,0,1,3.38,2A10,10,0,0,1,16,5.22a11.46,11.46,0,0,0-1.57-3.29ZM7.18,10.6a20.34,20.34,0,0,1,.38-3.39,11,11,0,0,0,7.5,0,21.45,21.45,0,0,1,.38,3.39ZM15.44,12a21.33,21.33,0,0,1-.38,3.38,11.1,11.1,0,0,0-7.5,0A20.22,20.22,0,0,1,7.18,12ZM6.6,5.23A10.49,10.49,0,0,1,4.77,3.89a10,10,0,0,1,3.4-2A11.31,11.31,0,0,0,6.6,5.23Zm0,12.16a11.26,11.26,0,0,0,1.57,3.3,10,10,0,0,1-3.4-2A9.56,9.56,0,0,1,6.6,17.39Zm1.3-.6a9.65,9.65,0,0,1,6.82,0c-.81,2.74-2.15,4.41-3.41,4.41S8.7,19.53,7.9,16.79Zm8.13.6a9.81,9.81,0,0,1,1.82,1.34,10,10,0,0,1-3.4,2A11.26,11.26,0,0,0,16,17.39Zm.82-6.79a21.1,21.1,0,0,0-.47-4A11.18,11.18,0,0,0,18.84,4.9a9.77,9.77,0,0,1,2.33,5.7Z"/></g></g></svg>