<svg xmlns="http://www.w3.org/2000/svg" viewBox="0 0 18.09 23.61"><defs><style>.cls-1{fill:#fff;}</style></defs><title>Asset 8</title><g id="Layer_2" data-name="Layer 2"><g id="Layer_1-2" data-name="Layer 1"><path class="cls-1" d="M17.47,17.15l-2-2.74a3.26,3.26,0,0,0-2.61-1.31,3.22,3.22,0,0,0-1.84.57c-.3.2-.52.35-.67.47a5.61,5.61,0,0,1-1.77-2A5.46,5.46,0,0,1,7.7,9.64l.75-.35A3.22,3.22,0,0,0,10,5.09L8.67,2a3.26,3.26,0,0,0-3-2,3.85,3.85,0,0,0-.48,0A8.65,8.65,0,0,0,2.46.94C0,2.39-.1,5.54.05,7.31a21.06,21.06,0,0,0,2.8,8.12c2.86,5,6.84,8.18,10.09,8.18A4.57,4.57,0,0,0,15.18,23a9,9,0,0,0,2.16-1.92A3.2,3.2,0,0,0,17.47,17.15Zm-1.59,2.76a7,7,0,0,1-1.62,1.44,2.42,2.42,0,0,1-1.27.32c-2.43,0-5.89-2.88-8.4-7.21C1.61,9.29,1.11,4,3.48,2.63A6.46,6.46,0,0,1,5.54,2l.2,0a1.27,1.27,0,0,1,1.19.79L8.25,5.84A1.29,1.29,0,0,1,7.6,7.53c-.65.32-1.09.52-1.22.6-1,.57-.79,2.8.48,5,1.06,1.84,2.5,3,3.55,3A1.47,1.47,0,0,0,11,16l1.11-.75a1.34,1.34,0,0,1,.75-.22,1.26,1.26,0,0,1,1,.52l2,2.73A1.32,1.32,0,0,1,15.88,19.91Z"/></g></g></svg>