<svg xmlns="http://www.w3.org/2000/svg" viewBox="0 0 380 97.8"><defs><style>.cls-1{fill:#81cb60;}.cls-2{fill:#fff;}</style></defs><title>Asset 1</title><g id="Layer_2" data-name="Layer 2"><g id="Layer_1-2" data-name="Layer 1"><path class="cls-1" d="M373.69,48.43A6.32,6.32,0,1,0,380,54.74,6.32,6.32,0,0,0,373.69,48.43Z"/><path class="cls-2" d="M10.22,24l-.75-4.78H0V60.48H10.22V38.69c0-7.62,4.95-10.47,10.31-10.47a10.24,10.24,0,0,1,7.38,2.68L32.52,22a15.71,15.71,0,0,0-10.65-3.94C17.68,18.08,13.41,18.83,10.22,24Z"/><path class="cls-2" d="M68.8,24.87c-2.35-4.11-7.63-6.71-13.16-6.71C43.57,18.08,34.1,25.54,34.1,39.79c0,14.49,9,22,21.29,22,4.61-.08,11.06-2.43,13.41-7.29l.5,6h9.64V19.17H69.13ZM56.56,52.35c-6.79,0-12.23-4.69-12.23-12.56S49.77,27.3,56.56,27.3C72.65,27.3,72.65,52.35,56.56,52.35Z"/><polygon class="cls-2" points="89.87 23.58 89.87 31.11 89.87 61.57 100.1 61.57 100.1 31.11 100.1 23.58 100.1 19.21 89.87 19.21 89.87 23.58"/><polygon class="cls-2" points="213.17 25.89 213.17 31.11 213.17 61.57 223.39 61.57 223.39 31.11 223.39 25.89 223.39 19.21 213.17 19.21 213.17 25.89"/><path class="cls-2" d="M249.8,35.09c-5.28-.33-7.71-1.84-7.71-4.52s2.68-4.11,7.54-4.11c3.94,0,7.29.92,10.22,3.69l5.7-6.71c-4.78-4.19-9.64-5.45-16.09-5.45C241.92,18,232,21.35,232,30.9c0,9.39,9.3,12.24,17.1,12.82,5.86.34,8.21,1.51,8.21,4.36,0,3-3.61,5-7.46,4.94-4.61-.08-11.31-2.51-14.25-5.78l-5,7.29c6,6.29,12.57,7.38,19.1,7.38,11.82,0,17.77-6.29,17.77-13.58C267.48,37.35,257.59,35.59,249.8,35.09Z"/><path class="cls-2" d="M343.36,18.5c-5.19,0-9.38,2.09-13.57,6.2l-.67-5.61H320V60.48h10.14V39.37c0-6.29,4.28-11.57,10.56-11.57,6.54,0,10,4.78,10,11.06V60.48h10.22V38.78C360.88,25.79,353.09,18.5,343.36,18.5Z"/><path class="cls-2" d="M111.41,16.17V28l0,.05h0V61.44h10.23V28h12V19.51h-12V16.17c0-5,2.68-7.37,6.2-7.37A11.35,11.35,0,0,1,134.12,11l4.2-7.16C135,1.64,130.77,0,127.17,0,118.87,0,111.41,5.11,111.41,16.17Z"/><path class="cls-2" d="M151.12,17.42V16.17c0-5,2.68-7.37,6.2-7.37A11.36,11.36,0,0,1,163.61,11l4.19-7.16C164.45,1.64,160.26,0,156.65,0c-8.29,0-15.75,5.11-15.75,16.17V61.44h10.22V28h12.09V19.51H151.12V17.42Z"/><rect class="cls-2" x="283.43" y="74.96" width="3.13" height="22.54"/><path class="cls-2" d="M302.81,85.42A6.24,6.24,0,0,0,297,82a7.91,7.91,0,0,0,0,15.81,6.2,6.2,0,0,0,5.77-3.45L303,97.5h3V82.29h-3Zm-5.26,9.41a4.93,4.93,0,1,1,0-9.86,4.93,4.93,0,1,1,0,9.86Z"/><polygon class="cls-2" points="314.11 77.79 310.95 77.79 310.95 82.29 308.7 82.29 308.7 85.27 310.95 85.27 310.95 97.5 314.11 97.5 314.11 85.27 317.36 85.27 317.36 82.29 314.11 82.29 314.11 77.79"/><path class="cls-2" d="M321.32,77.2A1.69,1.69,0,1,0,323,78.89,1.69,1.69,0,0,0,321.32,77.2Z"/><rect class="cls-2" x="319.76" y="82.29" width="3.13" height="15.21"/><path class="cls-2" d="M335.54,82a8,8,0,0,0-5.86,2.74l-.15-2.44h-2.95V97.5h3.13V89.57a4.61,4.61,0,0,1,4.62-4.6c2.2,0,3.67,1.32,3.67,5V97.5h3.13V88.58C341.13,84.34,339.11,82,335.54,82Z"/><path class="cls-2" d="M357,85.42A6.23,6.23,0,0,0,351.22,82a7.91,7.91,0,0,0,0,15.81A6.19,6.19,0,0,0,357,94.35l.18,3.15h3V82.29h-3Zm-5.25,9.41a4.93,4.93,0,1,1,4.92-4.93A4.92,4.92,0,0,1,351.74,94.83Z"/><path class="cls-2" d="M95,3.17a5.63,5.63,0,1,0,5.63,5.63A5.63,5.63,0,0,0,95,3.17Z"/><path class="cls-2" d="M218.28,3.17a5.63,5.63,0,1,0,5.63,5.63A5.63,5.63,0,0,0,218.28,3.17Z"/><path class="cls-2" d="M200.47,48.42c-2.28,2.55-8.9,4.94-15.43,3.33a12.3,12.3,0,0,1-2.17-.92l23.77-23.77a18.63,18.63,0,0,0-5.94-6.12c-4.3-2.73-16.14-5.89-26.07,1.22-2.84,2-8.1,7-8.1,17.37,0,14.25,10.39,21.91,21.38,22.21,11.21.31,17.6-5.32,19.1-6.87Zm-23-4.27a14.67,14.67,0,0,1-.64-4.36c0-7.88,5.45-12.49,12.24-12.49a12.84,12.84,0,0,1,4.49.76Z"/><path class="cls-2" d="M306.1,48.42c-2.28,2.55-8.91,4.94-15.43,3.33a12.3,12.3,0,0,1-2.17-.92l23.77-23.77a18.63,18.63,0,0,0-5.94-6.12c-4.3-2.73-16.15-5.89-26.07,1.22-2.84,2-8.1,7-8.1,17.37,0,14.25,10.38,21.91,21.38,22.21,11.2.31,17.6-5.32,19.1-6.87Zm-23-4.27a14.67,14.67,0,0,1-.63-4.36c0-7.88,5.45-12.49,12.23-12.49a12.9,12.9,0,0,1,4.5.76Z"/></g></g></svg>