<svg xmlns="http://www.w3.org/2000/svg" viewBox="0 0 8.53 8.53"><defs><style>.cls-1{fill:#ff8300;}.cls-2{fill:#fff;}</style></defs><title>analitica</title><g id="Layer_2" data-name="Layer 2"><g id="Layer_1-2" data-name="Layer 1"><circle class="cls-1" cx="4.27" cy="4.27" r="4.27"/><path class="cls-2" d="M5.68,5.87a.35.35,0,0,1-.36-.35v-3a.36.36,0,1,1,.71,0v3A.35.35,0,0,1,5.68,5.87Z"/><path class="cls-2" d="M4.21,5.87a.34.34,0,0,1-.35-.35V3.09a.35.35,0,0,1,.35-.35.35.35,0,0,1,.35.35V5.52A.35.35,0,0,1,4.21,5.87Z"/><path class="cls-2" d="M2.74,5.87a.35.35,0,0,1-.35-.35V3.72a.35.35,0,0,1,.35-.35.35.35,0,0,1,.35.35v1.8A.34.34,0,0,1,2.74,5.87Z"/></g></g></svg>