<svg xmlns="http://www.w3.org/2000/svg" viewBox="0 0 88.58 84.38"><defs><style>.cls-1{fill:#fb8933;}.cls-2{fill:none;stroke:#fb8933;stroke-linecap:round;stroke-linejoin:round;stroke-width:1.96px;}</style></defs><g id="Layer_2" data-name="Layer 2"><g id="Layer_1-2" data-name="Layer 1"><path class="cls-1" d="M17.13,37.44A1,1,0,0,1,16.3,37a1,1,0,0,1,.21-1.45L41.15,17.22a1,1,0,1,1,1.24,1.66L17.73,37.23A1,1,0,0,1,17.13,37.44Z"/><path class="cls-1" d="M26.18,70.49a1,1,0,0,1-1-.69L13.83,37.17a1,1,0,1,1,1.95-.67L27.15,69.13a1,1,0,0,1-.64,1.31A1.26,1.26,0,0,1,26.18,70.49Z"/><path class="cls-1" d="M63.3,73.15h0l-34.74-.27a1,1,0,1,1,0-2.07h0l34.73.27a1,1,0,0,1,0,2.07Z"/><path class="cls-1" d="M63.56,73.17a.65.65,0,0,1-.19,0,1,1,0,0,1-.83-1.2l6.23-34.59a1,1,0,0,1,1.2-.84,1.05,1.05,0,0,1,.84,1.2L64.57,72.31A1,1,0,0,1,63.56,73.17Z"/><path class="cls-1" d="M69.8,38.58a1,1,0,0,1-.63-.22L43.53,18.7a1,1,0,1,1,1.25-1.64L70.42,36.72a1,1,0,0,1,.19,1.44A1,1,0,0,1,69.8,38.58Z"/><path class="cls-1" d="M44.28,45.79a1,1,0,0,1-1-1V1.52a1,1,0,0,1,2.06,0V44.76A1,1,0,0,1,44.28,45.79Z"/><path class="cls-1" d="M44.25,45.79a1,1,0,0,1-.28,0L1,33.56a1,1,0,1,1,.56-2l43,12.19a1,1,0,0,1-.28,2Z"/><path class="cls-1" d="M44.28,45.79a1,1,0,0,1-1-.75A1,1,0,0,1,44,43.77L86.91,31.62a1,1,0,1,1,.55,2L44.57,45.75A1,1,0,0,1,44.28,45.79Z"/><path class="cls-1" d="M61.59,70.78a1,1,0,0,1-.85-.44l-17.3-25a1,1,0,0,1,.25-1.43,1,1,0,0,1,1.44.25l17.3,25a1,1,0,0,1-.25,1.44A1,1,0,0,1,61.59,70.78Z"/><path class="cls-1" d="M17.72,84.1a1,1,0,0,1-.58-.18,1,1,0,0,1-.26-1.44L43.44,44.17a1,1,0,0,1,1.69,1.18L18.57,83.66A1,1,0,0,1,17.72,84.1Z"/><path class="cls-1" d="M44.16,21.46A3.42,3.42,0,1,1,47.58,18,3.43,3.43,0,0,1,44.16,21.46Zm0-4.77A1.35,1.35,0,1,0,45.51,18,1.35,1.35,0,0,0,44.16,16.69Z"/><path class="cls-1" d="M69.8,41a3.42,3.42,0,1,1,3.41-3.42A3.43,3.43,0,0,1,69.8,41Zm0-4.77a1.36,1.36,0,1,0,1.35,1.35A1.36,1.36,0,0,0,69.8,36.19Z"/><path class="cls-1" d="M63.3,75.53a3.42,3.42,0,1,1,3.42-3.41A3.42,3.42,0,0,1,63.3,75.53Zm0-4.77a1.36,1.36,0,1,0,1.35,1.36A1.36,1.36,0,0,0,63.3,70.76Z"/><path class="cls-1" d="M26.18,75.27a3.42,3.42,0,1,1,3.42-3.41A3.42,3.42,0,0,1,26.18,75.27Zm0-4.78a1.36,1.36,0,1,0,1.35,1.36A1.36,1.36,0,0,0,26.18,70.49Z"/><path class="cls-1" d="M14.73,39.83a3.42,3.42,0,1,1,3.42-3.42A3.42,3.42,0,0,1,14.73,39.83Zm0-4.78a1.35,1.35,0,1,0,1.35,1.35A1.36,1.36,0,0,0,14.73,35.05Z"/><path class="cls-1" d="M17.65,84.38a1.19,1.19,0,0,1-1.13-.83L.06,32.89A1.2,1.2,0,0,1,.5,31.55L43.59.23a1.15,1.15,0,0,1,.7-.23,1.2,1.2,0,0,1,.7.23l43.1,31.32a1.2,1.2,0,0,1,.43,1.35L72.07,83.56a1.22,1.22,0,0,1-1.14.82ZM2.6,33,18.52,82H70.06L86,33,44.29,2.67Z"/><line class="cls-2" x1="60.9" y1="68.79" x2="70.44" y2="82.58"/></g></g></svg>