<svg xmlns="http://www.w3.org/2000/svg" viewBox="0 0 242.73 42.4"><defs><style>.cls-1{fill:#fa8833;}.cls-2{fill:#fff;}.cls-3{fill:#ff8300;}</style></defs><title>Asset 4</title><g id="Layer_2" data-name="Layer 2"><g id="Layer_1-2" data-name="Layer 1"><circle class="cls-1" cx="239.18" cy="31.98" r="3.55"/><path class="cls-2" d="M66.92,12.1a9.33,9.33,0,0,1,8.65,5.14l.27-4.69H80.3V35.36H75.84l-.27-4.74a9.3,9.3,0,0,1-8.65,5.19A11.53,11.53,0,0,1,55.47,24,11.53,11.53,0,0,1,66.92,12.1Zm.76,19.25A7.4,7.4,0,1,0,60.15,24,7.31,7.31,0,0,0,67.68,31.35Z"/><path class="cls-2" d="M107.3,22V35.36h-4.68V24c0-5.5-2.21-7.48-5.5-7.48-4.46,0-6.72,3.52-6.94,6.9v11.9H85.49V12.55h4.42l.22,3.65a12,12,0,0,1,8.79-4.1C104.28,12.1,107.3,15.61,107.3,22Z"/><path class="cls-2" d="M122.45,12.1a9.32,9.32,0,0,1,8.65,5.14l.28-4.69h4.46V35.36h-4.46l-.28-4.74a9.29,9.29,0,0,1-8.65,5.19A11.54,11.54,0,0,1,111,24,11.53,11.53,0,0,1,122.45,12.1Zm.77,19.25a7.4,7.4,0,1,0-7.53-7.4A7.32,7.32,0,0,0,123.22,31.35Z"/><path class="cls-2" d="M145.71,35.36H141V1.55h4.69Z"/><path class="cls-2" d="M155,35.36h-4.69V12.55H155ZM159.32,1,154.5,7.86h-3.69L154.46,1Z"/><path class="cls-2" d="M171.18,17h-4.87V35.36h-4.73V17H158.2V12.55h3.38V5.79h4.73v6.76h4.87Z"/><path class="cls-2" d="M174.61,6.51A2.52,2.52,0,1,1,177.13,9,2.51,2.51,0,0,1,174.61,6.51Zm4.86,28.85h-4.68V12.55h4.68Z"/><path class="cls-2" d="M196.56,16.56a7.4,7.4,0,1,0,0,14.79,8.52,8.52,0,0,0,6.17-2.62v4.55a9.78,9.78,0,0,1-6.89,2.53,11.86,11.86,0,0,1,0-23.71,9.82,9.82,0,0,1,6.89,2.52v4.51A8.47,8.47,0,0,0,196.56,16.56Z"/><path class="cls-2" d="M217.61,12.1a9.32,9.32,0,0,1,8.65,5.14l.27-4.69H231V35.36h-4.47l-.27-4.74a9.29,9.29,0,0,1-8.65,5.19A11.53,11.53,0,0,1,206.16,24,11.53,11.53,0,0,1,217.61,12.1Zm.76,19.25a7.4,7.4,0,1,0-7.52-7.4A7.32,7.32,0,0,0,218.37,31.35Z"/><circle class="cls-3" cx="21.2" cy="21.2" r="21.2" transform="translate(-3.12 38.73) rotate(-80.78)"/><path class="cls-2" d="M28.21,29.19a1.75,1.75,0,0,1-1.75-1.75v-15a1.76,1.76,0,0,1,3.51,0v15A1.75,1.75,0,0,1,28.21,29.19Z"/><path class="cls-2" d="M20.92,29.19a1.75,1.75,0,0,1-1.76-1.75V15.36a1.76,1.76,0,1,1,3.51,0V27.44A1.75,1.75,0,0,1,20.92,29.19Z"/><path class="cls-2" d="M13.62,29.19a1.75,1.75,0,0,1-1.76-1.75v-9a1.76,1.76,0,1,1,3.52,0v9A1.75,1.75,0,0,1,13.62,29.19Z"/></g></g></svg>