<svg xmlns="http://www.w3.org/2000/svg" viewBox="0 0 321.68 288.2"><defs><style>.cls-1{opacity:0.7;}.cls-2{fill:#81cb60;}</style></defs><title>Asset 3</title><g id="Layer_2" data-name="Layer 2"><g id="Layer_1-2" data-name="Layer 1"><g class="cls-1"><path class="cls-2" d="M177.59,288.2a28.07,28.07,0,0,1-19.85-47.91l96.19-96.19L157.74,47.91A28.07,28.07,0,0,1,197.43,8.22l116,116a28.05,28.05,0,0,1,0,39.68l-116,116A28,28,0,0,1,177.59,288.2Z"/><path class="cls-2" d="M28.07,288.2A28.07,28.07,0,0,1,8.22,240.29L104.4,144.1,8.22,47.91A28.07,28.07,0,0,1,47.91,8.22l116,116a28.05,28.05,0,0,1,0,39.68l-116,116A28,28,0,0,1,28.07,288.2Z"/></g></g></g></svg>