<svg xmlns="http://www.w3.org/2000/svg" viewBox="0 0 158.66 158.6"><defs><style>.cls-1{fill:#68b3d5;}</style></defs><title>13. engrane azul</title><g id="Layer_2" data-name="Layer 2"><g id="Layer_1-2" data-name="Layer 1"><path class="cls-1" d="M40.38,150.66a6.14,6.14,0,0,1-3.76-6l1.54-16.2-1.06-.93c-1.69-1.5-3-2.74-4.12-3.92l-1-1-16.16,2.17a5.67,5.67,0,0,1-2.79-.37,6,6,0,0,1-3.33-3.06l-8.4-19.08A6.11,6.11,0,0,1,3,95.31L15.33,85l-.1-1.41c-.13-1.73-.09-3.49-.05-5.36l0-1.9L2.31,66.54A6,6,0,0,1,.36,59.76L7.94,40.24a6.11,6.11,0,0,1,6-3.67L30.11,38l.93-1c1.1-1.25,2.37-2.55,4-4.08l1-1-2.2-16.09A6.11,6.11,0,0,1,37.3,9.59L56.39,1.18a6,6,0,0,1,4.52,0,5.62,5.62,0,0,1,2.31,1.62L73.68,15.31l1.41-.1c1.62-.12,3.43-.15,5.68-.1l1.41,0,9.8-13A6.76,6.76,0,0,1,98.84.32l19.47,7.56a6,6,0,0,1,3.72,6L120.5,30l1.06.94c1.69,1.48,3,2.73,4.12,3.91l1,1,16.16-2.17a5.69,5.69,0,0,1,2.8.37,6,6,0,0,1,3.33,3.06l8.4,19.08a6.11,6.11,0,0,1-1.63,6.9L143.22,73.5l.1,1.43c.15,2.22.21,4,.18,5.71l0,1.4,12.85,9.85a6.06,6.06,0,0,1,2,6.79l-7.58,19.52a6.11,6.11,0,0,1-6,3.67l-16.13-1.51-1.24,1.42c-1.25,1.42-2.41,2.74-3.66,3.93l-1,1,2.15,16a6.11,6.11,0,0,1-3.45,6.2l-19.09,8.41a6,6,0,0,1-4.51,0,5.62,5.62,0,0,1-2.31-1.62L85,143.13l-1.41.1c-1.62.12-3.42.15-5.68.11l-1.42,0-9.8,13a6.1,6.1,0,0,1-6.79,1.94ZM60,145.71l8.78-11.57a6.05,6.05,0,0,1,5.21-2.3,52.32,52.32,0,0,0,13-.32,5.81,5.81,0,0,1,2.92.36,5.89,5.89,0,0,1,2.41,1.72l9.31,11.17L112.56,140l-2-14.39a6.06,6.06,0,0,1,2.14-5.31,53,53,0,0,0,9.06-9.42,6.05,6.05,0,0,1,5.24-2.36l14.34,1.4,4.38-11.28-11.48-8.75A6,6,0,0,1,132,84.58a51.61,51.61,0,0,0-.36-13,6.1,6.1,0,0,1,2-5.46L144.91,57l-4.86-11.06-14.4,2a6,6,0,0,1-3-.36,6,6,0,0,1-2.41-1.72,52.79,52.79,0,0,0-9.4-9,6,6,0,0,1-2.28-5.19l1.31-14.39L98.65,12.81,89.9,24.3a6.08,6.08,0,0,1-5.21,2.3,52.32,52.32,0,0,0-13,.32,5.79,5.79,0,0,1-2.92-.36,5.89,5.89,0,0,1-2.41-1.72L57,13.67,46,18.54l2.1,14.36a6.12,6.12,0,0,1-2.16,5.35,52,52,0,0,0-9,9.35A6.05,6.05,0,0,1,31.62,50l-14.38-1.3L12.86,59.94,24.4,68.6a6,6,0,0,1,2.25,5.26A53,53,0,0,0,27,86.92a6,6,0,0,1-2,5.38l-11.1,9.18,4.75,11,14.4-2a6,6,0,0,1,3,.36,6,6,0,0,1,2.41,1.72,52.46,52.46,0,0,0,9.4,9A6,6,0,0,1,50,126.86l-1.33,14.47Zm7.83-36.85a31.75,31.75,0,1,1,41.1-18.1A31.8,31.8,0,0,1,67.81,108.86ZM86.57,60.59A20,20,0,1,0,98,86.52,19.82,19.82,0,0,0,86.57,60.59Z"/></g></g></svg>