<svg xmlns="http://www.w3.org/2000/svg" viewBox="0 0 96.57 79.48"><defs><style>.cls-1,.cls-2{fill:none;stroke:#68b3d5;stroke-linecap:round;stroke-linejoin:round;}.cls-1{stroke-width:1.33px;}.cls-2{stroke-width:2.05px;}</style></defs><g id="Layer_2" data-name="Layer 2"><g id="Layer_1-2" data-name="Layer 1"><circle class="cls-1" cx="65.42" cy="36.37" r="3.93"/><path class="cls-1" d="M59,52.69V48.43a6.39,6.39,0,0,1,6.4-6.4h0a6.4,6.4,0,0,1,6.4,6.4v4.26"/><circle class="cls-1" cx="65.42" cy="62.49" r="3.93"/><path class="cls-1" d="M59,78.82V74.55a6.4,6.4,0,0,1,6.4-6.4h0a6.41,6.41,0,0,1,6.4,6.4v4.27"/><circle class="cls-1" cx="48.35" cy="49.39" r="3.93"/><path class="cls-1" d="M42,65.72V61.45a6.4,6.4,0,0,1,6.4-6.4h0a6.4,6.4,0,0,1,6.4,6.4v4.27"/><path class="cls-1" d="M44.42,49.39a8,8,0,0,0,5.51-3.34"/><path class="cls-1" d="M48.35,45.46s-2.89-.34-4.53,3.63A22.79,22.79,0,0,1,42,52.67s2.36,1.39,4.37.08"/><path class="cls-1" d="M48.44,45.46s2.89-.34,4.53,3.63a22.79,22.79,0,0,0,1.87,3.58s-2.36,1.39-4.37.08"/><circle class="cls-1" cx="81.43" cy="49.39" r="3.93"/><path class="cls-1" d="M75,65.72V61.45a6.41,6.41,0,0,1,6.4-6.4h0a6.41,6.41,0,0,1,6.41,6.4v4.27"/><path class="cls-1" d="M77.51,49.39A8,8,0,0,0,83,46.05"/><path class="cls-1" d="M81.43,45.46s-2.89-.34-4.53,3.63A21.89,21.89,0,0,1,75,52.67s2.36,1.39,4.37.08"/><path class="cls-1" d="M81.52,45.46s2.9-.34,4.54,3.63a21.89,21.89,0,0,0,1.87,3.58s-2.36,1.39-4.37.08"/><circle class="cls-1" cx="89.41" cy="16.56" r="3.93"/><path class="cls-1" d="M83,38.33V28.62a6.41,6.41,0,0,1,6.4-6.4h0a6.41,6.41,0,0,1,6.41,6.4v9.71"/><path class="cls-1" d="M85.49,16.56A8,8,0,0,0,91,13.22"/><path class="cls-1" d="M89.41,12.63s-2.89-.34-4.53,3.63A21.89,21.89,0,0,1,83,19.84s2.36,1.39,4.37.08"/><path class="cls-1" d="M89.5,12.63s2.89-.34,4.54,3.63a21.89,21.89,0,0,0,1.87,3.58s-2.36,1.39-4.37.08"/><rect class="cls-1" x="0.67" y="0.67" width="35.43" height="23.52"/><rect class="cls-1" x="4.39" y="3.9" width="27.98" height="14.33"/><path class="cls-1" d="M15.52,24.23c0,1.29,0,4.29-4.28,4.29a1.43,1.43,0,1,0,0,2.85H25.52a1.43,1.43,0,1,0,0-2.85c-4.28,0-4.28-3-4.28-4.29"/><line class="cls-2" x1="68.01" y1="5.95" x2="19.4" y2="59.44"/></g></g></svg>