<svg xmlns="http://www.w3.org/2000/svg" viewBox="0 0 82.48 80.37"><defs><style>.cls-1,.cls-2{fill:none;stroke:#68b3d5;stroke-linecap:round;stroke-linejoin:round;}.cls-1{stroke-width:2px;}.cls-2{stroke-width:1.68px;}</style></defs><g id="Layer_2" data-name="Layer 2"><g id="Layer_1-2" data-name="Layer 1"><polyline class="cls-1" points="11.66 20.15 11.66 1 71.98 1 71.98 38.64 20.14 38.64"/><circle class="cls-2" cx="9.32" cy="57.91" r="5.2"/><path class="cls-2" d="M.84,79.52V73.88A8.48,8.48,0,0,1,9.32,65.4h0a8.48,8.48,0,0,1,8.48,8.48v5.64"/><circle class="cls-2" cx="30.51" cy="57.91" r="5.2"/><path class="cls-2" d="M22,79.52V73.88a8.48,8.48,0,0,1,8.48-8.48h0A8.48,8.48,0,0,1,39,73.88v5.64"/><path class="cls-2" d="M25.31,57.91a10.58,10.58,0,0,0,7.28-4.42"/><path class="cls-2" d="M30.51,52.71s-3.83-.45-6,4.79A29.76,29.76,0,0,1,22,62.25s3.12,1.84,5.78.11"/><path class="cls-2" d="M30.63,52.71s3.82-.45,6,4.79a29.76,29.76,0,0,0,2.47,4.75s-3.12,1.84-5.78.11"/><circle class="cls-2" cx="51.85" cy="57.91" r="5.2"/><path class="cls-2" d="M43.37,79.52V73.88a8.48,8.48,0,0,1,8.48-8.48h0a8.48,8.48,0,0,1,8.48,8.48v5.64"/><circle class="cls-2" cx="73.04" cy="57.91" r="5.2"/><path class="cls-2" d="M64.56,79.52V73.88A8.48,8.48,0,0,1,73,65.4h0a8.48,8.48,0,0,1,8.47,8.48v5.64"/><path class="cls-2" d="M67.84,57.91a10.58,10.58,0,0,0,7.28-4.42"/><path class="cls-2" d="M73,52.71s-3.83-.45-6,4.79a29.76,29.76,0,0,1-2.47,4.75s3.12,1.84,5.78.11"/><path class="cls-2" d="M73.16,52.71s3.82-.45,6,4.79a29.76,29.76,0,0,0,2.47,4.75s-3.12,1.84-5.78.11"/><circle class="cls-2" cx="11.6" cy="25.84" r="5.2"/><path class="cls-2" d="M3.12,47.45V41.81a8.48,8.48,0,0,1,8.48-8.48h0a8.48,8.48,0,0,1,8.48,8.48v5.64"/><path class="cls-2" d="M6.4,25.84a10.62,10.62,0,0,0,7.29-4.43"/><path class="cls-2" d="M11.6,20.64s-3.83-.45-6,4.79a28.92,28.92,0,0,1-2.48,4.74s3.13,1.85,5.79.12"/><path class="cls-2" d="M11.72,20.64s3.83-.45,6,4.79a28.92,28.92,0,0,0,2.48,4.74s-3.13,1.85-5.79.12"/></g></g></svg>