<svg xmlns="http://www.w3.org/2000/svg" viewBox="0 0 27 27"><defs><style>.cls-1{fill:#fff;}</style></defs><title>31. cerrar blanco</title><g id="Layer_2" data-name="Layer 2"><g id="Layer_1-2" data-name="Layer 1"><path class="cls-1" d="M14.56,13.5,26.78,1.28A.75.75,0,0,0,25.72.22L13.5,12.44,1.28.22A.75.75,0,0,0,.22,1.28L12.44,13.5.22,25.72a.75.75,0,0,0,0,1.06A.73.73,0,0,0,.75,27a.74.74,0,0,0,.53-.22L13.5,14.56,25.72,26.78a.73.73,0,0,0,.53.22.74.74,0,0,0,.53-.22.75.75,0,0,0,0-1.06Z"/></g></g></svg>