<svg xmlns="http://www.w3.org/2000/svg" viewBox="0 0 293.93 43.42"><defs><style>.cls-1{fill:#80ca60;}.cls-2{fill:#fff;}</style></defs><title>Asset 3</title><g id="Layer_2" data-name="Layer 2"><g id="Layer_1-2" data-name="Layer 1"><path class="cls-1" d="M290.38,28a3.55,3.55,0,1,0,3.55,3.55A3.55,3.55,0,0,0,290.38,28Z"/><path class="cls-2" d="M70.32,15.55a7.37,7.37,0,1,0,0,14.73,8.51,8.51,0,0,0,6.15-2.6v4.53a9.78,9.78,0,0,1-6.87,2.52,11.82,11.82,0,0,1,0-23.63,9.82,9.82,0,0,1,6.87,2.51v4.5A8.43,8.43,0,0,0,70.32,15.55Z"/><path class="cls-2" d="M79.89,22.91A12.11,12.11,0,1,1,92.06,34.73,11.8,11.8,0,0,1,79.89,22.91Zm19.54,0a7.44,7.44,0,1,0-7.37,7.37A7.28,7.28,0,0,0,99.43,22.91Z"/><path class="cls-2" d="M129.94,20.94V34.28h-4.67V23c0-5.48-2.2-7.45-5.48-7.45-4.45,0-6.7,3.5-6.92,6.87V34.28h-4.68V11.55h4.41l.22,3.64a11.93,11.93,0,0,1,8.76-4.09C126.93,11.1,129.94,14.6,129.94,20.94Z"/><path class="cls-2" d="M138.52,27.68c.45,1.84,2.34,3.1,5.26,3.1,2.29,0,4.13-.9,4.13-2.52,0-2.16-2.06-2.65-6.74-4.27-3.59-1.17-6.6-2.92-6.6-6.6,0-3.91,4-6.29,8-6.29,5.26,0,8.49,3,8.72,6.69h-4.72c-.18-1.89-2.07-2.78-3.82-2.78s-3.5.8-3.5,2.38c0,1.79,1.93,2.2,6.6,3.95s6.74,3.87,6.74,7c0,4-3.91,6.38-8.94,6.38-5.48,0-9.39-2.38-9.84-7Z"/><path class="cls-2" d="M177.79,11.55V34.28h-4.4l-.23-3.64a11.93,11.93,0,0,1-8.76,4.09c-5.34,0-8.35-3.5-8.35-9.84V11.55h4.67V22.82c0,5.49,2.2,7.46,5.48,7.46,4.67,0,6.92-3.86,6.92-7.41V11.55Z"/><path class="cls-2" d="M187.63,34.28H183V.58h4.67Z"/><path class="cls-2" d="M204.44,16h-4.86V34.28h-4.71V16H191.5V11.55h3.37V4.81h4.71v6.74h4.86Z"/><path class="cls-2" d="M206.5,22.91a12.11,12.11,0,1,1,12.18,11.82A11.81,11.81,0,0,1,206.5,22.91Zm19.55,0a7.44,7.44,0,1,0-7.37,7.37A7.29,7.29,0,0,0,226.05,22.91Z"/><path class="cls-2" d="M247.35,12.09l-.72,4.08a4.87,4.87,0,0,0-2.34-.62c-3.23,0-4.81,3.45-4.81,8V34.28h-4.67V11.55h4.4l.23,2.65c1.44-1.84,3.14-3.1,5.12-3.1A4.15,4.15,0,0,1,247.35,12.09Z"/><path class="cls-2" d="M255.21,34.28h-4.67V11.55h4.67ZM259.57,0l-4.81,6.87h-3.68L254.72,0Z"/><path class="cls-2" d="M270.89,11.1a9.31,9.31,0,0,1,8.63,5.12l.27-4.67h4.44V34.28h-4.44l-.27-4.72a9.28,9.28,0,0,1-8.63,5.17,11.49,11.49,0,0,1-11.41-11.82A11.49,11.49,0,0,1,270.89,11.1Zm.76,19.18a7.37,7.37,0,1,0-7.5-7.37A7.28,7.28,0,0,0,271.65,30.28Z"/><circle class="cls-1" cx="21.44" cy="21.98" r="21.44"/><path class="cls-2" d="M26.17,24.65a1.42,1.42,0,1,0,1.42-1.42A1.42,1.42,0,0,0,26.17,24.65Z"/><path class="cls-2" d="M23.75,23.23a1.42,1.42,0,1,0,1.42,1.42A1.42,1.42,0,0,0,23.75,23.23Z"/><path class="cls-2" d="M19.92,23.23a1.42,1.42,0,1,0,1.42,1.42A1.42,1.42,0,0,0,19.92,23.23Z"/><path class="cls-2" d="M31.67,17.33h-3.4V14.2A2.16,2.16,0,0,0,26.11,12H10.59A2.16,2.16,0,0,0,8.44,14.2V28.92a1.06,1.06,0,0,0,.59,1,1,1,0,0,0,.49.12,1.09,1.09,0,0,0,.64-.21L14,27v3a2.16,2.16,0,0,0,2.15,2.16H28l4.08,2.95a1.05,1.05,0,0,0,1.12.09,1.07,1.07,0,0,0,.6-1V19.49A2.16,2.16,0,0,0,31.67,17.33ZM13.88,24.67a1.07,1.07,0,0,0-.64.21L10.6,26.79V14.21H26.1v3.13h-10A2.16,2.16,0,0,0,14,19.49v5.18Zm17.78,7.41L29,30.17a1.07,1.07,0,0,0-.64-.21H16.17V25.75a0,0,0,0,0,0,0V19.5H31.66Z"/></g></g></svg>