<svg xmlns="http://www.w3.org/2000/svg" viewBox="0 0 78.88 78.88"><defs><style>.cls-1{fill:#81cb60;}</style></defs><g id="Layer_2" data-name="Layer 2"><g id="Layer_1-2" data-name="Layer 1"><path class="cls-1" d="M14.68,71.58a16.73,16.73,0,0,1,2.05-33.34h1.2a1.2,1.2,0,0,1,0,2.39h-1.2a14.34,14.34,0,0,0-.93,28.65l-2.48-4.13a1.2,1.2,0,0,1,2-1.23l3.58,6a1.19,1.19,0,0,1-.28,1.55l-6,4.78a1.19,1.19,0,1,1-1.5-1.86l3.48-2.78ZM64.2,40.51l3.47,2.77a1.2,1.2,0,1,1-1.49,1.87l-6-4.78a1.21,1.21,0,0,1-.28-1.55l3.59-6a1.2,1.2,0,1,1,2.05,1.23l-2.48,4.13a14.34,14.34,0,0,0-.94-28.65H61a1.2,1.2,0,1,1,0-2.39h1.19A16.73,16.73,0,0,1,64.2,40.51ZM31.07,0H47.8a6,6,0,0,1,6,6v4.78a6,6,0,0,1-6,6H31.07a6,6,0,0,1-6-6V6A6,6,0,0,1,31.07,0Zm0,2.39A3.58,3.58,0,0,0,27.49,6v4.78a3.58,3.58,0,0,0,3.58,3.58H47.8a3.58,3.58,0,0,0,3.59-3.58V6A3.59,3.59,0,0,0,47.8,2.39Zm0,59.75H47.8a6,6,0,0,1,6,6V72.9a6,6,0,0,1-6,6H31.07a6,6,0,0,1-6-6V68.12A6,6,0,0,1,31.07,62.14Zm0,2.39a3.58,3.58,0,0,0-3.58,3.59V72.9a3.58,3.58,0,0,0,3.58,3.59H47.8a3.59,3.59,0,0,0,3.59-3.59V68.12a3.59,3.59,0,0,0-3.59-3.59Zm0-33.46H47.8a6,6,0,0,1,6,6v4.78a6,6,0,0,1-6,6H31.07a6,6,0,0,1-6-6V37.05A6,6,0,0,1,31.07,31.07Zm0,2.39a3.58,3.58,0,0,0-3.58,3.59v4.78a3.58,3.58,0,0,0,3.58,3.58H47.8a3.58,3.58,0,0,0,3.59-3.58V37.05a3.59,3.59,0,0,0-3.59-3.59Z"/></g></g></svg>