<svg xmlns="http://www.w3.org/2000/svg" viewBox="0 0 42.88 42.88"><defs><style>.cls-1{fill:#fff;}</style></defs><title>40. icono consult</title><g id="Layer_2" data-name="Layer 2"><g id="Layer_1-2" data-name="Layer 1"><path class="cls-1" d="M27.17,19h-11v6.23a0,0,0,0,1,0,0v4.22H28.38a1.13,1.13,0,0,1,.64.2l2.64,1.92V19H27.17Zm-7.25,6.57a1.43,1.43,0,1,1,1.42-1.42A1.43,1.43,0,0,1,19.92,25.53Zm3.83,0a1.43,1.43,0,1,1,1.42-1.42A1.43,1.43,0,0,1,23.75,25.53ZM29,24.11a1.42,1.42,0,1,1-1.42-1.43A1.43,1.43,0,0,1,29,24.11Z"/><path class="cls-1" d="M26.1,16.79V13.65l-15.51,0V26.25l2.64-1.92a1.13,1.13,0,0,1,.64-.2H14V19a2.16,2.16,0,0,1,2.15-2.16Z"/><path class="cls-1" d="M21.44,0A21.44,21.44,0,1,0,42.88,21.44,21.44,21.44,0,0,0,21.44,0ZM33.83,33.67a1.07,1.07,0,0,1-.6,1,1.05,1.05,0,0,1-1.12-.09L28,31.59H16.15A2.16,2.16,0,0,1,14,29.43v-3l-3.84,2.78a1.09,1.09,0,0,1-.64.21A1,1,0,0,1,9,29.34a1.08,1.08,0,0,1-.59-1V13.65a2.15,2.15,0,0,1,2.15-2.15H26.11a2.16,2.16,0,0,1,2.16,2.15v3.14h3.4A2.16,2.16,0,0,1,33.83,19Z"/></g></g></svg>