<svg xmlns="http://www.w3.org/2000/svg" viewBox="0 0 8.63 8.63"><defs><style>.cls-1{fill:#81cb60;}.cls-2{fill:#fff;}</style></defs><title>consultoria</title><g id="Layer_2" data-name="Layer 2"><g id="Layer_1-2" data-name="Layer 1"><circle class="cls-1" cx="4.31" cy="4.31" r="4.31"/><path class="cls-2" d="M5.27,4.85a.28.28,0,0,0,.28.29.29.29,0,1,0,0-.58A.28.28,0,0,0,5.27,4.85Z"/><path class="cls-2" d="M4.78,4.56a.29.29,0,1,0,.29.29A.29.29,0,0,0,4.78,4.56Z"/><path class="cls-2" d="M4,4.56a.29.29,0,0,0,0,.58.29.29,0,0,0,0-.58Z"/><path class="cls-2" d="M6.37,3.38H5.69V2.75a.44.44,0,0,0-.44-.44H2.13a.44.44,0,0,0-.43.44v3a.2.2,0,0,0,.12.19.17.17,0,0,0,.1,0,.25.25,0,0,0,.12,0l.78-.56v.59a.44.44,0,0,0,.43.44H5.64L6.46,7a.2.2,0,0,0,.13,0l.1,0a.23.23,0,0,0,.12-.2v-3A.44.44,0,0,0,6.37,3.38ZM2.79,4.85a.24.24,0,0,0-.13.05l-.53.38V2.75H5.25v.63h-2a.43.43,0,0,0-.43.43v1Zm3.58,1.5L5.84,6a.2.2,0,0,0-.13,0H3.25V5.08h0V3.81H6.37Z"/></g></g></svg>