<svg xmlns="http://www.w3.org/2000/svg" viewBox="0 0 67.38 65.31"><defs><style>.cls-1{fill:#81cb60;}</style></defs><g id="Layer_2" data-name="Layer 2"><g id="Layer_1-2" data-name="Layer 1"><path class="cls-1" d="M7.79,65.31A7.78,7.78,0,0,1,6.38,49.87l.35-.07,0-.35C9.1,33.27,18.52,21.09,34,14.25l1-.43-5.1-2.55a1.57,1.57,0,0,1-.7-2.11,1.55,1.55,0,0,1,1.4-.87,1.6,1.6,0,0,1,.71.16l8.28,4.15a1.61,1.61,0,0,1,.83,1.79l-2.08,8.28a1.56,1.56,0,0,1-1.52,1.2,1.59,1.59,0,0,1-1.53-2l1.35-5.37-.93.41C21.14,23.26,12.24,34.55,10,49.6L9.89,50l.39.13A7.78,7.78,0,0,1,7.79,65.31Zm0-12.43a4.65,4.65,0,1,0,4.64,4.64A4.65,4.65,0,0,0,7.79,52.88Z"/><path class="cls-1" d="M38.87,65.31a1.55,1.55,0,0,1-1.11-.46l-5.1-5.11-5.11,5.11a1.55,1.55,0,0,1-1.11.46,1.53,1.53,0,0,1-1.11-.46,1.55,1.55,0,0,1-.46-1.11,1.53,1.53,0,0,1,.46-1.11l5.1-5.11-5.1-5.1a1.58,1.58,0,0,1,1.11-2.69,1.59,1.59,0,0,1,1.11.46l5.11,5.11,5.1-5.11a1.59,1.59,0,0,1,1.11-.46A1.58,1.58,0,0,1,40,52.42l-5.1,5.1L40,62.63a1.53,1.53,0,0,1,.46,1.11A1.51,1.51,0,0,1,40,64.85,1.53,1.53,0,0,1,38.87,65.31Z"/><path class="cls-1" d="M63.74,40.44A1.53,1.53,0,0,1,62.63,40l-5.11-5.1L52.42,40a1.58,1.58,0,0,1-2.69-1.11,1.59,1.59,0,0,1,.46-1.11l5.11-5.11-5.11-5.1a1.59,1.59,0,0,1-.46-1.11,1.58,1.58,0,0,1,2.69-1.11l5.1,5.1,5.11-5.1a1.53,1.53,0,0,1,1.11-.46,1.55,1.55,0,0,1,1.11.46,1.58,1.58,0,0,1,0,2.22l-5.11,5.1,5.11,5.11a1.55,1.55,0,0,1,.46,1.11A1.53,1.53,0,0,1,64.85,40,1.55,1.55,0,0,1,63.74,40.44Z"/><path class="cls-1" d="M14,15.58a1.62,1.62,0,0,1-1.12-.46L7.79,10,2.68,15.12a1.57,1.57,0,0,1-1.11.46,1.59,1.59,0,0,1-1.11-.46A1.55,1.55,0,0,1,0,14a1.57,1.57,0,0,1,.46-1.12l5.11-5.1L.46,2.68A1.53,1.53,0,0,1,0,1.57,1.59,1.59,0,0,1,.46.46,1.55,1.55,0,0,1,1.57,0,1.53,1.53,0,0,1,2.68.46L7.79,5.57,12.89.46A1.55,1.55,0,0,1,14,0a1.57,1.57,0,0,1,1.12.46,1.59,1.59,0,0,1,.46,1.11,1.57,1.57,0,0,1-.46,1.11L10,7.79l5.11,5.1A1.57,1.57,0,0,1,15.58,14a1.55,1.55,0,0,1-.46,1.11A1.59,1.59,0,0,1,14,15.58Z"/><path class="cls-1" d="M55.45,13.51A1.54,1.54,0,0,1,54.34,13L48.12,6.83a1.55,1.55,0,0,1-.46-1.11,1.57,1.57,0,0,1,.46-1.12,1.59,1.59,0,0,1,1.11-.46,1.57,1.57,0,0,1,1.11.46l5.11,5.11L64.7.46a1.57,1.57,0,0,1,2.68,1.11,1.53,1.53,0,0,1-.46,1.11L56.56,13A1.56,1.56,0,0,1,55.45,13.51Z"/></g></g></svg>