<svg xmlns="http://www.w3.org/2000/svg" viewBox="0 0 76.01 76.11"><defs><style>.cls-1{fill:#81cb60;}</style></defs><g id="Layer_2" data-name="Layer 2"><g id="Layer_1-2" data-name="Layer 1"><path class="cls-1" d="M32.69,76.11a32.81,32.81,0,0,0,27-51.65h2a1.34,1.34,0,0,0,.93-.38L75.62,11a1.32,1.32,0,0,0-.93-2.25H67.22V1.31A1.31,1.31,0,0,0,65.9,0,1.27,1.27,0,0,0,65,.39L51.92,13.45a1.24,1.24,0,0,0-.38.93v2A32.81,32.81,0,1,0,32.69,76.11ZM54.16,14.92,64.59,4.48v5.61a1.32,1.32,0,0,0,1.32,1.31h5.6L61.08,21.83H54.16ZM32.69,13A30.24,30.24,0,0,1,51.5,19.6v3l-5.69,5.71a20,20,0,1,0,1.91,1.9l5.67-5.67h2.92A30.17,30.17,0,1,1,32.69,13.09ZM37,43.23A4.28,4.28,0,1,1,32.65,39h0a4.22,4.22,0,0,1,1.94.48l-2.86,2.86a1.32,1.32,0,0,0,1.71,2l.14-.15,2.86-2.86a4.19,4.19,0,0,1,.53,2Zm-.34-5.69a6.94,6.94,0,1,0,1.82,1.83L45.81,32A17.34,17.34,0,1,1,44,30.18Z"/></g></g></svg>