<svg xmlns="http://www.w3.org/2000/svg" viewBox="0 0 37.57 34.4"><defs><style>.cls-1{fill:#fff;}</style></defs><title>23. costos</title><g id="Layer_2" data-name="Layer 2"><g id="Layer_1-2" data-name="Layer 1"><path class="cls-1" d="M10.81,34.4C4.75,34.4,0,31.71,0,28.28V18.91c0-3.43,4.75-6.12,10.81-6.12a18.5,18.5,0,0,1,4.77.61l.38.1V6.12C16,2.69,20.7,0,26.76,0S37.57,2.69,37.57,6.12V24.86c0,3.44-4.75,6.12-10.81,6.12a17.64,17.64,0,0,1-5.4-.81l-.23-.07-.12.2C19.5,32.79,15.5,34.4,10.81,34.4Zm-9.1-6.12c0,2.09,3.58,4.41,8.72,4.41h.39c7.12-.16,9.2-3.3,9.29-3.43l.05-.08-.08-2.63-.48.39c-2,1.62-5.24,2.58-8.79,2.58A14.37,14.37,0,0,1,2.2,27.08l-.49-.38Zm19.71.1.2.07a15.91,15.91,0,0,0,5.14.82c5.44,0,9.09-2.28,9.09-4.41V23.29l-.48.37a14.3,14.3,0,0,1-8.61,2.45,17.67,17.67,0,0,1-5-.68l-.39-.11ZM1.71,24.47l0,.05C2.57,26.35,6,28.2,10.81,28.2c5.55,0,9.28-2.38,9.28-4.6V21.84l-.49.41c-2,1.62-5.24,2.59-8.79,2.59A14.3,14.3,0,0,1,2.2,22.39L1.71,22Zm19.71-.57.21.07a16.08,16.08,0,0,0,5.13.81c4.86,0,8.24-1.85,9.07-3.68l0-.05V18.6l-.48.38a14.37,14.37,0,0,1-8.61,2.44,17.57,17.57,0,0,1-5-.67l-.39-.11ZM10.81,14.5A16.59,16.59,0,0,0,6.62,15a8,8,0,0,0-4.44,2.55,2.73,2.73,0,0,0,.89,3.82,13.3,13.3,0,0,0,7.74,2.13c5.55,0,9.28-2.38,9.28-4.6a2.85,2.85,0,0,0-1-2,6.39,6.39,0,0,0-2.73-1.56A19.05,19.05,0,0,0,10.81,14.5Zm9.37,1.6a4,4,0,0,1,1.24,2.81v.21l.2.16a16.28,16.28,0,0,0,5.14.81c4.86,0,8.24-1.84,9.07-3.67l0-.06V13.91l-.48.38a14.37,14.37,0,0,1-8.61,2.45,17,17,0,0,1-6.25-1.12Zm-2.51-4.42,0,.06c.83,1.82,4.21,3.67,9.07,3.67s8.24-1.85,9.07-3.68l0-.05V9.23l-.48.37a14.3,14.3,0,0,1-8.61,2.45A14.35,14.35,0,0,1,18.15,9.6l-.48-.37Zm9.09-10c-4.47,0-7.55,1.54-8.62,3.07a2.58,2.58,0,0,0,.56,3.55c1.71,1.5,4.73,2.39,8.06,2.39A16.34,16.34,0,0,0,31.83,10c1.87-.63,4-1.63,4-3.83S32.2,1.71,26.76,1.71Z"/></g></g></svg>