<svg xmlns="http://www.w3.org/2000/svg" viewBox="0 0 12.81 12.81"><defs><style>.cls-1{fill:#666;}</style></defs><g id="Layer_2" data-name="Layer 2"><g id="Layer_1-2" data-name="Layer 1"><path class="cls-1" d="M10.68,0A2.14,2.14,0,0,0,8.54,2.14a2,2,0,0,0,.08.55L3.81,5.09a2.11,2.11,0,0,0-1.67-.82,2.14,2.14,0,1,0,0,4.27,2.11,2.11,0,0,0,1.67-.82l4.81,2.41a2,2,0,0,0-.08.55A2.15,2.15,0,1,0,9,9.36L4.2,7a2.51,2.51,0,0,0,.07-.55,2.6,2.6,0,0,0-.07-.56L9,3.45A2.13,2.13,0,1,0,10.68,0Zm0,.85A1.29,1.29,0,1,1,9.4,2.14,1.28,1.28,0,0,1,10.68.85ZM2.14,5.13a1.28,1.28,0,0,1,0,2.56,1.28,1.28,0,1,1,0-2.56ZM10.68,9.4A1.28,1.28,0,1,1,9.4,10.68,1.28,1.28,0,0,1,10.68,9.4Z"/></g></g></svg>