<svg xmlns="http://www.w3.org/2000/svg" viewBox="0 0 25.16 16.01"><defs><style>.cls-1{fill:#fff;}</style></defs><title>Asset 7</title><g id="Layer_2" data-name="Layer 2"><g id="Layer_1-2" data-name="Layer 1"><path class="cls-1" d="M2.58,0A2.62,2.62,0,0,0,.68.68,2.61,2.61,0,0,0,0,2.57V13.44a2.62,2.62,0,0,0,.69,1.89A2.64,2.64,0,0,0,2.6,16h20a2.59,2.59,0,0,0,1.9-.69,2.68,2.68,0,0,0,.67-1.91V2.55A2.61,2.61,0,0,0,24.48.67,2.58,2.58,0,0,0,22.61,0Zm.28,1.72H22.3L13,9.25a.88.88,0,0,1-.86,0ZM1.72,3,7.87,8,1.72,13.22ZM23.44,3V13.22L17.29,8ZM9.22,9.08c.71.54,1.4,1.19,2.12,1.69a2.84,2.84,0,0,0,2.48,0c.72-.52,1.42-1.13,2.12-1.69l6.13,5.21h-19Z"/></g></g></svg>