<svg xmlns="http://www.w3.org/2000/svg" viewBox="0 0 36.12 36.12"><defs><style>.cls-1{fill:#fff;}</style></defs><title>19. planif finan</title><g id="Layer_2" data-name="Layer 2"><g id="Layer_1-2" data-name="Layer 1"><path class="cls-1" d="M33,35.06H1.78a.72.72,0,0,1-.72-.72V3.07H0L1.78,0,3.56,3.07H2.5V33.62H33.05V32.56l3.07,1.78L33,36.12Z"/><path class="cls-1" d="M5.58,32.67a2.09,2.09,0,0,1-.43,0,2.13,2.13,0,0,1-1.66-2.52,2.13,2.13,0,0,1,2.09-1.7h.2L10,20.14a2.13,2.13,0,0,1,1.38-3.6h.15a2.13,2.13,0,0,1,2.09,1.73l9.79,1.45a2.12,2.12,0,0,1,1.89-1.17,1.93,1.93,0,0,1,.75.15l5.85-6.13a2.12,2.12,0,1,1,1.77,1,2.26,2.26,0,0,1-.68-.12L27.13,19.6a2.14,2.14,0,0,1-1.66,3.23h-.16a2.13,2.13,0,0,1-2.09-1.73l-9.79-1.45a2.13,2.13,0,0,1-1.88,1.15,1.53,1.53,0,0,1-.3,0L7.05,29a2.13,2.13,0,0,1-1.47,3.67Zm0-2.86a.73.73,0,0,0-.73.72.73.73,0,1,0,1.46,0,.72.72,0,0,0-.62-.72ZM25.29,20a.73.73,0,1,0,.73.73A.73.73,0,0,0,25.29,20Zm-13.74-2a.73.73,0,1,0,.73.73A.73.73,0,0,0,11.55,17.94ZM33.7,10.68a.73.73,0,1,0,0,1.46.73.73,0,1,0,0-1.46Z"/></g></g></svg>