<svg xmlns="http://www.w3.org/2000/svg" viewBox="0 0 35 35"><defs><style>.cls-1{fill:#fff;}</style></defs><title>24. control</title><g id="Layer_2" data-name="Layer 2"><g id="Layer_1-2" data-name="Layer 1"><path class="cls-1" d="M17.5,35a17.89,17.89,0,0,1-2.19-.14,1.94,1.94,0,0,1-1.7-1.93v-2.1a.38.38,0,0,0-.27-.37,12.76,12.76,0,0,1-2.06-.85.38.38,0,0,0-.46.07L9.34,31.16A2,2,0,0,1,8,31.74a1.92,1.92,0,0,1-1.19-.42,16.74,16.74,0,0,1-3.09-3.09,1.94,1.94,0,0,1,.16-2.57l1.48-1.48a.37.37,0,0,0,.07-.45,12.86,12.86,0,0,1-.85-2.07.38.38,0,0,0-.37-.27H2.07A1.94,1.94,0,0,1,.14,19.68a16.82,16.82,0,0,1,0-4.37,1.94,1.94,0,0,1,1.93-1.7h2.1a.38.38,0,0,0,.37-.27,13.25,13.25,0,0,1,.85-2.07.37.37,0,0,0-.07-.45L3.84,9.34a1.93,1.93,0,0,1-.16-2.57A16.74,16.74,0,0,1,6.77,3.68,1.92,1.92,0,0,1,8,3.26a2,2,0,0,1,1.38.58l1.48,1.48a.37.37,0,0,0,.45.07,13.25,13.25,0,0,1,2.07-.85.38.38,0,0,0,.27-.37V2.07A1.94,1.94,0,0,1,15.31.14a17.35,17.35,0,0,1,4.38,0,1.94,1.94,0,0,1,1.7,1.93v2.1a.38.38,0,0,0,.27.37,13.25,13.25,0,0,1,2.07.85.38.38,0,0,0,.45-.07l1.48-1.48A2,2,0,0,1,27,3.26a1.92,1.92,0,0,1,1.19.42,16.74,16.74,0,0,1,3.09,3.09,1.94,1.94,0,0,1-.16,2.57l-1.48,1.48a.37.37,0,0,0-.07.45,13.85,13.85,0,0,1,.85,2.07.38.38,0,0,0,.37.27h2.1a1.94,1.94,0,0,1,1.93,1.7,16.82,16.82,0,0,1,0,4.37,1.94,1.94,0,0,1-1.93,1.71h-2.1a.38.38,0,0,0-.37.27,12.76,12.76,0,0,1-.85,2.06.38.38,0,0,0,.07.46l1.48,1.48a1.93,1.93,0,0,1,.16,2.57,16.74,16.74,0,0,1-3.09,3.09,1.91,1.91,0,0,1-1.19.41,1.94,1.94,0,0,1-1.38-.57l-1.48-1.48a.37.37,0,0,0-.45-.07,13.25,13.25,0,0,1-2.07.85.38.38,0,0,0-.27.37v2.1a1.94,1.94,0,0,1-1.7,1.93A17.89,17.89,0,0,1,17.5,35Zm-6.41-7a2,2,0,0,1,.9.21,11.11,11.11,0,0,0,1.82.76,1.94,1.94,0,0,1,1.36,1.85v2.1a.38.38,0,0,0,.34.39,16.56,16.56,0,0,0,4,0,.38.38,0,0,0,.34-.39v-2.1A1.94,1.94,0,0,1,21.19,29,12,12,0,0,0,23,28.23a2,2,0,0,1,2.27.35l1.48,1.48a.39.39,0,0,0,.28.12.38.38,0,0,0,.24-.08,16.36,16.36,0,0,0,2.82-2.82.4.4,0,0,0,0-.52l-1.48-1.48A2,2,0,0,1,28.22,23,11.11,11.11,0,0,0,29,21.19a2,2,0,0,1,1.85-1.36h2.1a.38.38,0,0,0,.39-.34,15.59,15.59,0,0,0,0-4,.38.38,0,0,0-.39-.34h-2.1A2,2,0,0,1,29,13.81,12,12,0,0,0,28.23,12a1.94,1.94,0,0,1,.35-2.27l1.48-1.48a.39.39,0,0,0,0-.52A16.36,16.36,0,0,0,27.28,4.9.38.38,0,0,0,27,4.82a.39.39,0,0,0-.28.12L25.28,6.42A2,2,0,0,1,23,6.78,11.11,11.11,0,0,0,21.19,6a2,2,0,0,1-1.36-1.85V2.07a.38.38,0,0,0-.34-.39,15.59,15.59,0,0,0-4,0,.38.38,0,0,0-.34.39v2.1A1.94,1.94,0,0,1,13.81,6,11.11,11.11,0,0,0,12,6.78a2,2,0,0,1-2.27-.36L8.24,4.94A.39.39,0,0,0,8,4.82a.38.38,0,0,0-.24.08A16.36,16.36,0,0,0,4.9,7.72a.39.39,0,0,0,0,.52L6.42,9.72A2,2,0,0,1,6.78,12,11.11,11.11,0,0,0,6,13.81a1.94,1.94,0,0,1-1.85,1.36H2.07a.38.38,0,0,0-.39.34,15.59,15.59,0,0,0,0,4,.38.38,0,0,0,.39.34h2.1A1.94,1.94,0,0,1,6,21.19,11.11,11.11,0,0,0,6.78,23a2,2,0,0,1-.36,2.27L4.94,26.76a.4.4,0,0,0,0,.52A16.36,16.36,0,0,0,7.72,30.1a.45.45,0,0,0,.24.08.39.39,0,0,0,.28-.12l1.48-1.48A1.93,1.93,0,0,1,11.09,28Zm6.41-3.9a6.61,6.61,0,1,1,4.68-1.94A6.57,6.57,0,0,1,17.5,24.11Zm0-11.67a5.05,5.05,0,1,0,3.58,1.48A5,5,0,0,0,17.5,12.44Z"/></g></g></svg>