<svg xmlns="http://www.w3.org/2000/svg" viewBox="0 0 26.77 35"><defs><style>.cls-1{fill:#fff;}</style></defs><title>21. cuantificacion</title><g id="Layer_2" data-name="Layer 2"><g id="Layer_1-2" data-name="Layer 1"><path class="cls-1" d="M13.08,26.28a4.31,4.31,0,0,1-2.3-.69l-.38,1.07a4.6,4.6,0,0,0,2.44.7V29h1V27.31a2.76,2.76,0,0,0,2.51-2.71c0-1.41-.83-2.24-2.47-2.91-1.38-.58-2-1-2-1.82,0-.64.46-1.37,1.69-1.37a3.82,3.82,0,0,1,2,.54L16,18a4.21,4.21,0,0,0-2.07-.56V15.88H13v1.61a2.62,2.62,0,0,0-2.4,2.57c0,1.39,1,2.12,2.63,2.76,1.18.48,1.8,1,1.8,1.9S14.21,26.28,13.08,26.28Z"/><path class="cls-1" d="M1.08,29.44A8.7,8.7,0,0,0,4,32.66,16.86,16.86,0,0,0,13.38,35a16.89,16.89,0,0,0,9.37-2.34,8.65,8.65,0,0,0,2.94-3.23,10.12,10.12,0,0,0,1.08-4.73,16.38,16.38,0,0,0-2.84-8.92,15.16,15.16,0,0,0-5.43-5.06,1.62,1.62,0,0,0,.41-1.1V9.55A1.66,1.66,0,0,0,18,8.08c.16-.54.35-1.14.54-1.76.94-3,1.34-4.34,1.26-4.89A1.76,1.76,0,0,0,17.88,0a5,5,0,0,0-1.5.28,11.73,11.73,0,0,1-3,.56,12.08,12.08,0,0,1-3-.55A4.71,4.71,0,0,0,8.88,0,1.76,1.76,0,0,0,6.94,1.43C6.86,2,7.26,3.34,8.2,6.32c.2.63.39,1.24.55,1.77a1.69,1.69,0,0,0-.89,1.46v.07a1.59,1.59,0,0,0,.43,1.09,15.27,15.27,0,0,0-5.46,5.07A16.46,16.46,0,0,0,0,24.71,10.06,10.06,0,0,0,1.08,29.44ZM9.18,9.55a.35.35,0,0,1,.35-.34h7.76a.33.33,0,0,1,.31.34v.07a.3.3,0,0,1-.31.31H9.53a.33.33,0,0,1-.35-.31V9.55Zm-.3-8.23A3.45,3.45,0,0,1,10,1.54a12.81,12.81,0,0,0,3.42.63h0a12.88,12.88,0,0,0,3.41-.63,3.18,3.18,0,0,1,1.07-.22c.22,0,.59,0,.64.29a34.25,34.25,0,0,1-1.2,4.31c-.22.71-.44,1.39-.61,2H10.06c-.17-.58-.38-1.26-.61-2a36.62,36.62,0,0,1-1.2-4.3C8.3,1.36,8.67,1.32,8.88,1.32Zm-5,15.19a13.12,13.12,0,0,1,6.41-5.26h6.09a13.16,13.16,0,0,1,6.41,5.26,15.12,15.12,0,0,1,2.61,8.19A7.76,7.76,0,0,1,22,31.57a15.62,15.62,0,0,1-8.63,2.11,15.64,15.64,0,0,1-8.63-2.11A7.75,7.75,0,0,1,1.32,24.7,15,15,0,0,1,3.93,16.51Z"/></g></g></svg>