<svg xmlns="http://www.w3.org/2000/svg" viewBox="0 0 35 35"><defs><style>.cls-1{fill:#fff;}</style></defs><title>26. microscore</title><g id="Layer_2" data-name="Layer 2"><g id="Layer_1-2" data-name="Layer 1"><path class="cls-1" d="M35,16.72H28.51a5.62,5.62,0,0,0-11.13,0H0v1.56H17.38a5.62,5.62,0,0,0,11.13,0H35ZM22.94,21.58A4.08,4.08,0,1,1,27,17.5,4.08,4.08,0,0,1,22.94,21.58Z"/><path class="cls-1" d="M17.62,30.14H35V28.58H17.62a5.62,5.62,0,0,0-11.13,0H0v1.56H6.49a5.62,5.62,0,0,0,11.13,0ZM8,29.36a4.09,4.09,0,1,1,4.09,4.08A4.09,4.09,0,0,1,8,29.36Z"/><path class="cls-1" d="M17.62,6.42H35V4.86H17.62a5.62,5.62,0,0,0-11.13,0H0V6.42H6.49a5.62,5.62,0,0,0,11.13,0ZM8,5.64a4.09,4.09,0,1,1,4.09,4.08A4.08,4.08,0,0,1,8,5.64Z"/></g></g></svg>