<svg xmlns="http://www.w3.org/2000/svg" viewBox="0 0 206.17 206.17"><defs><style>.cls-1{fill:#f64c58;}</style></defs><title>12. engrane rojo</title><g id="Layer_2" data-name="Layer 2"><g id="Layer_1-2" data-name="Layer 1"><path class="cls-1" d="M89.59,206.17a6.71,6.71,0,0,1-6.12-4.58l-5.92-20.91-2.33-.85c-2.71-1-4.84-1.87-6.7-2.75L66.26,176,47.21,186.53a6,6,0,0,1-2.92.71,6.47,6.47,0,0,1-4.54-1.75L20.67,166.41a6.64,6.64,0,0,1-1.05-7.53L30,140,29,137.77c-.94-2-1.71-4.1-2.53-6.34l-1.06-2.92L4.6,122.59a6.57,6.57,0,0,1-4.6-6V89.47a6.66,6.66,0,0,1,4.58-6l20.8-6,.85-2.32c.73-2,1.64-4.12,2.85-6.69l1.08-2.27-10.53-19a6.63,6.63,0,0,1,1-7.54L39.76,20.56a6.42,6.42,0,0,1,4.53-1.75,6.09,6.09,0,0,1,2.92.71L66.26,30,68.52,29c1.87-.88,4-1.75,6.7-2.74l2.33-.86,5.92-20.9A7.41,7.41,0,0,1,89.64,0h27a6.59,6.59,0,0,1,6,4.52l5.9,20.85,2.34.86c2.69,1,4.82,1.86,6.69,2.74L139.91,30,159,19.52a6.12,6.12,0,0,1,2.92-.71,6.47,6.47,0,0,1,4.55,1.76L185.5,39.64a6.65,6.65,0,0,1,1.05,7.54L176,66.14l1.07,2.27c1.21,2.57,2.12,4.7,2.85,6.69l.85,2.32,20.76,6a6.59,6.59,0,0,1,4.62,6v27.08a6.64,6.64,0,0,1-4.58,6l-20.79,5.93-1.07,2.91c-.82,2.25-1.59,4.37-2.53,6.35L176.14,140l10.4,18.83a6.68,6.68,0,0,1-1,7.56L166.41,185.5a6.46,6.46,0,0,1-4.53,1.74,6,6,0,0,1-2.92-.71L139.91,176l-2.26,1.06c-1.86.88-4,1.75-6.7,2.75l-2.33.85-5.92,20.9a6.65,6.65,0,0,1-6,4.59H89.59Zm-24-43.29a6.37,6.37,0,0,1,3.08.77,69,69,0,0,0,15.87,6.62,6.48,6.48,0,0,1,4.28,4.31l5.43,19h17.61l5.43-19a6.49,6.49,0,0,1,4.32-4.32,69.12,69.12,0,0,0,15.85-6.62,6.54,6.54,0,0,1,6.14,0l17.32,9.6,12.3-12.3-9.58-17.3a6.44,6.44,0,0,1,.08-6.13,70.22,70.22,0,0,0,6.64-15.92,6.51,6.51,0,0,1,4.32-4.4l18.89-5.29V94.29l-18.89-5.44a6.5,6.5,0,0,1-4.32-4.38,68.15,68.15,0,0,0-6.63-15.79,6.58,6.58,0,0,1-.09-6.27l9.72-17.16L161,32.81l-17.3,9.58a6.4,6.4,0,0,1-3.1.78,6.26,6.26,0,0,1-3.08-.77,69.94,69.94,0,0,0-15.87-6.62,6.46,6.46,0,0,1-4.28-4.31l-5.44-18.9H94.29L88.85,31.46a6.52,6.52,0,0,1-4.32,4.34,69.6,69.6,0,0,0-15.86,6.61,6.19,6.19,0,0,1-3,.76,6.28,6.28,0,0,1-3.08-.77L45.22,32.81,32.78,45.25l9.75,17.2a6.57,6.57,0,0,1-.09,6.18,68.71,68.71,0,0,0-6.66,15.82,6.49,6.49,0,0,1-4.32,4.4L12.57,94.29v17.62l18.92,5.3a6.5,6.5,0,0,1,4.29,4.38,70,70,0,0,0,6.63,15.91,6.41,6.41,0,0,1,.08,6.17l-9.56,17.12L45.2,173.26l17.32-9.59A6.3,6.3,0,0,1,65.62,162.88Zm37.47-20a39.8,39.8,0,1,1,39.79-39.79A39.84,39.84,0,0,1,103.09,142.88Zm0-67a27.23,27.23,0,1,0,27.22,27.23A26.94,26.94,0,0,0,103.09,75.86Z"/></g></g></svg>