<svg xmlns="http://www.w3.org/2000/svg" viewBox="0 0 29 35"><defs><style>.cls-1{fill:#fff;}</style></defs><title>27. Mic rural</title><g id="Layer_2" data-name="Layer 2"><g id="Layer_1-2" data-name="Layer 1"><path class="cls-1" d="M1,35a1,1,0,0,1,0-2H13.5V26H10A10,10,0,0,1,0,16a1,1,0,0,1,1-1H5.5a10,10,0,0,1,7.14,3l.86.89V11H10A10,10,0,0,1,0,1,1,1,0,0,1,1,0H5.5a10,10,0,0,1,10,10v1.4l.86-.89a10,10,0,0,1,7.14-3H28a1,1,0,0,1,1,1,10,10,0,0,1-10,10H15.5V33H28a1,1,0,0,1,0,2ZM2.16,17.6A8,8,0,0,0,10,24h3.46l-.12-.6A8,8,0,0,0,5.5,17H2ZM23.5,9.5a8,8,0,0,0-7.84,6.4l-.12.6H19a8,8,0,0,0,7.84-6.4L27,9.5ZM2.16,2.6A8,8,0,0,0,10,9h3.46l-.12-.6A8,8,0,0,0,5.5,2H2Z"/></g></g></svg>