<svg xmlns="http://www.w3.org/2000/svg" viewBox="0 0 38.5 35"><defs><style>.cls-1{fill:#fff;}</style></defs><title>22.balance</title><g id="Layer_2" data-name="Layer 2"><g id="Layer_1-2" data-name="Layer 1"><path class="cls-1" d="M38.5,18.37h0a.84.84,0,0,0-.11-.38s0,0,0-.05L32.26,7.43a.1.1,0,0,1,0,0A.85.85,0,0,0,31.5,7H20.12V1.75h1.76a.88.88,0,0,0,0-1.75H16.62a.88.88,0,0,0,0,1.75h1.76V7H7a.85.85,0,0,0-.71.39.1.1,0,0,1,0,0L.12,17.93s0,0,0,.05a.84.84,0,0,0-.11.38H0v.87a7,7,0,0,0,14,0v-.87h0a.84.84,0,0,0-.11-.38s0,0,0-.05L8.52,8.75h9.86v24.5h-3.5a.88.88,0,1,0,0,1.75h8.74a.88.88,0,1,0,0-1.75h-3.5V8.75H30l-5.36,9.18s0,0,0,.05a.84.84,0,0,0-.11.38h0v.87a7,7,0,0,0,14,0v-.87ZM7,24.5a5.25,5.25,0,0,1-5.25-5.25h10.5A5.25,5.25,0,0,1,7,24.5Zm4.6-7H2.4L7,9.61ZM31.5,9.61l4.6,7.89H26.9Zm0,14.89a5.25,5.25,0,0,1-5.25-5.25h10.5A5.25,5.25,0,0,1,31.5,24.5Z"/></g></g></svg>