<svg xmlns="http://www.w3.org/2000/svg" viewBox="0 0 42.33 42.33"><defs><style>.cls-1{fill:#fff;}</style></defs><title>42. icono capacit</title><g id="Layer_2" data-name="Layer 2"><g id="Layer_1-2" data-name="Layer 1"><path class="cls-1" d="M21.17,0A21.17,21.17,0,1,0,42.33,21.17,21.17,21.17,0,0,0,21.17,0ZM14.86,29.45a1.43,1.43,0,0,1-2-2l6.26-6.26L12.84,14.9a1.42,1.42,0,0,1,0-2,1.44,1.44,0,0,1,2,0l7.27,7.28a1.42,1.42,0,0,1,0,2Zm16.76-7.27-7.27,7.27a1.43,1.43,0,0,1-1,.42,1.43,1.43,0,0,1-1-2.44l6.26-6.26L22.33,14.9a1.42,1.42,0,0,1,0-2,1.44,1.44,0,0,1,2,0l7.27,7.28A1.42,1.42,0,0,1,31.62,22.18Z"/></g></g></svg>