<svg xmlns="http://www.w3.org/2000/svg" viewBox="0 0 8.52 8.52"><defs><style>.cls-1{fill:#68b3d5;}.cls-2{fill:#fff;}</style></defs><title>capacitacion</title><g id="Layer_2" data-name="Layer 2"><g id="Layer_1-2" data-name="Layer 1"><circle class="cls-1" cx="4.26" cy="4.26" r="4.26"/><path class="cls-2" d="M4.7,6a.32.32,0,0,1-.21-.08.3.3,0,0,1,0-.41L5.75,4.26,4.49,3a.29.29,0,0,1,.41-.41L6.36,4.06a.28.28,0,0,1,0,.4L4.9,5.93A.32.32,0,0,1,4.7,6Z"/><path class="cls-2" d="M2.79,6a.32.32,0,0,1-.21-.08.3.3,0,0,1,0-.41L3.84,4.26,2.58,3A.29.29,0,0,1,3,2.59L4.45,4.06a.27.27,0,0,1,0,.4L3,5.93A.32.32,0,0,1,2.79,6Z"/></g></g></svg>