<svg xmlns="http://www.w3.org/2000/svg" viewBox="0 0 325.41 43.82"><defs><style>.cls-1{fill:#68b2d4;}.cls-2{fill:#fff;}</style></defs><title>Asset 5</title><g id="Layer_2" data-name="Layer 2"><g id="Layer_1-2" data-name="Layer 1"><circle class="cls-1" cx="321.87" cy="30.76" r="3.55"/><path class="cls-2" d="M67.64,15.31a7.23,7.23,0,1,0,0,14.45,8.33,8.33,0,0,0,6-2.55v4.45a9.61,9.61,0,0,1-6.74,2.47,11.59,11.59,0,0,1,0-23.18,9.61,9.61,0,0,1,6.74,2.47v4.4A8.33,8.33,0,0,0,67.64,15.31Z"/><path class="cls-2" d="M88.22,11a9.13,9.13,0,0,1,8.46,5l.26-4.58h4.37v22.3H96.94l-.26-4.63a9.1,9.1,0,0,1-8.46,5.07A11.27,11.27,0,0,1,77,22.54,11.27,11.27,0,0,1,88.22,11ZM89,29.76a7.23,7.23,0,1,0-7.36-7.22A7.14,7.14,0,0,0,89,29.76Z"/><path class="cls-2" d="M106.37,11.39h4.32L111,16a9.24,9.24,0,0,1,8.5-5,11.27,11.27,0,0,1,11.19,11.59,11.27,11.27,0,0,1-11.19,11.59,9.21,9.21,0,0,1-8.5-5.07V43.82h-4.59Zm12.34,18.37a7.23,7.23,0,1,0,0-14.45,7.23,7.23,0,0,0,0,14.45Z"/><path class="cls-2" d="M144.75,11a9.12,9.12,0,0,1,8.46,5l.27-4.58h4.36v22.3h-4.36l-.27-4.63a9.09,9.09,0,0,1-8.46,5.07,11.27,11.27,0,0,1-11.19-11.59A11.27,11.27,0,0,1,144.75,11Zm.75,18.81a7.23,7.23,0,1,0-7.36-7.22A7.15,7.15,0,0,0,145.5,29.76Z"/><path class="cls-2" d="M173.57,15.31a7.23,7.23,0,1,0,0,14.45,8.35,8.35,0,0,0,6-2.55v4.45a9.61,9.61,0,0,1-6.74,2.47,11.59,11.59,0,0,1,0-23.18,9.61,9.61,0,0,1,6.74,2.47v4.4A8.35,8.35,0,0,0,173.57,15.31Z"/><path class="cls-2" d="M183.66,5.49A2.47,2.47,0,1,1,186.13,8,2.46,2.46,0,0,1,183.66,5.49Zm4.76,28.2h-4.58V11.39h4.58Z"/><path class="cls-2" d="M204.59,15.75h-4.76V33.69h-4.62V15.75H191.9V11.39h3.31V4.78h4.62v6.61h4.76Z"/><path class="cls-2" d="M217.81,11a9.13,9.13,0,0,1,8.46,5l.26-4.58h4.37v22.3h-4.37l-.26-4.63a9.1,9.1,0,0,1-8.46,5.07,11.27,11.27,0,0,1-11.19-11.59A11.27,11.27,0,0,1,217.81,11Zm.75,18.81a7.23,7.23,0,1,0-7.36-7.22A7.15,7.15,0,0,0,218.56,29.76Z"/><path class="cls-2" d="M246.63,15.31a7.23,7.23,0,1,0,0,14.45,8.35,8.35,0,0,0,6-2.55v4.45a9.62,9.62,0,0,1-6.75,2.47,11.59,11.59,0,0,1,0-23.18,9.62,9.62,0,0,1,6.75,2.47v4.4A8.35,8.35,0,0,0,246.63,15.31Z"/><path class="cls-2" d="M256.72,5.49A2.47,2.47,0,1,1,259.19,8,2.46,2.46,0,0,1,256.72,5.49Zm4.76,28.2H256.9V11.39h4.58Z"/><path class="cls-2" d="M266,22.54a11.88,11.88,0,1,1,11.94,11.59A11.58,11.58,0,0,1,266,22.54Zm19.17,0a7.29,7.29,0,1,0-7.23,7.22A7.15,7.15,0,0,0,285.14,22.54ZM284.43.07l-4.71,6.74h-3.61L279.68.07Z"/><path class="cls-2" d="M315.06,20.6V33.69h-4.58V22.63c0-5.38-2.16-7.32-5.38-7.32-4.36,0-6.56,3.44-6.78,6.74V33.69h-4.59V11.39h4.32l.22,3.57a11.71,11.71,0,0,1,8.59-4C312.11,11,315.06,14.39,315.06,20.6Z"/><circle class="cls-1" cx="21.17" cy="21.17" r="21.17"/><path class="cls-2" d="M23.34,29.87a1.43,1.43,0,0,1-1-2.44l6.26-6.26L22.33,14.9a1.42,1.42,0,0,1,0-2,1.44,1.44,0,0,1,2,0l7.27,7.28a1.42,1.42,0,0,1,0,2l-7.27,7.27A1.43,1.43,0,0,1,23.34,29.87Z"/><path class="cls-2" d="M13.85,29.87a1.43,1.43,0,0,1-1-2.44l6.26-6.26L12.84,14.9a1.42,1.42,0,0,1,0-2,1.44,1.44,0,0,1,2,0l7.27,7.28a1.42,1.42,0,0,1,0,2l-7.27,7.27A1.42,1.42,0,0,1,13.85,29.87Z"/></g></g></svg>