<svg xmlns="http://www.w3.org/2000/svg" viewBox="0 0 18.32 15.04"><defs><style>.cls-1{fill:#666;}</style></defs><title>Asset 4</title><g id="Layer_2" data-name="Layer 2"><g id="Layer_1-2" data-name="Layer 1"><path class="cls-1" d="M5.91,15A10.56,10.56,0,0,1,.19,13.36.41.41,0,0,1,0,12.88a.41.41,0,0,1,.44-.26,6.92,6.92,0,0,0,4.18-.85A4,4,0,0,1,2,9.16a.39.39,0,0,1,.09-.39.36.36,0,0,1,.22-.13A4,4,0,0,1,.7,5.45a.45.45,0,0,1,.2-.37.46.46,0,0,1,.41,0l.11.06A4,4,0,0,1,1.27.86a.4.4,0,0,1,.32-.2.39.39,0,0,1,.35.15A9.81,9.81,0,0,0,8.55,4.37a2.3,2.3,0,0,1,0-.37,4,4,0,0,1,6.75-2.9A6.92,6.92,0,0,0,17.22.32a.41.41,0,0,1,.46,0,.42.42,0,0,1,.14.44,3.88,3.88,0,0,1-.57,1.13l.5-.2a.4.4,0,0,1,.47.11.41.41,0,0,1,0,.49,7.84,7.84,0,0,1-1.71,1.83v.26A10.53,10.53,0,0,1,5.91,15Zm-3.85-1.6a9.75,9.75,0,0,0,3.85.79,9.72,9.72,0,0,0,9.82-9.82c0-.14,0-.29,0-.44a.39.39,0,0,1,.16-.35,7,7,0,0,0,.83-.7,7.62,7.62,0,0,1-.81.14.39.39,0,0,1-.43-.27.4.4,0,0,1,.17-.48,3.28,3.28,0,0,0,.84-.73,6.86,6.86,0,0,1-1.25.36.41.41,0,0,1-.38-.12A3.18,3.18,0,0,0,9.34,4a3,3,0,0,0,.09.73.45.45,0,0,1-.09.35A.35.35,0,0,1,9,5.22,10.64,10.64,0,0,1,1.73,1.81,3.2,3.2,0,0,0,3,5.52.42.42,0,0,1,3.13,6a.46.46,0,0,1-.4.29,4.49,4.49,0,0,1-1.15-.21A3.2,3.2,0,0,0,4.07,8.58.4.4,0,0,1,4.4,9a.42.42,0,0,1-.3.41A4,4,0,0,1,3,9.51a3.19,3.19,0,0,0,2.71,1.62.4.4,0,0,1,.24.72A7.54,7.54,0,0,1,2.06,13.44Z"/></g></g></svg>