<svg xmlns="http://www.w3.org/2000/svg" viewBox="0 0 22.3 18.42"><defs><style>.cls-1{fill:#fff;}</style></defs><title>Asset 6</title><g id="Layer_2" data-name="Layer 2"><g id="Layer_1-2" data-name="Layer 1"><path class="cls-1" d="M7.31,18.11a12.51,12.51,0,0,1-6.78-2,.49.49,0,0,1-.2-.57.49.49,0,0,1,.51-.32,8.17,8.17,0,0,0,5-1,4.73,4.73,0,0,1-3.15-3.09.48.48,0,0,1,.1-.46A.46.46,0,0,1,3,10.54,4.76,4.76,0,0,1,1.14,6.76a.52.52,0,0,1,.24-.44.47.47,0,0,1,.47,0l.09,0A5,5,0,0,1,1.17,3.7a4.74,4.74,0,0,1,.64-2.38.52.52,0,0,1,.38-.24.49.49,0,0,1,.41.18,11.65,11.65,0,0,0,7.82,4.22c0-.14,0-.29,0-.44a4.75,4.75,0,0,1,8-3.44A8,8,0,0,0,20.7.68a.48.48,0,0,1,.7.57,4.89,4.89,0,0,1-.67,1.33c.2-.07.39-.15.59-.24a.48.48,0,0,1,.59.71,9.11,9.11,0,0,1-2,2.17c0,.1,0,.21,0,.31A12.46,12.46,0,0,1,7.31,18.11ZM2.74,16.22a11.7,11.7,0,0,0,4.57.93A11.5,11.5,0,0,0,18.92,5.53c0-.17,0-.35,0-.53a.48.48,0,0,1,.2-.41,8.6,8.6,0,0,0,1-.83c-.32.07-.64.13-1,.17a.48.48,0,0,1-.51-.32.47.47,0,0,1,.2-.57,4,4,0,0,0,1-.86,9.4,9.4,0,0,1-1.49.42.46.46,0,0,1-.44-.14A3.77,3.77,0,0,0,11.37,5a4.12,4.12,0,0,0,.09.86.46.46,0,0,1-.1.42.45.45,0,0,1-.39.17A12.62,12.62,0,0,1,2.35,2.44,3.87,3.87,0,0,0,2.14,3.7,3.75,3.75,0,0,0,3.81,6.84.47.47,0,0,1,4,7.39a.49.49,0,0,1-.47.33,4.41,4.41,0,0,1-1.35-.24,3.77,3.77,0,0,0,2.94,3,.48.48,0,0,1,0,.94,4.69,4.69,0,0,1-1.28.17,3.78,3.78,0,0,0,3.21,1.91.49.49,0,0,1,.45.33.49.49,0,0,1-.16.53A9,9,0,0,1,2.74,16.22Z"/><path class="cls-1" d="M7.31,18.42a12.88,12.88,0,0,1-6.95-2,.77.77,0,0,1-.31-.92.75.75,0,0,1,.84-.52,8,8,0,0,0,4.16-.65,5.09,5.09,0,0,1-2.69-3,.81.81,0,0,1,.14-.74A5.1,5.1,0,0,1,.83,6.76a.82.82,0,0,1,.39-.7A1.11,1.11,0,0,1,1.41,6,4.9,4.9,0,0,1,.87,3.7a5,5,0,0,1,.68-2.53A.79.79,0,0,1,2.17.78a.87.87,0,0,1,.67.29A11.44,11.44,0,0,0,10.1,5.14V5a5,5,0,0,1,8.38-3.77A7.54,7.54,0,0,0,20.54.42a.8.8,0,0,1,.89.06.79.79,0,0,1,.26.86,5.32,5.32,0,0,1-.26.66.81.81,0,0,1,.69.28.8.8,0,0,1,.05.94,9.17,9.17,0,0,1-2,2.14v.12A12.77,12.77,0,0,1,7.31,18.42ZM.78,15.54a.17.17,0,0,0-.16.12.18.18,0,0,0,.07.21,12.21,12.21,0,0,0,6.62,1.94A12.15,12.15,0,0,0,19.58,5.53V5.07L19.7,5a8.9,8.9,0,0,0,2-2.1.17.17,0,0,0,0-.21.17.17,0,0,0-.21,0,6.44,6.44,0,0,1-.61.24l-.92.32.57-.78a4.2,4.2,0,0,0,.63-1.25A.18.18,0,0,0,21.05,1a.16.16,0,0,0-.2,0,8.41,8.41,0,0,1-2.38,1l-.16,0-.12-.12A4.5,4.5,0,0,0,15.14.61,4.43,4.43,0,0,0,10.71,5a2.82,2.82,0,0,0,0,.41l0,.37-.37,0a12,12,0,0,1-8-4.34.21.21,0,0,0-.16-.06.16.16,0,0,0-.13.08,4.39,4.39,0,0,0-.6,2.23,4.38,4.38,0,0,0,.76,2.49l.63.94-1-.5-.1,0a.19.19,0,0,0-.22,0,.23.23,0,0,0-.09.18A4.45,4.45,0,0,0,3.2,10.29l.52.41-.65.13a.27.27,0,0,0-.09.06.18.18,0,0,0,0,.17A4.44,4.44,0,0,0,5.89,14l.68.21L6,14.51a8.47,8.47,0,0,1-5.14,1Zm6.53,1.91a11.91,11.91,0,0,1-4.69-.95L1.55,16l1.16-.12A8.67,8.67,0,0,0,7.19,14.1a.18.18,0,0,0,.06-.2.17.17,0,0,0-.16-.12,4.12,4.12,0,0,1-3.48-2.06l-.26-.47h.54a5.87,5.87,0,0,0,1.19-.15.21.21,0,0,0,.13-.18.18.18,0,0,0-.14-.17A4.08,4.08,0,0,1,1.88,7.54L1.78,7l.5.17a4.39,4.39,0,0,0,1.26.23.19.19,0,0,0,.17-.12.18.18,0,0,0-.07-.21A4.06,4.06,0,0,1,1.83,3.7a4.22,4.22,0,0,1,.23-1.36l.17-.47.35.37a12.43,12.43,0,0,0,8.41,4,.15.15,0,0,0,.14-.07.34.34,0,0,0,0-.15,4.07,4.07,0,0,1,6.94-3.72.15.15,0,0,0,.16,0,8.14,8.14,0,0,0,1.44-.41l1.06-.41-.72.89A4.15,4.15,0,0,1,19,3.3a.18.18,0,0,0,.11.33c.31,0,.63-.1.93-.16l1-.23L20.3,4a10.21,10.21,0,0,1-1,.86.15.15,0,0,0-.07.15c0,.18,0,.36,0,.54A11.81,11.81,0,0,1,7.31,17.45ZM3.92,16.33a11.32,11.32,0,0,0,3.39.51A11.2,11.2,0,0,0,18.62,5.53c0-.17,0-.35,0-.52a.78.78,0,0,1,.32-.66l.14-.11h0a.78.78,0,0,1-.73-.53.77.77,0,0,1,.21-.84l-.15,0a.77.77,0,0,1-.72-.23,3.47,3.47,0,0,0-5.91,3.16.76.76,0,0,1-.16.68.68.68,0,0,1-.68.28A13,13,0,0,1,2.5,3a3.68,3.68,0,0,0-.06.66A3.48,3.48,0,0,0,4,6.59a.78.78,0,0,1,.31.89A.81.81,0,0,1,3.54,8a5.63,5.63,0,0,1-.93-.11,3.46,3.46,0,0,0,2.57,2.24.79.79,0,0,1,.06,1.53,5,5,0,0,1-.81.16A3.56,3.56,0,0,0,7.1,13.18a.77.77,0,0,1,.73.53.8.8,0,0,1-.26.87A9.36,9.36,0,0,1,3.92,16.33Z"/></g></g></svg>